%TF.GenerationSoftware,KiCad,Pcbnew,7.0.7*%
%TF.CreationDate,2024-01-26T20:02:37-03:00*%
%TF.ProjectId,hack_soc_shield,6861636b-5f73-46f6-935f-736869656c64,rev?*%
%TF.SameCoordinates,PX26ed550PY6160b60*%
%TF.FileFunction,Soldermask,Bot*%
%TF.FilePolarity,Negative*%
%FSLAX46Y46*%
G04 Gerber Fmt 4.6, Leading zero omitted, Abs format (unit mm)*
G04 Created by KiCad (PCBNEW 7.0.7) date 2024-01-26 20:02:37*
%MOMM*%
%LPD*%
G01*
G04 APERTURE LIST*
%ADD10R,1.700000X1.700000*%
%ADD11O,1.700000X1.700000*%
%ADD12C,2.000000*%
%ADD13C,1.600000*%
%ADD14C,1.400000*%
%ADD15O,1.400000X1.400000*%
%ADD16R,1.600000X1.600000*%
%ADD17O,1.600000X1.600000*%
G04 APERTURE END LIST*
D10*
%TO.C,J5*%
X23952000Y41783000D03*
D11*
X21412000Y41783000D03*
X18872000Y41783000D03*
X16332000Y41783000D03*
X13792000Y41783000D03*
%TD*%
D12*
%TO.C,SW1*%
X36502000Y40858000D03*
X43002000Y40858000D03*
X36502000Y36358000D03*
X43002000Y36358000D03*
%TD*%
D13*
%TO.C,C3*%
X17602000Y23368000D03*
X17602000Y28368000D03*
%TD*%
%TO.C,C2*%
X17602000Y8168000D03*
X17602000Y13168000D03*
%TD*%
D10*
%TO.C,J1*%
X39192000Y62738000D03*
D11*
X39192000Y60198000D03*
X39192000Y57658000D03*
X39192000Y55118000D03*
X39192000Y52578000D03*
%TD*%
D14*
%TO.C,R2*%
X19507000Y15748000D03*
D15*
X14427000Y15748000D03*
%TD*%
D16*
%TO.C,SW3*%
X42367000Y13208000D03*
D17*
X42367000Y15748000D03*
X42367000Y18288000D03*
X34747000Y18288000D03*
X34747000Y15748000D03*
X34747000Y13208000D03*
%TD*%
D10*
%TO.C,J10*%
X1854000Y71526400D03*
D11*
X1854000Y68986400D03*
X1854000Y66446400D03*
X1854000Y63906400D03*
X1854000Y61366400D03*
X1854000Y58826400D03*
X1854000Y56286400D03*
X1854000Y53746400D03*
X1854000Y51206400D03*
X1854000Y48666400D03*
X1854000Y46126400D03*
X1854000Y43586400D03*
X1854000Y41046400D03*
X1854000Y38506400D03*
X1854000Y35966400D03*
X1854000Y33426400D03*
X1854000Y30886400D03*
X1854000Y28346400D03*
X1854000Y25806400D03*
X1854000Y23266400D03*
X1854000Y20726400D03*
X1854000Y18186400D03*
X1854000Y15646400D03*
X1854000Y13106400D03*
X1854000Y10566400D03*
X1854000Y8026400D03*
X1854000Y5486400D03*
X1854000Y2946400D03*
%TD*%
D14*
%TO.C,R3*%
X19507000Y30988000D03*
D15*
X14427000Y30988000D03*
%TD*%
D10*
%TO.C,J11*%
X74345600Y3048000D03*
D11*
X74345600Y5588000D03*
X74345600Y8128000D03*
X74345600Y10668000D03*
X74345600Y13208000D03*
X74345600Y15748000D03*
X74345600Y18288000D03*
X74345600Y20828000D03*
X74345600Y23368000D03*
X74345600Y25908000D03*
X74345600Y28448000D03*
X74345600Y30988000D03*
X74345600Y33528000D03*
X74345600Y36068000D03*
X74345600Y38608000D03*
X74345600Y41148000D03*
X74345600Y43688000D03*
X74345600Y46228000D03*
X74345600Y48768000D03*
X74345600Y51308000D03*
X74345600Y53848000D03*
X74345600Y56388000D03*
X74345600Y58928000D03*
X74345600Y61468000D03*
X74345600Y64008000D03*
X74345600Y66548000D03*
X74345600Y69088000D03*
X74345600Y71628000D03*
%TD*%
D13*
%TO.C,C1*%
X58877000Y13128000D03*
X58877000Y8128000D03*
%TD*%
D16*
%TO.C,SW2*%
X53204500Y69093000D03*
D17*
X53204500Y66553000D03*
X60824500Y66553000D03*
X60824500Y69093000D03*
%TD*%
D14*
%TO.C,R4*%
X29667000Y33528000D03*
D15*
X29667000Y38608000D03*
%TD*%
D14*
%TO.C,R1*%
X56972000Y5588000D03*
D15*
X62052000Y5588000D03*
%TD*%
D10*
%TO.C,J2*%
X66273400Y71780400D03*
D11*
X68813400Y71780400D03*
%TD*%
M02*
