%TF.GenerationSoftware,KiCad,Pcbnew,7.0.7*%
%TF.CreationDate,2024-01-26T20:02:37-03:00*%
%TF.ProjectId,hack_soc_shield,6861636b-5f73-46f6-935f-736869656c64,rev?*%
%TF.SameCoordinates,PX26ed550PY6160b60*%
%TF.FileFunction,Copper,L2,Bot*%
%TF.FilePolarity,Positive*%
%FSLAX46Y46*%
G04 Gerber Fmt 4.6, Leading zero omitted, Abs format (unit mm)*
G04 Created by KiCad (PCBNEW 7.0.7) date 2024-01-26 20:02:37*
%MOMM*%
%LPD*%
G01*
G04 APERTURE LIST*
%TA.AperFunction,ComponentPad*%
%ADD10R,1.700000X1.700000*%
%TD*%
%TA.AperFunction,ComponentPad*%
%ADD11O,1.700000X1.700000*%
%TD*%
%TA.AperFunction,ComponentPad*%
%ADD12C,2.000000*%
%TD*%
%TA.AperFunction,ComponentPad*%
%ADD13C,1.600000*%
%TD*%
%TA.AperFunction,ComponentPad*%
%ADD14C,1.400000*%
%TD*%
%TA.AperFunction,ComponentPad*%
%ADD15O,1.400000X1.400000*%
%TD*%
%TA.AperFunction,ComponentPad*%
%ADD16R,1.600000X1.600000*%
%TD*%
%TA.AperFunction,ComponentPad*%
%ADD17O,1.600000X1.600000*%
%TD*%
%TA.AperFunction,ViaPad*%
%ADD18C,1.500000*%
%TD*%
%TA.AperFunction,Conductor*%
%ADD19C,0.500000*%
%TD*%
%TA.AperFunction,Conductor*%
%ADD20C,1.200000*%
%TD*%
G04 APERTURE END LIST*
D10*
%TO.P,J5,1,Pin_1*%
%TO.N,+3.3V*%
X23952000Y41783000D03*
D11*
%TO.P,J5,2,Pin_2*%
%TO.N,mprj_io[27]*%
X21412000Y41783000D03*
%TO.P,J5,3,Pin_3*%
%TO.N,mprj_io[28]*%
X18872000Y41783000D03*
%TO.P,J5,4,Pin_4*%
%TO.N,mprj_io[29]*%
X16332000Y41783000D03*
%TO.P,J5,5,Pin_5*%
%TO.N,GND*%
X13792000Y41783000D03*
%TD*%
D12*
%TO.P,SW1,1,1*%
%TO.N,mprj_io[26]*%
X36502000Y40858000D03*
X43002000Y40858000D03*
%TO.P,SW1,2,2*%
%TO.N,+3.3V*%
X36502000Y36358000D03*
X43002000Y36358000D03*
%TD*%
D13*
%TO.P,C3,1*%
%TO.N,+3.3V*%
X17602000Y23368000D03*
%TO.P,C3,2*%
%TO.N,GND*%
X17602000Y28368000D03*
%TD*%
%TO.P,C2,1*%
%TO.N,+3.3V*%
X17602000Y8168000D03*
%TO.P,C2,2*%
%TO.N,GND*%
X17602000Y13168000D03*
%TD*%
D10*
%TO.P,J1,1,Pin_1*%
%TO.N,GND*%
X39192000Y62738000D03*
D11*
%TO.P,J1,2,Pin_2*%
X39192000Y60198000D03*
%TO.P,J1,3,Pin_3*%
X39192000Y57658000D03*
%TO.P,J1,4,Pin_4*%
X39192000Y55118000D03*
%TO.P,J1,5,Pin_5*%
X39192000Y52578000D03*
%TD*%
D14*
%TO.P,R2,1*%
%TO.N,+3.3V*%
X19507000Y15748000D03*
D15*
%TO.P,R2,2*%
%TO.N,rom_cs*%
X14427000Y15748000D03*
%TD*%
D16*
%TO.P,SW3,1*%
%TO.N,mprj_io[20]*%
X42367000Y13208000D03*
D17*
%TO.P,SW3,2*%
%TO.N,mprj_io[14]*%
X42367000Y15748000D03*
%TO.P,SW3,3*%
%TO.N,mprj_io[8]*%
X42367000Y18288000D03*
%TO.P,SW3,4*%
%TO.N,ram_cs*%
X34747000Y18288000D03*
%TO.P,SW3,5*%
%TO.N,rom_cs*%
X34747000Y15748000D03*
%TO.P,SW3,6*%
%TO.N,vram_cs*%
X34747000Y13208000D03*
%TD*%
D10*
%TO.P,J10,1,Pin_1*%
%TO.N,mprj_io[37]*%
X1854000Y71526400D03*
D11*
%TO.P,J10,2,Pin_2*%
%TO.N,mprj_io[36]*%
X1854000Y68986400D03*
%TO.P,J10,3,Pin_3*%
%TO.N,mprj_io[35]*%
X1854000Y66446400D03*
%TO.P,J10,4,Pin_4*%
%TO.N,mprj_io[34]*%
X1854000Y63906400D03*
%TO.P,J10,5,Pin_5*%
%TO.N,~{RST}*%
X1854000Y61366400D03*
%TO.P,J10,6,Pin_6*%
%TO.N,GND*%
X1854000Y58826400D03*
%TO.P,J10,7,Pin_7*%
%TO.N,vddio*%
X1854000Y56286400D03*
%TO.P,J10,8,Pin_8*%
%TO.N,mprj_io[33]*%
X1854000Y53746400D03*
%TO.P,J10,9,Pin_9*%
%TO.N,mprj_io[32]*%
X1854000Y51206400D03*
%TO.P,J10,10,Pin_10*%
%TO.N,mprj_io[31]*%
X1854000Y48666400D03*
%TO.P,J10,11,Pin_11*%
%TO.N,mprj_io[30]*%
X1854000Y46126400D03*
%TO.P,J10,12,Pin_12*%
%TO.N,mprj_io[29]*%
X1854000Y43586400D03*
%TO.P,J10,13,Pin_13*%
%TO.N,mprj_io[28]*%
X1854000Y41046400D03*
%TO.P,J10,14,Pin_14*%
%TO.N,mprj_io[27]*%
X1854000Y38506400D03*
%TO.P,J10,15,Pin_15*%
%TO.N,mprj_io[26]*%
X1854000Y35966400D03*
%TO.P,J10,16,Pin_16*%
%TO.N,mprj_io[25]*%
X1854000Y33426400D03*
%TO.P,J10,17,Pin_17*%
%TO.N,mprj_io[24]*%
X1854000Y30886400D03*
%TO.P,J10,18,Pin_18*%
%TO.N,mprj_io[23]*%
X1854000Y28346400D03*
%TO.P,J10,19,Pin_19*%
%TO.N,mprj_io[22]*%
X1854000Y25806400D03*
%TO.P,J10,20,Pin_20*%
%TO.N,mprj_io[21]*%
X1854000Y23266400D03*
%TO.P,J10,21,Pin_21*%
%TO.N,mprj_io[20]*%
X1854000Y20726400D03*
%TO.P,J10,22,Pin_22*%
%TO.N,mprj_io[19]*%
X1854000Y18186400D03*
%TO.P,J10,23,Pin_23*%
%TO.N,mprj_io[18]*%
X1854000Y15646400D03*
%TO.P,J10,24,Pin_24*%
%TO.N,mprj_io[17]*%
X1854000Y13106400D03*
%TO.P,J10,25,Pin_25*%
%TO.N,mprj_io[16]*%
X1854000Y10566400D03*
%TO.P,J10,26,Pin_26*%
%TO.N,mprj_io[15]*%
X1854000Y8026400D03*
%TO.P,J10,27,Pin_27*%
%TO.N,mprj_io[14]*%
X1854000Y5486400D03*
%TO.P,J10,28,Pin_28*%
%TO.N,GND*%
X1854000Y2946400D03*
%TD*%
D14*
%TO.P,R3,1*%
%TO.N,+3.3V*%
X19507000Y30988000D03*
D15*
%TO.P,R3,2*%
%TO.N,vram_cs*%
X14427000Y30988000D03*
%TD*%
D10*
%TO.P,J11,1,Pin_1*%
%TO.N,GND*%
X74345600Y3048000D03*
D11*
%TO.P,J11,2,Pin_2*%
%TO.N,mprj_io[13]*%
X74345600Y5588000D03*
%TO.P,J11,3,Pin_3*%
%TO.N,mprj_io[12]*%
X74345600Y8128000D03*
%TO.P,J11,4,Pin_4*%
%TO.N,mprj_io[11]*%
X74345600Y10668000D03*
%TO.P,J11,5,Pin_5*%
%TO.N,mprj_io[10]*%
X74345600Y13208000D03*
%TO.P,J11,6,Pin_6*%
%TO.N,mprj_io[9]*%
X74345600Y15748000D03*
%TO.P,J11,7,Pin_7*%
%TO.N,mprj_io[8]*%
X74345600Y18288000D03*
%TO.P,J11,8,Pin_8*%
%TO.N,mprj_io[7]*%
X74345600Y20828000D03*
%TO.P,J11,9,Pin_9*%
%TO.N,mprj_io[6]_ser_tx*%
X74345600Y23368000D03*
%TO.P,J11,10,Pin_10*%
%TO.N,mprj_io[5]_ser_rx*%
X74345600Y25908000D03*
%TO.P,J11,11,Pin_11*%
%TO.N,mprj_io[4]_SCK*%
X74345600Y28448000D03*
%TO.P,J11,12,Pin_12*%
%TO.N,mprj_io[3]_CSB*%
X74345600Y30988000D03*
%TO.P,J11,13,Pin_13*%
%TO.N,mprj_io[2]_SDI*%
X74345600Y33528000D03*
%TO.P,J11,14,Pin_14*%
%TO.N,mprj_io[1]_SDO*%
X74345600Y36068000D03*
%TO.P,J11,15,Pin_15*%
%TO.N,mprj_io[0]*%
X74345600Y38608000D03*
%TO.P,J11,16,Pin_16*%
%TO.N,vdda1*%
X74345600Y41148000D03*
%TO.P,J11,17,Pin_17*%
%TO.N,GND*%
X74345600Y43688000D03*
%TO.P,J11,18,Pin_18*%
X74345600Y46228000D03*
%TO.P,J11,19,Pin_19*%
%TO.N,xclk*%
X74345600Y48768000D03*
%TO.P,J11,20,Pin_20*%
%TO.N,gpio*%
X74345600Y51308000D03*
%TO.P,J11,21,Pin_21*%
%TO.N,vccd2*%
X74345600Y53848000D03*
%TO.P,J11,22,Pin_22*%
%TO.N,+1V8*%
X74345600Y56388000D03*
%TO.P,J11,23,Pin_23*%
X74345600Y58928000D03*
%TO.P,J11,24,Pin_24*%
%TO.N,vccd1*%
X74345600Y61468000D03*
%TO.P,J11,25,Pin_25*%
%TO.N,vdda2*%
X74345600Y64008000D03*
%TO.P,J11,26,Pin_26*%
%TO.N,+3.3V*%
X74345600Y66548000D03*
%TO.P,J11,27,Pin_27*%
X74345600Y69088000D03*
%TO.P,J11,28,Pin_28*%
%TO.N,GND*%
X74345600Y71628000D03*
%TD*%
D13*
%TO.P,C1,1*%
%TO.N,+3.3V*%
X58877000Y13128000D03*
%TO.P,C1,2*%
%TO.N,GND*%
X58877000Y8128000D03*
%TD*%
D16*
%TO.P,SW2,1*%
%TO.N,Net-(J2-Pin_1)*%
X53204500Y69093000D03*
D17*
%TO.P,SW2,2*%
%TO.N,unconnected-(SW2-Pad2)*%
X53204500Y66553000D03*
%TO.P,SW2,3*%
%TO.N,unconnected-(SW2-Pad3)*%
X60824500Y66553000D03*
%TO.P,SW2,4*%
%TO.N,Net-(J2-Pin_2)*%
X60824500Y69093000D03*
%TD*%
D14*
%TO.P,R4,1*%
%TO.N,mprj_io[26]*%
X29667000Y33528000D03*
D15*
%TO.P,R4,2*%
%TO.N,GND*%
X29667000Y38608000D03*
%TD*%
D14*
%TO.P,R1,1*%
%TO.N,+3.3V*%
X56972000Y5588000D03*
D15*
%TO.P,R1,2*%
%TO.N,ram_cs*%
X62052000Y5588000D03*
%TD*%
D10*
%TO.P,J2,1,Pin_1*%
%TO.N,Net-(J2-Pin_1)*%
X66273400Y71780400D03*
D11*
%TO.P,J2,2,Pin_2*%
%TO.N,Net-(J2-Pin_2)*%
X68813400Y71780400D03*
%TD*%
D18*
%TO.N,GND*%
X50622000Y6223000D03*
X23317000Y56388000D03*
X8712000Y13843000D03*
X68402000Y8128000D03*
X49352000Y53213000D03*
X8712000Y29083000D03*
X37287000Y25908000D03*
X39192000Y70358000D03*
X57607000Y27813000D03*
X37287000Y6858000D03*
%TO.N,mprj_io[29]*%
X11887000Y44323000D03*
%TO.N,mprj_io[28]*%
X18872000Y39243000D03*
%TO.N,mprj_io[27]*%
X21412000Y37973000D03*
%TO.N,mprj_io[20]*%
X44907000Y13208000D03*
%TO.N,mprj_io[14]*%
X44907000Y15748000D03*
%TO.N,mprj_io[8]*%
X44907000Y18288000D03*
%TO.N,+3.3V*%
X26492000Y44323000D03*
X43002000Y29718000D03*
%TO.N,Net-(J2-Pin_1)*%
X50622000Y69088000D03*
%TO.N,Net-(J2-Pin_2)*%
X63322000Y69088000D03*
%TD*%
D19*
%TO.N,mprj_io[29]*%
X16332000Y41783000D02*
X16332000Y43053000D01*
X16332000Y43053000D02*
X15062000Y44323000D01*
X15062000Y44323000D02*
X11887000Y44323000D01*
%TO.N,mprj_io[28]*%
X18872000Y39243000D02*
X18872000Y41783000D01*
%TO.N,mprj_io[27]*%
X21412000Y37973000D02*
X21412000Y41783000D01*
%TO.N,mprj_io[26]*%
X36502000Y40858000D02*
X34457000Y40858000D01*
X33477000Y35433000D02*
X31572000Y33528000D01*
X31572000Y33528000D02*
X29667000Y33528000D01*
X33477000Y39878000D02*
X33477000Y35433000D01*
X36502000Y40858000D02*
X43002000Y40858000D01*
X34457000Y40858000D02*
X33477000Y39878000D01*
%TO.N,mprj_io[20]*%
X42367000Y13208000D02*
X44907000Y13208000D01*
%TO.N,mprj_io[14]*%
X42367000Y15748000D02*
X44907000Y15748000D01*
%TO.N,mprj_io[8]*%
X44907000Y18288000D02*
X42367000Y18288000D01*
D20*
%TO.N,+3.3V*%
X51534500Y16740500D02*
X55147000Y13128000D01*
X55067000Y5588000D02*
X56972000Y5588000D01*
X25222000Y29718000D02*
X23952000Y30988000D01*
X23952000Y30988000D02*
X19507000Y30988000D01*
X43002000Y29718000D02*
X43002000Y29003000D01*
X30937000Y29718000D02*
X24587000Y23368000D01*
X22047000Y15748000D02*
X19507000Y15748000D01*
X43002000Y29003000D02*
X51534500Y20470500D01*
X24587000Y15113000D02*
X17642000Y8168000D01*
X51534500Y20470500D02*
X51534500Y9120500D01*
X24587000Y23368000D02*
X17602000Y23368000D01*
X43002000Y29718000D02*
X43002000Y36358000D01*
X43002000Y29718000D02*
X30937000Y29718000D01*
X55147000Y13128000D02*
X58877000Y13128000D01*
X24587000Y20828000D02*
X24587000Y18288000D01*
X43002000Y36358000D02*
X36502000Y36358000D01*
X51534500Y9120500D02*
X55067000Y5588000D01*
X24587000Y20828000D02*
X24587000Y15113000D01*
X24587000Y23368000D02*
X24587000Y20828000D01*
X17642000Y8168000D02*
X17602000Y8168000D01*
X24587000Y18288000D02*
X22047000Y15748000D01*
X30937000Y29718000D02*
X25222000Y29718000D01*
D19*
X23952000Y41783000D02*
X26492000Y44323000D01*
D20*
X51534500Y20470500D02*
X51534500Y16740500D01*
D19*
%TO.N,Net-(J2-Pin_1)*%
X50622000Y69088000D02*
X53199500Y69088000D01*
X53199500Y69088000D02*
X53204500Y69093000D01*
%TO.N,Net-(J2-Pin_2)*%
X63322000Y69088000D02*
X60829500Y69088000D01*
X60829500Y69088000D02*
X60824500Y69093000D01*
%TO.N,ram_cs*%
X62052000Y4318000D02*
X62052000Y5588000D01*
X38557000Y14318000D02*
X49827000Y3048000D01*
X38557000Y17653000D02*
X38557000Y14318000D01*
X60782000Y3048000D02*
X62052000Y4318000D01*
X49827000Y3048000D02*
X60782000Y3048000D01*
X34747000Y18288000D02*
X37922000Y18288000D01*
X37922000Y18288000D02*
X38557000Y17653000D01*
%TO.N,rom_cs*%
X22047000Y5588000D02*
X32207000Y15748000D01*
X15697000Y5588000D02*
X22047000Y5588000D01*
X14427000Y15748000D02*
X14427000Y16383000D01*
X14427000Y15748000D02*
X14427000Y6858000D01*
X32207000Y15748000D02*
X34747000Y15748000D01*
X14427000Y6858000D02*
X15697000Y5588000D01*
%TO.N,vram_cs*%
X34747000Y13208000D02*
X32842000Y13208000D01*
X6172000Y22733000D02*
X14427000Y30988000D01*
X6172000Y8128000D02*
X6172000Y22733000D01*
X22682000Y3048000D02*
X11252000Y3048000D01*
X32842000Y13208000D02*
X22682000Y3048000D01*
X11252000Y3048000D02*
X6172000Y8128000D01*
%TD*%
%TA.AperFunction,Conductor*%
%TO.N,GND*%
G36*
X74537466Y45729413D02*
G01*
X74584416Y45681104D01*
X74595600Y45633010D01*
X74595600Y44282991D01*
X74574783Y44218922D01*
X74520283Y44179326D01*
X74471088Y44175100D01*
X74381364Y44188000D01*
X74381363Y44188000D01*
X74309837Y44188000D01*
X74309835Y44188000D01*
X74220111Y44175100D01*
X74153732Y44186588D01*
X74106782Y44234899D01*
X74095599Y44282991D01*
X74095600Y44838000D01*
X74095599Y45633010D01*
X74116416Y45697078D01*
X74170916Y45736675D01*
X74220112Y45740900D01*
X74309824Y45728001D01*
X74309836Y45728001D01*
X74309837Y45728000D01*
X74309838Y45728000D01*
X74381362Y45728000D01*
X74381363Y45728000D01*
X74381364Y45728001D01*
X74381375Y45728001D01*
X74471087Y45740900D01*
X74537466Y45729413D01*
G37*
%TD.AperFunction*%
%TA.AperFunction,Conductor*%
G36*
X39383866Y54619413D02*
G01*
X39430816Y54571104D01*
X39442000Y54523010D01*
X39442000Y53172991D01*
X39421183Y53108922D01*
X39366683Y53069326D01*
X39317488Y53065100D01*
X39227764Y53078000D01*
X39227763Y53078000D01*
X39156237Y53078000D01*
X39156235Y53078000D01*
X39066512Y53065100D01*
X39000133Y53076588D01*
X38953183Y53124898D01*
X38942000Y53172991D01*
X38942000Y54523010D01*
X38962817Y54587079D01*
X39017317Y54626675D01*
X39066513Y54630900D01*
X39156224Y54618001D01*
X39156236Y54618001D01*
X39156237Y54618000D01*
X39156238Y54618000D01*
X39227762Y54618000D01*
X39227763Y54618000D01*
X39227764Y54618001D01*
X39227775Y54618001D01*
X39317487Y54630900D01*
X39383866Y54619413D01*
G37*
%TD.AperFunction*%
%TA.AperFunction,Conductor*%
G36*
X39383866Y57159413D02*
G01*
X39430816Y57111104D01*
X39442000Y57063010D01*
X39442000Y55712991D01*
X39421183Y55648922D01*
X39366683Y55609326D01*
X39317488Y55605100D01*
X39227764Y55618000D01*
X39227763Y55618000D01*
X39156237Y55618000D01*
X39156235Y55618000D01*
X39066512Y55605100D01*
X39000133Y55616588D01*
X38953183Y55664898D01*
X38942000Y55712991D01*
X38942000Y57063010D01*
X38962817Y57127079D01*
X39017317Y57166675D01*
X39066513Y57170900D01*
X39156224Y57158001D01*
X39156236Y57158001D01*
X39156237Y57158000D01*
X39156238Y57158000D01*
X39227762Y57158000D01*
X39227763Y57158000D01*
X39227764Y57158001D01*
X39227775Y57158001D01*
X39317487Y57170900D01*
X39383866Y57159413D01*
G37*
%TD.AperFunction*%
%TA.AperFunction,Conductor*%
G36*
X39383866Y59699413D02*
G01*
X39430816Y59651104D01*
X39442000Y59603010D01*
X39442000Y58252991D01*
X39421183Y58188922D01*
X39366683Y58149326D01*
X39317488Y58145100D01*
X39227764Y58158000D01*
X39227763Y58158000D01*
X39156237Y58158000D01*
X39156235Y58158000D01*
X39066512Y58145100D01*
X39000133Y58156588D01*
X38953183Y58204898D01*
X38942000Y58252991D01*
X38942000Y59603010D01*
X38962817Y59667079D01*
X39017317Y59706675D01*
X39066513Y59710900D01*
X39156224Y59698001D01*
X39156236Y59698001D01*
X39156237Y59698000D01*
X39156238Y59698000D01*
X39227762Y59698000D01*
X39227763Y59698000D01*
X39227764Y59698001D01*
X39227775Y59698001D01*
X39317487Y59710900D01*
X39383866Y59699413D01*
G37*
%TD.AperFunction*%
%TA.AperFunction,Conductor*%
G36*
X39383866Y62239413D02*
G01*
X39430816Y62191104D01*
X39442000Y62143010D01*
X39442000Y60792991D01*
X39421183Y60728922D01*
X39366683Y60689326D01*
X39317488Y60685100D01*
X39227764Y60698000D01*
X39227763Y60698000D01*
X39156237Y60698000D01*
X39156235Y60698000D01*
X39066512Y60685100D01*
X39000133Y60696588D01*
X38953183Y60744898D01*
X38942000Y60792991D01*
X38942000Y62143010D01*
X38962817Y62207079D01*
X39017317Y62246675D01*
X39066513Y62250900D01*
X39156224Y62238001D01*
X39156236Y62238001D01*
X39156237Y62238000D01*
X39156238Y62238000D01*
X39227762Y62238000D01*
X39227763Y62238000D01*
X39227764Y62238001D01*
X39227775Y62238001D01*
X39317487Y62250900D01*
X39383866Y62239413D01*
G37*
%TD.AperFunction*%
%TA.AperFunction,Conductor*%
G36*
X76154569Y73810683D02*
G01*
X76194165Y73756183D01*
X76199500Y73722500D01*
X76199500Y109500D01*
X76178683Y45431D01*
X76124183Y5835D01*
X76090500Y500D01*
X109500Y500D01*
X45431Y21317D01*
X5835Y75817D01*
X500Y109500D01*
X500Y2696400D01*
X523364Y2696400D01*
X580568Y2482911D01*
X580573Y2482898D01*
X680398Y2268824D01*
X680400Y2268820D01*
X815888Y2075324D01*
X982923Y1908289D01*
X1176419Y1772801D01*
X1176423Y1772799D01*
X1390497Y1672974D01*
X1390510Y1672969D01*
X1603999Y1615766D01*
X1604000Y1615766D01*
X1604000Y2351410D01*
X1624817Y2415479D01*
X1679317Y2455075D01*
X1728513Y2459300D01*
X1818224Y2446401D01*
X1818236Y2446401D01*
X1818237Y2446400D01*
X1818238Y2446400D01*
X1889762Y2446400D01*
X1889763Y2446400D01*
X1889764Y2446401D01*
X1889775Y2446401D01*
X1979486Y2459300D01*
X2045865Y2447814D01*
X2092815Y2399504D01*
X2103999Y2351410D01*
X2103999Y1615766D01*
X2104000Y1615766D01*
X2317489Y1672969D01*
X2317502Y1672974D01*
X2531576Y1772799D01*
X2531580Y1772801D01*
X2725076Y1908289D01*
X2892111Y2075324D01*
X2944515Y2150164D01*
X72995600Y2150164D01*
X73002000Y2090630D01*
X73002000Y2090629D01*
X73052248Y1955910D01*
X73052249Y1955906D01*
X73138406Y1840817D01*
X73138416Y1840807D01*
X73253505Y1754650D01*
X73253509Y1754649D01*
X73388229Y1704401D01*
X73447764Y1698000D01*
X74095599Y1698000D01*
X74095600Y1698001D01*
X74095600Y2453010D01*
X74116417Y2517079D01*
X74170917Y2556675D01*
X74220113Y2560900D01*
X74309824Y2548001D01*
X74309836Y2548001D01*
X74309837Y2548000D01*
X74309838Y2548000D01*
X74381362Y2548000D01*
X74381363Y2548000D01*
X74381364Y2548001D01*
X74381375Y2548001D01*
X74471087Y2560900D01*
X74537466Y2549413D01*
X74584416Y2501104D01*
X74595600Y2453010D01*
X74595599Y1698002D01*
X74595601Y1698000D01*
X75243436Y1698000D01*
X75302970Y1704401D01*
X75302971Y1704401D01*
X75437690Y1754649D01*
X75437694Y1754650D01*
X75552783Y1840807D01*
X75552793Y1840817D01*
X75638950Y1955906D01*
X75638951Y1955910D01*
X75689199Y2090629D01*
X75689199Y2090630D01*
X75695600Y2150164D01*
X75695599Y2798000D01*
X74938909Y2798000D01*
X74874840Y2818817D01*
X74835244Y2873317D01*
X74834324Y2937708D01*
X74845600Y2976112D01*
X74845600Y3119889D01*
X74834324Y3158292D01*
X74836248Y3225630D01*
X74877385Y3278977D01*
X74938909Y3298000D01*
X75695599Y3298000D01*
X75695599Y3298002D01*
X75695600Y3945837D01*
X75689199Y4005371D01*
X75689199Y4005372D01*
X75638951Y4140091D01*
X75638950Y4140095D01*
X75552793Y4255184D01*
X75552783Y4255194D01*
X75437694Y4341351D01*
X75437690Y4341352D01*
X75302970Y4391600D01*
X75243436Y4398000D01*
X74992248Y4398000D01*
X74928179Y4418817D01*
X74888583Y4473317D01*
X74888583Y4540683D01*
X74928179Y4595183D01*
X74934867Y4599673D01*
X75041892Y4665941D01*
X75041896Y4665945D01*
X75041902Y4665948D01*
X75199472Y4809593D01*
X75327966Y4979745D01*
X75423005Y5170611D01*
X75481356Y5375690D01*
X75501029Y5588000D01*
X75481356Y5800310D01*
X75423005Y6005389D01*
X75352722Y6146538D01*
X75327967Y6196254D01*
X75199470Y6366409D01*
X75041903Y6510051D01*
X75041899Y6510054D01*
X74860624Y6622295D01*
X74860622Y6622297D01*
X74661798Y6699321D01*
X74661794Y6699322D01*
X74452210Y6738500D01*
X74238990Y6738500D01*
X74238989Y6738500D01*
X74029405Y6699322D01*
X74029401Y6699321D01*
X73830577Y6622297D01*
X73830575Y6622295D01*
X73649300Y6510054D01*
X73649296Y6510051D01*
X73491729Y6366409D01*
X73363232Y6196254D01*
X73268194Y6005388D01*
X73209843Y5800310D01*
X73190171Y5588001D01*
X73190171Y5588000D01*
X73209843Y5375691D01*
X73268194Y5170613D01*
X73363232Y4979747D01*
X73421890Y4902073D01*
X73470138Y4838182D01*
X73491729Y4809592D01*
X73526165Y4778199D01*
X73639774Y4674630D01*
X73649296Y4665950D01*
X73649307Y4665941D01*
X73756333Y4599673D01*
X73799847Y4548246D01*
X73804822Y4481065D01*
X73769358Y4423789D01*
X73707002Y4398298D01*
X73698952Y4398000D01*
X73447764Y4398000D01*
X73388229Y4391600D01*
X73388228Y4391600D01*
X73253509Y4341352D01*
X73253505Y4341351D01*
X73138416Y4255194D01*
X73138406Y4255184D01*
X73052249Y4140095D01*
X73052248Y4140091D01*
X73002000Y4005372D01*
X73002000Y4005371D01*
X72995600Y3945837D01*
X72995600Y3298001D01*
X72995601Y3298000D01*
X73752291Y3298000D01*
X73816360Y3277183D01*
X73855956Y3222683D01*
X73856876Y3158292D01*
X73845600Y3119889D01*
X73845600Y2976112D01*
X73856876Y2937708D01*
X73854952Y2870370D01*
X73813815Y2817023D01*
X73752291Y2798000D01*
X72995600Y2798000D01*
X72995600Y2150164D01*
X2944515Y2150164D01*
X3027599Y2268820D01*
X3027601Y2268824D01*
X3127426Y2482898D01*
X3127431Y2482911D01*
X3184636Y2696400D01*
X2447309Y2696400D01*
X2383240Y2717217D01*
X2343644Y2771717D01*
X2342724Y2836108D01*
X2354000Y2874512D01*
X2354000Y3018289D01*
X2342724Y3056692D01*
X2344648Y3124030D01*
X2385785Y3177377D01*
X2447309Y3196400D01*
X3184635Y3196400D01*
X3184635Y3196401D01*
X3127431Y3409890D01*
X3127427Y3409899D01*
X3027602Y3623973D01*
X2892107Y3817481D01*
X2725082Y3984507D01*
X2725076Y3984512D01*
X2531580Y4120000D01*
X2531576Y4120002D01*
X2317502Y4219827D01*
X2317488Y4219832D01*
X2315871Y4220265D01*
X2315327Y4220618D01*
X2313022Y4221457D01*
X2313215Y4221990D01*
X2259375Y4256957D01*
X2235235Y4319849D01*
X2252673Y4384919D01*
X2304709Y4427189D01*
X2369019Y4452102D01*
X2550302Y4564348D01*
X2707872Y4707993D01*
X2836366Y4878145D01*
X2931405Y5069011D01*
X2989756Y5274090D01*
X3009429Y5486400D01*
X3000014Y5588001D01*
X2989756Y5698710D01*
X2931405Y5903788D01*
X2836367Y6094654D01*
X2759641Y6196254D01*
X2707872Y6264807D01*
X2550302Y6408452D01*
X2480147Y6451890D01*
X2369024Y6520695D01*
X2369022Y6520697D01*
X2170198Y6597721D01*
X2170194Y6597722D01*
X1960610Y6636900D01*
X1747390Y6636900D01*
X1747389Y6636900D01*
X1537805Y6597722D01*
X1537801Y6597721D01*
X1338977Y6520697D01*
X1338975Y6520695D01*
X1157700Y6408454D01*
X1157696Y6408451D01*
X1000129Y6264809D01*
X871632Y6094654D01*
X776594Y5903788D01*
X718243Y5698710D01*
X698571Y5486401D01*
X698571Y5486400D01*
X718243Y5274091D01*
X776594Y5069013D01*
X871632Y4878147D01*
X923403Y4809592D01*
X1000128Y4707993D01*
X1157698Y4564348D01*
X1292204Y4481065D01*
X1338975Y4452106D01*
X1338977Y4452104D01*
X1338979Y4452104D01*
X1338981Y4452102D01*
X1403289Y4427190D01*
X1455510Y4384634D01*
X1472746Y4319510D01*
X1448410Y4256694D01*
X1394786Y4221985D01*
X1394978Y4221457D01*
X1392679Y4220621D01*
X1392132Y4220266D01*
X1390513Y4219833D01*
X1390501Y4219828D01*
X1176427Y4120003D01*
X982923Y3984511D01*
X815889Y3817477D01*
X680397Y3623973D01*
X580572Y3409899D01*
X580568Y3409890D01*
X523364Y3196401D01*
X523365Y3196400D01*
X1260691Y3196400D01*
X1324760Y3175583D01*
X1364356Y3121083D01*
X1365276Y3056692D01*
X1354000Y3018289D01*
X1354000Y2874512D01*
X1365276Y2836108D01*
X1363352Y2768770D01*
X1322215Y2715423D01*
X1260691Y2696400D01*
X523364Y2696400D01*
X500Y2696400D01*
X500Y8026400D01*
X698571Y8026400D01*
X718243Y7814091D01*
X776594Y7609013D01*
X871632Y7418147D01*
X923403Y7349592D01*
X1000128Y7247993D01*
X1157698Y7104348D01*
X1329673Y6997865D01*
X1338975Y6992106D01*
X1338977Y6992104D01*
X1338979Y6992104D01*
X1338981Y6992102D01*
X1537802Y6915079D01*
X1747390Y6875900D01*
X1747391Y6875900D01*
X1960609Y6875900D01*
X1960610Y6875900D01*
X2170198Y6915079D01*
X2369019Y6992102D01*
X2550302Y7104348D01*
X2707872Y7247993D01*
X2836366Y7418145D01*
X2931405Y7609011D01*
X2989756Y7814090D01*
X3009429Y8026400D01*
X3000014Y8128001D01*
X2989756Y8238710D01*
X2931405Y8443788D01*
X2915053Y8476627D01*
X2869931Y8567247D01*
X2836367Y8634654D01*
X2759641Y8736254D01*
X2707872Y8804807D01*
X2550302Y8948452D01*
X2501196Y8978857D01*
X2369024Y9060695D01*
X2369022Y9060697D01*
X2170198Y9137721D01*
X2170194Y9137722D01*
X1960610Y9176900D01*
X1747390Y9176900D01*
X1747389Y9176900D01*
X1537805Y9137722D01*
X1537801Y9137721D01*
X1338977Y9060697D01*
X1338975Y9060695D01*
X1157700Y8948454D01*
X1157696Y8948451D01*
X1000129Y8804809D01*
X871632Y8634654D01*
X776594Y8443788D01*
X718243Y8238710D01*
X698571Y8026401D01*
X698571Y8026400D01*
X500Y8026400D01*
X500Y10566400D01*
X698571Y10566400D01*
X718243Y10354091D01*
X776594Y10149013D01*
X871632Y9958147D01*
X923403Y9889592D01*
X1000128Y9787993D01*
X1157698Y9644348D01*
X1299286Y9556680D01*
X1338975Y9532106D01*
X1338977Y9532104D01*
X1338979Y9532104D01*
X1338981Y9532102D01*
X1537802Y9455079D01*
X1747390Y9415900D01*
X1747391Y9415900D01*
X1960609Y9415900D01*
X1960610Y9415900D01*
X2170198Y9455079D01*
X2369019Y9532102D01*
X2550302Y9644348D01*
X2707872Y9787993D01*
X2836366Y9958145D01*
X2931405Y10149011D01*
X2989756Y10354090D01*
X3009429Y10566400D01*
X3000014Y10668001D01*
X2989756Y10778710D01*
X2931405Y10983788D01*
X2836367Y11174654D01*
X2759641Y11276254D01*
X2707872Y11344807D01*
X2550302Y11488452D01*
X2386214Y11590051D01*
X2369024Y11600695D01*
X2369022Y11600697D01*
X2170198Y11677721D01*
X2170194Y11677722D01*
X1960610Y11716900D01*
X1747390Y11716900D01*
X1747389Y11716900D01*
X1537805Y11677722D01*
X1537801Y11677721D01*
X1338977Y11600697D01*
X1338975Y11600695D01*
X1157700Y11488454D01*
X1157696Y11488451D01*
X1000129Y11344809D01*
X871632Y11174654D01*
X776594Y10983788D01*
X718243Y10778710D01*
X698571Y10566401D01*
X698571Y10566400D01*
X500Y10566400D01*
X500Y13106400D01*
X698571Y13106400D01*
X718243Y12894091D01*
X776594Y12689013D01*
X871632Y12498147D01*
X954908Y12387873D01*
X1000128Y12327993D01*
X1157698Y12184348D01*
X1311730Y12088975D01*
X1338975Y12072106D01*
X1338977Y12072104D01*
X1338979Y12072104D01*
X1338981Y12072102D01*
X1537802Y11995079D01*
X1747390Y11955900D01*
X1747391Y11955900D01*
X1960609Y11955900D01*
X1960610Y11955900D01*
X2170198Y11995079D01*
X2369019Y12072102D01*
X2550302Y12184348D01*
X2707872Y12327993D01*
X2836366Y12498145D01*
X2931405Y12689011D01*
X2989756Y12894090D01*
X3009429Y13106400D01*
X3000014Y13208001D01*
X2989756Y13318710D01*
X2984475Y13337269D01*
X2931405Y13523789D01*
X2858281Y13670644D01*
X2836367Y13714654D01*
X2759641Y13816254D01*
X2707872Y13884807D01*
X2678161Y13911892D01*
X2550303Y14028451D01*
X2550299Y14028454D01*
X2369024Y14140695D01*
X2369022Y14140697D01*
X2170198Y14217721D01*
X2170194Y14217722D01*
X1960610Y14256900D01*
X1747390Y14256900D01*
X1747389Y14256900D01*
X1537805Y14217722D01*
X1537801Y14217721D01*
X1338977Y14140697D01*
X1338975Y14140695D01*
X1157700Y14028454D01*
X1157696Y14028451D01*
X1000129Y13884809D01*
X871632Y13714654D01*
X776594Y13523788D01*
X718243Y13318710D01*
X698571Y13106401D01*
X698571Y13106400D01*
X500Y13106400D01*
X500Y15646400D01*
X698571Y15646400D01*
X718243Y15434091D01*
X776594Y15229013D01*
X871632Y15038147D01*
X933400Y14956354D01*
X1000128Y14867993D01*
X1157698Y14724348D01*
X1326472Y14619847D01*
X1338975Y14612106D01*
X1338977Y14612104D01*
X1338979Y14612104D01*
X1338981Y14612102D01*
X1537802Y14535079D01*
X1747390Y14495900D01*
X1747391Y14495900D01*
X1960609Y14495900D01*
X1960610Y14495900D01*
X2170198Y14535079D01*
X2369019Y14612102D01*
X2550302Y14724348D01*
X2707872Y14867993D01*
X2836366Y15038145D01*
X2931405Y15229011D01*
X2989756Y15434090D01*
X3009429Y15646400D01*
X3000014Y15748001D01*
X2989756Y15858710D01*
X2931405Y16063788D01*
X2914689Y16097358D01*
X2858281Y16210644D01*
X2836367Y16254654D01*
X2759641Y16356254D01*
X2707872Y16424807D01*
X2550302Y16568452D01*
X2478758Y16612750D01*
X2369024Y16680695D01*
X2369022Y16680697D01*
X2170198Y16757721D01*
X2170194Y16757722D01*
X1960610Y16796900D01*
X1747390Y16796900D01*
X1747389Y16796900D01*
X1537805Y16757722D01*
X1537801Y16757721D01*
X1338977Y16680697D01*
X1338975Y16680695D01*
X1157700Y16568454D01*
X1157696Y16568451D01*
X1000129Y16424809D01*
X871632Y16254654D01*
X776594Y16063788D01*
X718243Y15858710D01*
X698571Y15646401D01*
X698571Y15646400D01*
X500Y15646400D01*
X500Y18186400D01*
X698571Y18186400D01*
X718243Y17974091D01*
X776594Y17769013D01*
X871632Y17578147D01*
X923403Y17509592D01*
X1000128Y17407993D01*
X1157698Y17264348D01*
X1299286Y17176680D01*
X1338975Y17152106D01*
X1338977Y17152104D01*
X1338979Y17152104D01*
X1338981Y17152102D01*
X1537802Y17075079D01*
X1747390Y17035900D01*
X1747391Y17035900D01*
X1960609Y17035900D01*
X1960610Y17035900D01*
X2170198Y17075079D01*
X2369019Y17152102D01*
X2550302Y17264348D01*
X2707872Y17407993D01*
X2836366Y17578145D01*
X2931405Y17769011D01*
X2989756Y17974090D01*
X3009429Y18186400D01*
X3000014Y18288001D01*
X2989756Y18398710D01*
X2931405Y18603788D01*
X2918814Y18629074D01*
X2880436Y18706149D01*
X2836367Y18794654D01*
X2759641Y18896254D01*
X2707872Y18964807D01*
X2550302Y19108452D01*
X2457869Y19165684D01*
X2369024Y19220695D01*
X2369022Y19220697D01*
X2170198Y19297721D01*
X2170194Y19297722D01*
X1960610Y19336900D01*
X1747390Y19336900D01*
X1747389Y19336900D01*
X1537805Y19297722D01*
X1537801Y19297721D01*
X1338977Y19220697D01*
X1338975Y19220695D01*
X1157700Y19108454D01*
X1157696Y19108451D01*
X1000129Y18964809D01*
X871632Y18794654D01*
X776594Y18603788D01*
X718243Y18398710D01*
X698571Y18186401D01*
X698571Y18186400D01*
X500Y18186400D01*
X500Y20726400D01*
X698571Y20726400D01*
X718243Y20514091D01*
X776594Y20309013D01*
X871632Y20118147D01*
X923403Y20049592D01*
X1000128Y19947993D01*
X1157698Y19804348D01*
X1299286Y19716680D01*
X1338975Y19692106D01*
X1338977Y19692104D01*
X1338979Y19692104D01*
X1338981Y19692102D01*
X1537802Y19615079D01*
X1747390Y19575900D01*
X1747391Y19575900D01*
X1960609Y19575900D01*
X1960610Y19575900D01*
X2170198Y19615079D01*
X2369019Y19692102D01*
X2550302Y19804348D01*
X2707872Y19947993D01*
X2836366Y20118145D01*
X2931405Y20309011D01*
X2989756Y20514090D01*
X3009429Y20726400D01*
X3001110Y20816173D01*
X2989756Y20938710D01*
X2946546Y21090574D01*
X2931405Y21143789D01*
X2880815Y21245389D01*
X2836367Y21334654D01*
X2759641Y21436254D01*
X2707872Y21504807D01*
X2550302Y21648452D01*
X2386214Y21750051D01*
X2369024Y21760695D01*
X2369022Y21760697D01*
X2170198Y21837721D01*
X2170194Y21837722D01*
X1960610Y21876900D01*
X1747390Y21876900D01*
X1747389Y21876900D01*
X1537805Y21837722D01*
X1537801Y21837721D01*
X1338977Y21760697D01*
X1338975Y21760695D01*
X1157700Y21648454D01*
X1157696Y21648451D01*
X1000129Y21504809D01*
X871632Y21334654D01*
X776594Y21143788D01*
X718243Y20938710D01*
X698571Y20726401D01*
X698571Y20726400D01*
X500Y20726400D01*
X500Y23266400D01*
X698571Y23266400D01*
X718243Y23054091D01*
X776594Y22849013D01*
X871632Y22658147D01*
X1000129Y22487992D01*
X1040516Y22451174D01*
X1157698Y22344348D01*
X1299286Y22256680D01*
X1338975Y22232106D01*
X1338977Y22232104D01*
X1338979Y22232104D01*
X1338981Y22232102D01*
X1537802Y22155079D01*
X1747390Y22115900D01*
X1747391Y22115900D01*
X1960609Y22115900D01*
X1960610Y22115900D01*
X2170198Y22155079D01*
X2369019Y22232102D01*
X2550302Y22344348D01*
X2707872Y22487993D01*
X2836366Y22658145D01*
X2864192Y22714028D01*
X5616648Y22714028D01*
X5619915Y22695081D01*
X5621500Y22676560D01*
X5621500Y8137398D01*
X5619237Y8071175D01*
X5629806Y8027803D01*
X5630848Y8022320D01*
X5636929Y7978080D01*
X5644590Y7960444D01*
X5650515Y7942826D01*
X5655067Y7924146D01*
X5676951Y7885224D01*
X5679434Y7880225D01*
X5697220Y7839280D01*
X5709352Y7824368D01*
X5719807Y7809005D01*
X5729232Y7792243D01*
X5760805Y7760670D01*
X5764545Y7756525D01*
X5792721Y7721893D01*
X5792724Y7721890D01*
X5808425Y7710807D01*
X5822642Y7698833D01*
X10856092Y2665382D01*
X10882783Y2636804D01*
X10901320Y2616956D01*
X10920596Y2605234D01*
X10939467Y2593758D01*
X10944076Y2590621D01*
X10979658Y2563639D01*
X10997546Y2556585D01*
X11014181Y2548324D01*
X11030618Y2538328D01*
X11073622Y2526279D01*
X11078885Y2524510D01*
X11108249Y2512930D01*
X11120436Y2508124D01*
X11139562Y2506157D01*
X11157822Y2502687D01*
X11176334Y2497500D01*
X11176335Y2497500D01*
X11220976Y2497500D01*
X11226553Y2497214D01*
X11239193Y2495915D01*
X11270972Y2492648D01*
X11289920Y2495916D01*
X11308441Y2497500D01*
X22672603Y2497500D01*
X22738820Y2495238D01*
X22738821Y2495239D01*
X22738826Y2495238D01*
X22782216Y2505813D01*
X22787669Y2506849D01*
X22831920Y2512930D01*
X22849547Y2520588D01*
X22867176Y2526516D01*
X22880111Y2529669D01*
X22885852Y2531067D01*
X22924772Y2552952D01*
X22929763Y2555431D01*
X22970720Y2573220D01*
X22985630Y2585352D01*
X23001002Y2595813D01*
X23017759Y2605234D01*
X23049337Y2636814D01*
X23053475Y2640547D01*
X23084002Y2665382D01*
X23088108Y2668722D01*
X23099198Y2684435D01*
X23111161Y2698638D01*
X33038099Y12625575D01*
X33098124Y12656158D01*
X33115175Y12657500D01*
X33729398Y12657500D01*
X33793467Y12636683D01*
X33816382Y12614187D01*
X33930234Y12463423D01*
X33930236Y12463421D01*
X34080959Y12326019D01*
X34254363Y12218652D01*
X34444544Y12144976D01*
X34645024Y12107500D01*
X34645025Y12107500D01*
X34848975Y12107500D01*
X34848976Y12107500D01*
X35049456Y12144976D01*
X35239637Y12218652D01*
X35413041Y12326019D01*
X35563764Y12463421D01*
X35686673Y12626179D01*
X35777582Y12808750D01*
X35833397Y13004917D01*
X35852215Y13208000D01*
X35833397Y13411083D01*
X35803367Y13516627D01*
X35777583Y13607247D01*
X35777582Y13607248D01*
X35777582Y13607250D01*
X35686673Y13789821D01*
X35686672Y13789823D01*
X35563765Y13952578D01*
X35480483Y14028500D01*
X35413041Y14089981D01*
X35374010Y14114148D01*
X35239639Y14197347D01*
X35239637Y14197348D01*
X35049456Y14271024D01*
X35049452Y14271025D01*
X34848976Y14308500D01*
X34645024Y14308500D01*
X34645023Y14308500D01*
X34444547Y14271025D01*
X34444543Y14271024D01*
X34254362Y14197348D01*
X34254360Y14197347D01*
X34080961Y14089983D01*
X34080957Y14089980D01*
X33930234Y13952578D01*
X33816382Y13801813D01*
X33761159Y13763230D01*
X33729398Y13758500D01*
X32851397Y13758500D01*
X32785176Y13760763D01*
X32741802Y13750194D01*
X32736319Y13749152D01*
X32692082Y13743071D01*
X32692075Y13743069D01*
X32674443Y13735410D01*
X32656830Y13729487D01*
X32638148Y13724934D01*
X32599230Y13703052D01*
X32594232Y13700569D01*
X32553279Y13682780D01*
X32553277Y13682779D01*
X32538361Y13670644D01*
X32523003Y13660192D01*
X32506243Y13650768D01*
X32474672Y13619198D01*
X32470528Y13615458D01*
X32435891Y13587278D01*
X32435887Y13587273D01*
X32424802Y13571570D01*
X32412831Y13557358D01*
X22485900Y3630425D01*
X22425876Y3599842D01*
X22408825Y3598500D01*
X11525175Y3598500D01*
X11461106Y3619317D01*
X11448100Y3630425D01*
X6754425Y8324100D01*
X6723842Y8384124D01*
X6722500Y8401175D01*
X6722500Y15747999D01*
X13421659Y15747999D01*
X13440976Y15551865D01*
X13498185Y15363274D01*
X13498186Y15363272D01*
X13591090Y15189462D01*
X13591090Y15189461D01*
X13673187Y15089427D01*
X13716117Y15037117D01*
X13836649Y14938198D01*
X13872968Y14881463D01*
X13876500Y14853941D01*
X13876500Y6867398D01*
X13874237Y6801175D01*
X13884806Y6757803D01*
X13885848Y6752320D01*
X13891929Y6708080D01*
X13899590Y6690444D01*
X13905515Y6672826D01*
X13910067Y6654146D01*
X13931951Y6615224D01*
X13934434Y6610225D01*
X13952220Y6569280D01*
X13964352Y6554368D01*
X13974807Y6539005D01*
X13984232Y6522243D01*
X14015805Y6490670D01*
X14019545Y6486525D01*
X14047721Y6451893D01*
X14047724Y6451890D01*
X14063425Y6440807D01*
X14077642Y6428833D01*
X15301079Y5205397D01*
X15346320Y5156956D01*
X15384466Y5133759D01*
X15389083Y5130617D01*
X15424654Y5103641D01*
X15424656Y5103641D01*
X15424658Y5103639D01*
X15442546Y5096585D01*
X15459181Y5088324D01*
X15475618Y5078328D01*
X15518622Y5066279D01*
X15523885Y5064510D01*
X15553249Y5052930D01*
X15565436Y5048124D01*
X15584562Y5046157D01*
X15602822Y5042687D01*
X15621334Y5037500D01*
X15621335Y5037500D01*
X15665976Y5037500D01*
X15671553Y5037214D01*
X15684193Y5035915D01*
X15715972Y5032648D01*
X15734920Y5035916D01*
X15753441Y5037500D01*
X22037603Y5037500D01*
X22103820Y5035238D01*
X22103821Y5035239D01*
X22103826Y5035238D01*
X22147216Y5045813D01*
X22152669Y5046849D01*
X22196920Y5052930D01*
X22214547Y5060588D01*
X22232176Y5066516D01*
X22245111Y5069669D01*
X22250852Y5071067D01*
X22289772Y5092952D01*
X22294763Y5095431D01*
X22335720Y5113220D01*
X22350630Y5125352D01*
X22366002Y5135813D01*
X22382759Y5145234D01*
X22414337Y5176814D01*
X22418475Y5180547D01*
X22453108Y5208722D01*
X22464198Y5224435D01*
X22476161Y5238638D01*
X32403099Y15165575D01*
X32463124Y15196158D01*
X32480175Y15197500D01*
X33729398Y15197500D01*
X33793467Y15176683D01*
X33816382Y15154187D01*
X33930234Y15003423D01*
X33930236Y15003421D01*
X34080959Y14866019D01*
X34254363Y14758652D01*
X34444544Y14684976D01*
X34645024Y14647500D01*
X34645025Y14647500D01*
X34848975Y14647500D01*
X34848976Y14647500D01*
X35049456Y14684976D01*
X35239637Y14758652D01*
X35413041Y14866019D01*
X35563764Y15003421D01*
X35686673Y15166179D01*
X35777582Y15348750D01*
X35833397Y15544917D01*
X35852215Y15748000D01*
X35833397Y15951083D01*
X35777582Y16147250D01*
X35686673Y16329821D01*
X35686672Y16329823D01*
X35563765Y16492578D01*
X35463579Y16583910D01*
X35413041Y16629981D01*
X35383132Y16648500D01*
X35239639Y16737347D01*
X35239637Y16737348D01*
X35049456Y16811024D01*
X35049452Y16811025D01*
X34848976Y16848500D01*
X34645024Y16848500D01*
X34645023Y16848500D01*
X34444547Y16811025D01*
X34444543Y16811024D01*
X34254362Y16737348D01*
X34254360Y16737347D01*
X34080961Y16629983D01*
X34080957Y16629980D01*
X33930234Y16492578D01*
X33816382Y16341813D01*
X33761159Y16303230D01*
X33729398Y16298500D01*
X32216397Y16298500D01*
X32150176Y16300763D01*
X32106802Y16290194D01*
X32101319Y16289152D01*
X32057082Y16283071D01*
X32057075Y16283069D01*
X32039443Y16275410D01*
X32021830Y16269487D01*
X32003148Y16264934D01*
X31964230Y16243052D01*
X31959232Y16240569D01*
X31918279Y16222780D01*
X31918277Y16222779D01*
X31903361Y16210644D01*
X31888003Y16200192D01*
X31871243Y16190768D01*
X31839672Y16159198D01*
X31835528Y16155458D01*
X31800891Y16127278D01*
X31800887Y16127273D01*
X31789802Y16111570D01*
X31777831Y16097358D01*
X21850900Y6170425D01*
X21790876Y6139842D01*
X21773825Y6138500D01*
X15970174Y6138500D01*
X15906105Y6159317D01*
X15893099Y6170425D01*
X15453299Y6610225D01*
X15009422Y7054102D01*
X14978841Y7114124D01*
X14977499Y7131163D01*
X14977499Y8168000D01*
X16496785Y8168000D01*
X16515602Y7964918D01*
X16571416Y7768754D01*
X16571418Y7768750D01*
X16662327Y7586179D01*
X16662327Y7586178D01*
X16745894Y7475518D01*
X16785236Y7423421D01*
X16935959Y7286019D01*
X17109363Y7178652D01*
X17299544Y7104976D01*
X17500024Y7067500D01*
X17500025Y7067500D01*
X17703975Y7067500D01*
X17703976Y7067500D01*
X17904456Y7104976D01*
X18094637Y7178652D01*
X18268041Y7286019D01*
X18418764Y7423421D01*
X18541673Y7586179D01*
X18632582Y7768750D01*
X18671098Y7904121D01*
X18698859Y7951362D01*
X25167578Y14420081D01*
X25180571Y14431177D01*
X25192871Y14440112D01*
X25239498Y14491898D01*
X25241399Y14493902D01*
X25257119Y14509620D01*
X25271082Y14526864D01*
X25272924Y14529019D01*
X25313536Y14574124D01*
X25319533Y14580784D01*
X25327126Y14593938D01*
X25336822Y14608045D01*
X25340111Y14612106D01*
X25346383Y14619851D01*
X25378003Y14681913D01*
X25379331Y14684361D01*
X25414179Y14744716D01*
X25418876Y14759177D01*
X25425419Y14774972D01*
X25432320Y14788512D01*
X25450340Y14855771D01*
X25451147Y14858494D01*
X25459384Y14883845D01*
X25472674Y14924744D01*
X25474262Y14939860D01*
X25477381Y14956686D01*
X25481312Y14971354D01*
X25482896Y15001587D01*
X25484957Y15040921D01*
X25485176Y15043705D01*
X25487500Y15065808D01*
X25487500Y15087993D01*
X25487575Y15090846D01*
X25491219Y15160388D01*
X25488842Y15175396D01*
X25487500Y15192448D01*
X25487500Y18262993D01*
X25487575Y18265846D01*
X25488736Y18288000D01*
X33641785Y18288000D01*
X33660602Y18084918D01*
X33716416Y17888754D01*
X33716418Y17888750D01*
X33807327Y17706179D01*
X33807327Y17706178D01*
X33930234Y17543423D01*
X33930236Y17543421D01*
X34080959Y17406019D01*
X34254363Y17298652D01*
X34444544Y17224976D01*
X34645024Y17187500D01*
X34645025Y17187500D01*
X34848975Y17187500D01*
X34848976Y17187500D01*
X35049456Y17224976D01*
X35239637Y17298652D01*
X35413041Y17406019D01*
X35563764Y17543421D01*
X35639406Y17643587D01*
X35677618Y17694187D01*
X35732841Y17732770D01*
X35764602Y17737500D01*
X37648825Y17737500D01*
X37712894Y17716683D01*
X37725900Y17705575D01*
X37974575Y17456900D01*
X38005158Y17396876D01*
X38006500Y17379825D01*
X38006500Y14327398D01*
X38004237Y14261175D01*
X38014806Y14217803D01*
X38015848Y14212320D01*
X38021929Y14168080D01*
X38029590Y14150444D01*
X38035515Y14132826D01*
X38040067Y14114146D01*
X38061951Y14075224D01*
X38064434Y14070225D01*
X38071978Y14052859D01*
X38082220Y14029280D01*
X38094352Y14014368D01*
X38104807Y13999005D01*
X38114232Y13982243D01*
X38145805Y13950670D01*
X38149545Y13946525D01*
X38177721Y13911893D01*
X38177724Y13911890D01*
X38193425Y13900807D01*
X38207642Y13888833D01*
X49431092Y2665382D01*
X49457783Y2636804D01*
X49476320Y2616956D01*
X49495596Y2605234D01*
X49514467Y2593758D01*
X49519076Y2590621D01*
X49554658Y2563639D01*
X49572546Y2556585D01*
X49589181Y2548324D01*
X49605618Y2538328D01*
X49648622Y2526279D01*
X49653885Y2524510D01*
X49683249Y2512930D01*
X49695436Y2508124D01*
X49714562Y2506157D01*
X49732822Y2502687D01*
X49751334Y2497500D01*
X49751335Y2497500D01*
X49795976Y2497500D01*
X49801553Y2497214D01*
X49814193Y2495915D01*
X49845972Y2492648D01*
X49864920Y2495916D01*
X49883441Y2497500D01*
X60772603Y2497500D01*
X60838820Y2495238D01*
X60838821Y2495239D01*
X60838826Y2495238D01*
X60882216Y2505813D01*
X60887669Y2506849D01*
X60931920Y2512930D01*
X60949547Y2520588D01*
X60967176Y2526516D01*
X60980111Y2529669D01*
X60985852Y2531067D01*
X61024772Y2552952D01*
X61029763Y2555431D01*
X61070720Y2573220D01*
X61085630Y2585352D01*
X61101002Y2595813D01*
X61117759Y2605234D01*
X61149337Y2636814D01*
X61153475Y2640547D01*
X61184002Y2665382D01*
X61188108Y2668722D01*
X61199198Y2684435D01*
X61211161Y2698638D01*
X62434603Y3922080D01*
X62483044Y3967320D01*
X62506250Y4005485D01*
X62509369Y4010067D01*
X62536361Y4045658D01*
X62543417Y4063554D01*
X62551678Y4080185D01*
X62561672Y4096618D01*
X62573718Y4139613D01*
X62575497Y4144903D01*
X62591876Y4186436D01*
X62591877Y4186444D01*
X62593843Y4205563D01*
X62597313Y4223822D01*
X62602500Y4242336D01*
X62602500Y4286987D01*
X62602785Y4292553D01*
X62607352Y4336972D01*
X62604085Y4355923D01*
X62602500Y4374442D01*
X62602500Y4693941D01*
X62623317Y4758010D01*
X62642348Y4778197D01*
X62762883Y4877117D01*
X62887910Y5029462D01*
X62980814Y5203273D01*
X63038024Y5391868D01*
X63057341Y5588000D01*
X63038024Y5784132D01*
X63033116Y5800310D01*
X62980814Y5972727D01*
X62980813Y5972729D01*
X62963356Y6005389D01*
X62887910Y6146538D01*
X62887909Y6146540D01*
X62762886Y6298879D01*
X62762883Y6298883D01*
X62610538Y6423910D01*
X62558191Y6451890D01*
X62436728Y6516814D01*
X62436726Y6516815D01*
X62248135Y6574024D01*
X62248136Y6574024D01*
X62052001Y6593341D01*
X62051999Y6593341D01*
X61855864Y6574024D01*
X61667273Y6516815D01*
X61667271Y6516814D01*
X61493461Y6423910D01*
X61493460Y6423910D01*
X61341121Y6298887D01*
X61341113Y6298879D01*
X61216090Y6146540D01*
X61216090Y6146539D01*
X61123186Y5972729D01*
X61123185Y5972727D01*
X61065976Y5784136D01*
X61046659Y5588002D01*
X61046659Y5587999D01*
X61065976Y5391865D01*
X61123185Y5203274D01*
X61123186Y5203272D01*
X61216090Y5029462D01*
X61216090Y5029461D01*
X61307662Y4917882D01*
X61341117Y4877117D01*
X61461649Y4778198D01*
X61497968Y4721463D01*
X61501500Y4693941D01*
X61501500Y4591176D01*
X61480683Y4527107D01*
X61469575Y4514101D01*
X60585900Y3630425D01*
X60525876Y3599842D01*
X60508825Y3598500D01*
X50100175Y3598500D01*
X50036106Y3619317D01*
X50023100Y3630425D01*
X41732099Y11921426D01*
X41701516Y11981450D01*
X41712054Y12047986D01*
X41759689Y12095621D01*
X41809174Y12107501D01*
X43211858Y12107501D01*
X43211864Y12107501D01*
X43236991Y12110415D01*
X43339765Y12155794D01*
X43419206Y12235235D01*
X43464585Y12338009D01*
X43467500Y12363135D01*
X43467500Y12548500D01*
X43488317Y12612569D01*
X43542817Y12652165D01*
X43576500Y12657500D01*
X43948259Y12657500D01*
X44012328Y12636683D01*
X44032514Y12617652D01*
X44160590Y12461590D01*
X44320550Y12330315D01*
X44503046Y12232768D01*
X44701066Y12172700D01*
X44890054Y12154087D01*
X44906999Y12152417D01*
X44907000Y12152417D01*
X44907001Y12152417D01*
X44922657Y12153960D01*
X45112934Y12172700D01*
X45310954Y12232768D01*
X45493450Y12330315D01*
X45653410Y12461590D01*
X45784685Y12621550D01*
X45882232Y12804046D01*
X45942300Y13002066D01*
X45962583Y13208000D01*
X45942300Y13413934D01*
X45882232Y13611954D01*
X45784685Y13794450D01*
X45653410Y13954410D01*
X45493450Y14085685D01*
X45383952Y14144214D01*
X45310958Y14183230D01*
X45310957Y14183231D01*
X45310954Y14183232D01*
X45112934Y14243300D01*
X44931449Y14261175D01*
X44907001Y14263583D01*
X44906999Y14263583D01*
X44882551Y14261175D01*
X44701066Y14243300D01*
X44503046Y14183232D01*
X44503043Y14183231D01*
X44503041Y14183230D01*
X44320555Y14085688D01*
X44320552Y14085687D01*
X44320550Y14085685D01*
X44301712Y14070225D01*
X44160594Y13954414D01*
X44160586Y13954406D01*
X44093433Y13872579D01*
X44032515Y13798351D01*
X43975781Y13762032D01*
X43948259Y13758500D01*
X43576499Y13758500D01*
X43512430Y13779317D01*
X43472834Y13833817D01*
X43467499Y13867500D01*
X43467499Y14052859D01*
X43467498Y14052865D01*
X43464585Y14077991D01*
X43419206Y14180765D01*
X43339765Y14260206D01*
X43236991Y14305585D01*
X43211865Y14308500D01*
X43211864Y14308500D01*
X41522141Y14308500D01*
X41522120Y14308498D01*
X41497011Y14305586D01*
X41394234Y14260206D01*
X41314794Y14180766D01*
X41269415Y14077991D01*
X41266500Y14052866D01*
X41266500Y12650176D01*
X41245683Y12586107D01*
X41191183Y12546511D01*
X41123817Y12546511D01*
X41080425Y12573101D01*
X39139425Y14514100D01*
X39108842Y14574124D01*
X39107500Y14591175D01*
X39107500Y15748000D01*
X41261785Y15748000D01*
X41280602Y15544918D01*
X41336416Y15348754D01*
X41336418Y15348750D01*
X41427327Y15166179D01*
X41427327Y15166178D01*
X41550234Y15003423D01*
X41550236Y15003421D01*
X41700959Y14866019D01*
X41874363Y14758652D01*
X42064544Y14684976D01*
X42265024Y14647500D01*
X42265025Y14647500D01*
X42468975Y14647500D01*
X42468976Y14647500D01*
X42669456Y14684976D01*
X42859637Y14758652D01*
X43033041Y14866019D01*
X43183764Y15003421D01*
X43229458Y15063930D01*
X43297618Y15154187D01*
X43352841Y15192770D01*
X43384602Y15197500D01*
X43948259Y15197500D01*
X44012328Y15176683D01*
X44032514Y15157652D01*
X44160590Y15001590D01*
X44320550Y14870315D01*
X44503046Y14772768D01*
X44701066Y14712700D01*
X44890054Y14694087D01*
X44906999Y14692417D01*
X44907000Y14692417D01*
X44907001Y14692417D01*
X44922657Y14693960D01*
X45112934Y14712700D01*
X45310954Y14772768D01*
X45493450Y14870315D01*
X45653410Y15001590D01*
X45784685Y15161550D01*
X45882232Y15344046D01*
X45942300Y15542066D01*
X45962583Y15748000D01*
X45942300Y15953934D01*
X45882232Y16151954D01*
X45784685Y16334450D01*
X45653410Y16494410D01*
X45493450Y16625685D01*
X45310954Y16723232D01*
X45112934Y16783300D01*
X44974853Y16796900D01*
X44907001Y16803583D01*
X44906999Y16803583D01*
X44839147Y16796900D01*
X44701066Y16783300D01*
X44503046Y16723232D01*
X44503043Y16723231D01*
X44503041Y16723230D01*
X44320555Y16625688D01*
X44320552Y16625687D01*
X44320550Y16625685D01*
X44320547Y16625684D01*
X44320549Y16625684D01*
X44160594Y16494414D01*
X44160586Y16494406D01*
X44088157Y16406151D01*
X44032515Y16338351D01*
X43975781Y16302032D01*
X43948259Y16298500D01*
X43384602Y16298500D01*
X43320533Y16319317D01*
X43297618Y16341813D01*
X43183765Y16492578D01*
X43083579Y16583910D01*
X43033041Y16629981D01*
X43003132Y16648500D01*
X42859639Y16737347D01*
X42859637Y16737348D01*
X42669456Y16811024D01*
X42669452Y16811025D01*
X42468976Y16848500D01*
X42265024Y16848500D01*
X42265023Y16848500D01*
X42064547Y16811025D01*
X42064543Y16811024D01*
X41874362Y16737348D01*
X41874360Y16737347D01*
X41700961Y16629983D01*
X41700957Y16629980D01*
X41550234Y16492578D01*
X41427327Y16329823D01*
X41427327Y16329822D01*
X41336418Y16147251D01*
X41336416Y16147247D01*
X41280603Y15951083D01*
X41280602Y15951083D01*
X41261785Y15748001D01*
X41261785Y15748000D01*
X39107500Y15748000D01*
X39107500Y17643587D01*
X39109763Y17709820D01*
X39109762Y17709822D01*
X39109763Y17709826D01*
X39099188Y17753217D01*
X39098149Y17758683D01*
X39092070Y17802920D01*
X39084411Y17820553D01*
X39078487Y17838167D01*
X39073934Y17856852D01*
X39073933Y17856853D01*
X39073933Y17856855D01*
X39052045Y17895781D01*
X39049560Y17900785D01*
X39031781Y17941717D01*
X39031780Y17941720D01*
X39019649Y17956631D01*
X39009192Y17971994D01*
X38999766Y17988759D01*
X38999765Y17988761D01*
X38968190Y18020336D01*
X38964448Y18024482D01*
X38936278Y18059108D01*
X38920573Y18070194D01*
X38906356Y18082169D01*
X38700525Y18288000D01*
X41261785Y18288000D01*
X41280602Y18084918D01*
X41336416Y17888754D01*
X41336418Y17888750D01*
X41427327Y17706179D01*
X41427327Y17706178D01*
X41550234Y17543423D01*
X41550236Y17543421D01*
X41700959Y17406019D01*
X41874363Y17298652D01*
X42064544Y17224976D01*
X42265024Y17187500D01*
X42265025Y17187500D01*
X42468975Y17187500D01*
X42468976Y17187500D01*
X42669456Y17224976D01*
X42859637Y17298652D01*
X43033041Y17406019D01*
X43183764Y17543421D01*
X43259406Y17643587D01*
X43297618Y17694187D01*
X43352841Y17732770D01*
X43384602Y17737500D01*
X43948259Y17737500D01*
X44012328Y17716683D01*
X44032514Y17697652D01*
X44160590Y17541590D01*
X44320550Y17410315D01*
X44503046Y17312768D01*
X44701066Y17252700D01*
X44890054Y17234087D01*
X44906999Y17232417D01*
X44907000Y17232417D01*
X44907001Y17232417D01*
X44922657Y17233960D01*
X45112934Y17252700D01*
X45310954Y17312768D01*
X45493450Y17410315D01*
X45653410Y17541590D01*
X45784685Y17701550D01*
X45882232Y17884046D01*
X45942300Y18082066D01*
X45962583Y18288000D01*
X45942300Y18493934D01*
X45882232Y18691954D01*
X45784685Y18874450D01*
X45653410Y19034410D01*
X45493450Y19165685D01*
X45310954Y19263232D01*
X45112934Y19323300D01*
X44974853Y19336900D01*
X44907001Y19343583D01*
X44906999Y19343583D01*
X44839147Y19336900D01*
X44701066Y19323300D01*
X44503046Y19263232D01*
X44503043Y19263231D01*
X44503041Y19263230D01*
X44320555Y19165688D01*
X44320552Y19165687D01*
X44320550Y19165685D01*
X44320547Y19165684D01*
X44320549Y19165684D01*
X44160594Y19034414D01*
X44160586Y19034406D01*
X44088157Y18946151D01*
X44032515Y18878351D01*
X43975781Y18842032D01*
X43948259Y18838500D01*
X43384602Y18838500D01*
X43320533Y18859317D01*
X43297618Y18881813D01*
X43183765Y19032578D01*
X43037755Y19165684D01*
X43033041Y19169981D01*
X42951130Y19220698D01*
X42859639Y19277347D01*
X42859637Y19277348D01*
X42669456Y19351024D01*
X42669452Y19351025D01*
X42468976Y19388500D01*
X42265024Y19388500D01*
X42265023Y19388500D01*
X42064547Y19351025D01*
X42064543Y19351024D01*
X41874362Y19277348D01*
X41874360Y19277347D01*
X41700961Y19169983D01*
X41700957Y19169980D01*
X41550234Y19032578D01*
X41427327Y18869823D01*
X41427327Y18869822D01*
X41336418Y18687251D01*
X41336416Y18687247D01*
X41280603Y18491083D01*
X41280602Y18491083D01*
X41261785Y18288001D01*
X41261785Y18288000D01*
X38700525Y18288000D01*
X38317907Y18670619D01*
X38272682Y18719042D01*
X38272681Y18719043D01*
X38272680Y18719044D01*
X38272676Y18719047D01*
X38272674Y18719048D01*
X38234536Y18742240D01*
X38229921Y18745382D01*
X38194346Y18772358D01*
X38194340Y18772362D01*
X38176449Y18779418D01*
X38159811Y18787682D01*
X38143380Y18797673D01*
X38100387Y18809720D01*
X38095096Y18811499D01*
X38053565Y18827876D01*
X38053560Y18827877D01*
X38034435Y18829844D01*
X38016184Y18833313D01*
X37997669Y18838500D01*
X37997665Y18838500D01*
X37953024Y18838500D01*
X37947447Y18838786D01*
X37915795Y18842040D01*
X37903028Y18843352D01*
X37903027Y18843352D01*
X37903026Y18843352D01*
X37884080Y18840085D01*
X37865559Y18838500D01*
X35764602Y18838500D01*
X35700533Y18859317D01*
X35677618Y18881813D01*
X35563765Y19032578D01*
X35417755Y19165684D01*
X35413041Y19169981D01*
X35331130Y19220698D01*
X35239639Y19277347D01*
X35239637Y19277348D01*
X35049456Y19351024D01*
X35049452Y19351025D01*
X34848976Y19388500D01*
X34645024Y19388500D01*
X34645023Y19388500D01*
X34444547Y19351025D01*
X34444543Y19351024D01*
X34254362Y19277348D01*
X34254360Y19277347D01*
X34080961Y19169983D01*
X34080957Y19169980D01*
X33930234Y19032578D01*
X33807327Y18869823D01*
X33807327Y18869822D01*
X33716418Y18687251D01*
X33716416Y18687247D01*
X33660603Y18491083D01*
X33660602Y18491083D01*
X33641785Y18288001D01*
X33641785Y18288000D01*
X25488736Y18288000D01*
X25491219Y18335388D01*
X25488842Y18350396D01*
X25487500Y18367448D01*
X25487500Y22949851D01*
X25508317Y23013920D01*
X25519425Y23026926D01*
X31278074Y28785575D01*
X31338098Y28816158D01*
X31355149Y28817500D01*
X42035799Y28817500D01*
X42099868Y28796683D01*
X42139464Y28742183D01*
X42141076Y28736743D01*
X42156680Y28678512D01*
X42156681Y28678510D01*
X42163579Y28664973D01*
X42170125Y28649169D01*
X42174819Y28634721D01*
X42174823Y28634713D01*
X42209638Y28574410D01*
X42211000Y28571903D01*
X42242617Y28509851D01*
X42252181Y28498040D01*
X42261866Y28483949D01*
X42269467Y28470784D01*
X42316082Y28419012D01*
X42317923Y28416856D01*
X42331880Y28399621D01*
X42347571Y28383929D01*
X42349534Y28381860D01*
X42362014Y28368000D01*
X42396129Y28330112D01*
X42408422Y28321181D01*
X42421428Y28310073D01*
X50602075Y20129426D01*
X50632658Y20069402D01*
X50634000Y20052351D01*
X50634000Y16819948D01*
X50632658Y16802896D01*
X50630281Y16787890D01*
X50630281Y16787888D01*
X50633925Y16718340D01*
X50634000Y16715487D01*
X50634000Y9199948D01*
X50632658Y9182896D01*
X50630281Y9167890D01*
X50630281Y9167888D01*
X50633925Y9098340D01*
X50634000Y9095487D01*
X50634000Y9073308D01*
X50635149Y9062367D01*
X50636316Y9051259D01*
X50636540Y9048418D01*
X50640186Y8978857D01*
X50644121Y8964173D01*
X50647237Y8947359D01*
X50648826Y8932242D01*
X50670344Y8866016D01*
X50671154Y8863281D01*
X50686823Y8804809D01*
X50689180Y8796012D01*
X50696079Y8782473D01*
X50702625Y8766669D01*
X50707319Y8752221D01*
X50707323Y8752213D01*
X50742138Y8691910D01*
X50743500Y8689403D01*
X50775117Y8627351D01*
X50784681Y8615540D01*
X50794366Y8601449D01*
X50801967Y8588284D01*
X50848582Y8536512D01*
X50850423Y8534356D01*
X50864380Y8517121D01*
X50880071Y8501429D01*
X50882034Y8499360D01*
X50928627Y8447614D01*
X50928629Y8447612D01*
X50940922Y8438681D01*
X50953928Y8427573D01*
X54374074Y5007427D01*
X54385177Y4994426D01*
X54394112Y4982129D01*
X54445859Y4935536D01*
X54447927Y4933573D01*
X54463619Y4917882D01*
X54480853Y4903925D01*
X54483007Y4902087D01*
X54534784Y4855467D01*
X54547944Y4847870D01*
X54562039Y4838182D01*
X54573849Y4828618D01*
X54573851Y4828617D01*
X54635910Y4796997D01*
X54638390Y4795651D01*
X54698716Y4760821D01*
X54704944Y4758798D01*
X54713166Y4756126D01*
X54728970Y4749581D01*
X54742512Y4742680D01*
X54809792Y4724654D01*
X54812468Y4723862D01*
X54878744Y4702326D01*
X54893867Y4700737D01*
X54910671Y4697623D01*
X54925354Y4693688D01*
X54994916Y4690043D01*
X54997709Y4689823D01*
X55019808Y4687500D01*
X55041991Y4687500D01*
X55044844Y4687425D01*
X55114387Y4683781D01*
X55114387Y4683782D01*
X55114388Y4683781D01*
X55129395Y4686158D01*
X55146448Y4687500D01*
X56506997Y4687500D01*
X56558379Y4674630D01*
X56587273Y4659186D01*
X56697983Y4625603D01*
X56775864Y4601977D01*
X56775865Y4601977D01*
X56775868Y4601976D01*
X56940124Y4585799D01*
X56971999Y4582659D01*
X56972000Y4582659D01*
X56972001Y4582659D01*
X56996056Y4585029D01*
X57168132Y4601976D01*
X57356727Y4659186D01*
X57530538Y4752090D01*
X57682883Y4877117D01*
X57807910Y5029462D01*
X57900814Y5203273D01*
X57958024Y5391868D01*
X57977341Y5588000D01*
X57958024Y5784132D01*
X57953116Y5800310D01*
X57900814Y5972727D01*
X57900813Y5972729D01*
X57883356Y6005389D01*
X57807910Y6146538D01*
X57807909Y6146540D01*
X57682886Y6298879D01*
X57682883Y6298883D01*
X57530538Y6423910D01*
X57478191Y6451890D01*
X57356728Y6516814D01*
X57356726Y6516815D01*
X57168135Y6574024D01*
X57168136Y6574024D01*
X56972001Y6593341D01*
X56971999Y6593341D01*
X56775864Y6574024D01*
X56587274Y6516815D01*
X56558379Y6501370D01*
X56506997Y6488500D01*
X55485149Y6488500D01*
X55421080Y6509317D01*
X55408074Y6520425D01*
X53800502Y8127998D01*
X57572034Y8127998D01*
X57591859Y7901395D01*
X57650733Y7681675D01*
X57650736Y7681668D01*
X57746866Y7475518D01*
X57797972Y7402529D01*
X58354178Y7958733D01*
X58414202Y7989316D01*
X58480738Y7978778D01*
X58528372Y7931144D01*
X58549359Y7889955D01*
X58638955Y7800359D01*
X58680141Y7779374D01*
X58727776Y7731739D01*
X58738314Y7665203D01*
X58707731Y7605180D01*
X58707731Y7605179D01*
X58151528Y7048975D01*
X58224520Y6997865D01*
X58430667Y6901737D01*
X58430674Y6901734D01*
X58650394Y6842860D01*
X58876998Y6823034D01*
X58877002Y6823034D01*
X59103605Y6842860D01*
X59323325Y6901734D01*
X59323327Y6901735D01*
X59529486Y6997869D01*
X59602471Y7048974D01*
X59046268Y7605179D01*
X59015685Y7665203D01*
X59026223Y7731739D01*
X59073856Y7779373D01*
X59115045Y7800359D01*
X59204641Y7889955D01*
X59225626Y7931142D01*
X59273260Y7978776D01*
X59339796Y7989315D01*
X59399820Y7958732D01*
X59399821Y7958732D01*
X59956026Y7402529D01*
X60007131Y7475514D01*
X60103265Y7681673D01*
X60103266Y7681675D01*
X60162140Y7901395D01*
X60181966Y8127998D01*
X60181966Y8128000D01*
X73190171Y8128000D01*
X73209843Y7915691D01*
X73268194Y7710613D01*
X73363232Y7519747D01*
X73363234Y7519745D01*
X73491728Y7349593D01*
X73649298Y7205948D01*
X73813387Y7104348D01*
X73830575Y7093706D01*
X73830577Y7093704D01*
X73830579Y7093704D01*
X73830581Y7093702D01*
X74029402Y7016679D01*
X74238990Y6977500D01*
X74238991Y6977500D01*
X74452209Y6977500D01*
X74452210Y6977500D01*
X74661798Y7016679D01*
X74860619Y7093702D01*
X75041902Y7205948D01*
X75199472Y7349593D01*
X75327966Y7519745D01*
X75423005Y7710611D01*
X75481356Y7915690D01*
X75501029Y8128000D01*
X75481356Y8340310D01*
X75423005Y8545389D01*
X75370506Y8650822D01*
X75327967Y8736254D01*
X75239446Y8853473D01*
X75199472Y8906407D01*
X75041902Y9050052D01*
X75004342Y9073308D01*
X74860624Y9162295D01*
X74860622Y9162297D01*
X74661798Y9239321D01*
X74661794Y9239322D01*
X74452210Y9278500D01*
X74238990Y9278500D01*
X74238989Y9278500D01*
X74029405Y9239322D01*
X74029401Y9239321D01*
X73830577Y9162297D01*
X73830575Y9162295D01*
X73649300Y9050054D01*
X73649296Y9050051D01*
X73491729Y8906409D01*
X73363232Y8736254D01*
X73268194Y8545388D01*
X73209843Y8340310D01*
X73190171Y8128001D01*
X73190171Y8128000D01*
X60181966Y8128000D01*
X60181966Y8128003D01*
X60162140Y8354606D01*
X60103266Y8574326D01*
X60103263Y8574333D01*
X60007135Y8780480D01*
X59956025Y8853472D01*
X59399821Y8297269D01*
X59339797Y8266686D01*
X59273261Y8277224D01*
X59225626Y8324859D01*
X59204641Y8366045D01*
X59115045Y8455641D01*
X59073856Y8476628D01*
X59026222Y8524262D01*
X59015684Y8590798D01*
X59046267Y8650821D01*
X59046267Y8650822D01*
X59602471Y9207028D01*
X59529482Y9258134D01*
X59323332Y9354264D01*
X59323325Y9354267D01*
X59103605Y9413141D01*
X58877002Y9432966D01*
X58876998Y9432966D01*
X58650394Y9413141D01*
X58430674Y9354267D01*
X58430667Y9354264D01*
X58224515Y9258133D01*
X58224511Y9258131D01*
X58151527Y9207028D01*
X58707731Y8650822D01*
X58738314Y8590798D01*
X58727776Y8524262D01*
X58680142Y8476628D01*
X58638955Y8455642D01*
X58549358Y8366045D01*
X58528372Y8324858D01*
X58480737Y8277224D01*
X58414200Y8266686D01*
X58354178Y8297269D01*
X57797972Y8853473D01*
X57746869Y8780489D01*
X57746867Y8780485D01*
X57650736Y8574333D01*
X57650733Y8574326D01*
X57591859Y8354606D01*
X57572034Y8128003D01*
X57572034Y8127998D01*
X53800502Y8127998D01*
X52466925Y9461575D01*
X52436342Y9521599D01*
X52435000Y9538650D01*
X52435000Y10668000D01*
X73190171Y10668000D01*
X73209843Y10455691D01*
X73268194Y10250613D01*
X73363232Y10059747D01*
X73363234Y10059745D01*
X73491728Y9889593D01*
X73649298Y9745948D01*
X73813387Y9644348D01*
X73830575Y9633706D01*
X73830577Y9633704D01*
X73830579Y9633704D01*
X73830581Y9633702D01*
X74029402Y9556679D01*
X74238990Y9517500D01*
X74238991Y9517500D01*
X74452209Y9517500D01*
X74452210Y9517500D01*
X74661798Y9556679D01*
X74860619Y9633702D01*
X75041902Y9745948D01*
X75199472Y9889593D01*
X75327966Y10059745D01*
X75423005Y10250611D01*
X75481356Y10455690D01*
X75501029Y10668000D01*
X75481356Y10880310D01*
X75423005Y11085389D01*
X75375682Y11180428D01*
X75327967Y11276254D01*
X75199470Y11446409D01*
X75041903Y11590051D01*
X75041899Y11590054D01*
X74860624Y11702295D01*
X74860622Y11702297D01*
X74661798Y11779321D01*
X74661794Y11779322D01*
X74452210Y11818500D01*
X74238990Y11818500D01*
X74238989Y11818500D01*
X74029405Y11779322D01*
X74029401Y11779321D01*
X73830577Y11702297D01*
X73830575Y11702295D01*
X73649300Y11590054D01*
X73649296Y11590051D01*
X73491729Y11446409D01*
X73363232Y11276254D01*
X73268194Y11085388D01*
X73209843Y10880310D01*
X73190171Y10668001D01*
X73190171Y10668000D01*
X52435000Y10668000D01*
X52435000Y14303352D01*
X52455817Y14367421D01*
X52510317Y14407017D01*
X52577683Y14407017D01*
X52621072Y14380429D01*
X53581191Y13420310D01*
X54454074Y12547427D01*
X54465177Y12534426D01*
X54474112Y12522129D01*
X54525859Y12475536D01*
X54527927Y12473573D01*
X54543619Y12457882D01*
X54560853Y12443925D01*
X54563007Y12442087D01*
X54614784Y12395467D01*
X54627944Y12387870D01*
X54642039Y12378182D01*
X54653849Y12368618D01*
X54653851Y12368617D01*
X54715910Y12336997D01*
X54718390Y12335651D01*
X54778716Y12300821D01*
X54784944Y12298798D01*
X54793166Y12296126D01*
X54808970Y12289581D01*
X54822512Y12282680D01*
X54889792Y12264654D01*
X54892468Y12263862D01*
X54958744Y12242326D01*
X54973867Y12240737D01*
X54990671Y12237623D01*
X55005354Y12233688D01*
X55074916Y12230043D01*
X55077709Y12229823D01*
X55099808Y12227500D01*
X55121991Y12227500D01*
X55124844Y12227425D01*
X55194387Y12223781D01*
X55194387Y12223782D01*
X55194388Y12223781D01*
X55209395Y12226158D01*
X55226448Y12227500D01*
X58209855Y12227500D01*
X58267235Y12211175D01*
X58384363Y12138652D01*
X58574544Y12064976D01*
X58775024Y12027500D01*
X58775025Y12027500D01*
X58978975Y12027500D01*
X58978976Y12027500D01*
X59179456Y12064976D01*
X59369637Y12138652D01*
X59543041Y12246019D01*
X59693764Y12383421D01*
X59816673Y12546179D01*
X59907582Y12728750D01*
X59963397Y12924917D01*
X59982215Y13128000D01*
X59974802Y13208000D01*
X73190171Y13208000D01*
X73209843Y12995691D01*
X73268194Y12790613D01*
X73363232Y12599747D01*
X73412565Y12534421D01*
X73491728Y12429593D01*
X73649298Y12285948D01*
X73813387Y12184348D01*
X73830575Y12173706D01*
X73830577Y12173704D01*
X73830579Y12173704D01*
X73830581Y12173702D01*
X74029402Y12096679D01*
X74238990Y12057500D01*
X74238991Y12057500D01*
X74452209Y12057500D01*
X74452210Y12057500D01*
X74661798Y12096679D01*
X74860619Y12173702D01*
X75041902Y12285948D01*
X75199472Y12429593D01*
X75327966Y12599745D01*
X75423005Y12790611D01*
X75481356Y12995690D01*
X75501029Y13208000D01*
X75481356Y13420310D01*
X75423005Y13625389D01*
X75375682Y13720427D01*
X75327967Y13816254D01*
X75255745Y13911890D01*
X75199472Y13986407D01*
X75168800Y14014368D01*
X75055839Y14117347D01*
X75041902Y14130052D01*
X74959996Y14180766D01*
X74860624Y14242295D01*
X74860622Y14242297D01*
X74661798Y14319321D01*
X74661794Y14319322D01*
X74452210Y14358500D01*
X74238990Y14358500D01*
X74238989Y14358500D01*
X74029405Y14319322D01*
X74029401Y14319321D01*
X73830577Y14242297D01*
X73830575Y14242295D01*
X73649300Y14130054D01*
X73649296Y14130051D01*
X73491729Y13986409D01*
X73363232Y13816254D01*
X73268194Y13625388D01*
X73209843Y13420310D01*
X73190171Y13208001D01*
X73190171Y13208000D01*
X59974802Y13208000D01*
X59963397Y13331083D01*
X59907582Y13527250D01*
X59816673Y13709821D01*
X59816672Y13709823D01*
X59693765Y13872578D01*
X59680351Y13884807D01*
X59543041Y14009981D01*
X59513211Y14028451D01*
X59369639Y14117347D01*
X59369637Y14117348D01*
X59179456Y14191024D01*
X59179452Y14191025D01*
X58978976Y14228500D01*
X58775024Y14228500D01*
X58775023Y14228500D01*
X58574547Y14191025D01*
X58574543Y14191024D01*
X58384362Y14117348D01*
X58384360Y14117347D01*
X58316330Y14075224D01*
X58267235Y14044826D01*
X58209855Y14028500D01*
X55565149Y14028500D01*
X55501080Y14049317D01*
X55488074Y14060425D01*
X53800500Y15748000D01*
X73190171Y15748000D01*
X73209843Y15535691D01*
X73268194Y15330613D01*
X73363232Y15139747D01*
X73421887Y15062076D01*
X73470141Y14998178D01*
X73491729Y14969592D01*
X73526165Y14938199D01*
X73649298Y14825948D01*
X73813387Y14724348D01*
X73830575Y14713706D01*
X73830577Y14713704D01*
X73830579Y14713704D01*
X73830581Y14713702D01*
X74029402Y14636679D01*
X74238990Y14597500D01*
X74238991Y14597500D01*
X74452209Y14597500D01*
X74452210Y14597500D01*
X74661798Y14636679D01*
X74860619Y14713702D01*
X75041902Y14825948D01*
X75199472Y14969593D01*
X75327966Y15139745D01*
X75423005Y15330611D01*
X75481356Y15535690D01*
X75501029Y15748000D01*
X75481356Y15960310D01*
X75423005Y16165389D01*
X75375682Y16260427D01*
X75327967Y16356254D01*
X75250461Y16458887D01*
X75199472Y16526407D01*
X75041902Y16670052D01*
X75030979Y16676815D01*
X74860624Y16782295D01*
X74860622Y16782297D01*
X74661798Y16859321D01*
X74661794Y16859322D01*
X74452210Y16898500D01*
X74238990Y16898500D01*
X74238989Y16898500D01*
X74029405Y16859322D01*
X74029401Y16859321D01*
X73830577Y16782297D01*
X73830575Y16782295D01*
X73649300Y16670054D01*
X73649296Y16670051D01*
X73491729Y16526409D01*
X73363232Y16356254D01*
X73268194Y16165388D01*
X73209843Y15960310D01*
X73190171Y15748001D01*
X73190171Y15748000D01*
X53800500Y15748000D01*
X52466925Y17081575D01*
X52436342Y17141599D01*
X52435000Y17158650D01*
X52435000Y18288000D01*
X73190171Y18288000D01*
X73209843Y18075691D01*
X73268194Y17870613D01*
X73363232Y17679747D01*
X73439958Y17578147D01*
X73491728Y17509593D01*
X73649298Y17365948D01*
X73813387Y17264348D01*
X73830575Y17253706D01*
X73830577Y17253704D01*
X73830579Y17253704D01*
X73830581Y17253702D01*
X74029402Y17176679D01*
X74238990Y17137500D01*
X74238991Y17137500D01*
X74452209Y17137500D01*
X74452210Y17137500D01*
X74661798Y17176679D01*
X74860619Y17253702D01*
X75041902Y17365948D01*
X75199472Y17509593D01*
X75327966Y17679745D01*
X75423005Y17870611D01*
X75481356Y18075690D01*
X75501029Y18288000D01*
X75481356Y18500310D01*
X75423005Y18705389D01*
X75362014Y18827877D01*
X75327967Y18896254D01*
X75276196Y18964809D01*
X75199472Y19066407D01*
X75041902Y19210052D01*
X74900310Y19297722D01*
X74860624Y19322295D01*
X74860622Y19322297D01*
X74661798Y19399321D01*
X74661794Y19399322D01*
X74452210Y19438500D01*
X74238990Y19438500D01*
X74238989Y19438500D01*
X74029405Y19399322D01*
X74029401Y19399321D01*
X73830577Y19322297D01*
X73830575Y19322295D01*
X73649300Y19210054D01*
X73649296Y19210051D01*
X73491729Y19066409D01*
X73363232Y18896254D01*
X73268194Y18705388D01*
X73209843Y18500310D01*
X73190171Y18288001D01*
X73190171Y18288000D01*
X52435000Y18288000D01*
X52435000Y20391053D01*
X52436342Y20408107D01*
X52438719Y20423113D01*
X52435075Y20492656D01*
X52435000Y20495509D01*
X52435000Y20517686D01*
X52435000Y20517692D01*
X52432677Y20539791D01*
X52432457Y20542584D01*
X52428812Y20612146D01*
X52424877Y20626829D01*
X52421763Y20643633D01*
X52420174Y20658756D01*
X52398638Y20725032D01*
X52397846Y20727708D01*
X52379820Y20794988D01*
X52372919Y20808530D01*
X52366374Y20824334D01*
X52365183Y20828000D01*
X73190171Y20828000D01*
X73209843Y20615691D01*
X73268194Y20410613D01*
X73363232Y20219747D01*
X73363234Y20219745D01*
X73491728Y20049593D01*
X73649298Y19905948D01*
X73813387Y19804348D01*
X73830575Y19793706D01*
X73830577Y19793704D01*
X73830579Y19793704D01*
X73830581Y19793702D01*
X74029402Y19716679D01*
X74238990Y19677500D01*
X74238991Y19677500D01*
X74452209Y19677500D01*
X74452210Y19677500D01*
X74661798Y19716679D01*
X74860619Y19793702D01*
X75041902Y19905948D01*
X75199472Y20049593D01*
X75327966Y20219745D01*
X75423005Y20410611D01*
X75481356Y20615690D01*
X75501029Y20828000D01*
X75481356Y21040310D01*
X75423005Y21245389D01*
X75375682Y21340428D01*
X75327967Y21436254D01*
X75199470Y21606409D01*
X75041903Y21750051D01*
X75041899Y21750054D01*
X74860624Y21862295D01*
X74860622Y21862297D01*
X74661798Y21939321D01*
X74661794Y21939322D01*
X74452210Y21978500D01*
X74238990Y21978500D01*
X74238989Y21978500D01*
X74029405Y21939322D01*
X74029401Y21939321D01*
X73830577Y21862297D01*
X73830575Y21862295D01*
X73649300Y21750054D01*
X73649296Y21750051D01*
X73491729Y21606409D01*
X73363232Y21436254D01*
X73268194Y21245388D01*
X73209843Y21040310D01*
X73190171Y20828001D01*
X73190171Y20828000D01*
X52365183Y20828000D01*
X52361680Y20838780D01*
X52361679Y20838784D01*
X52326849Y20899110D01*
X52325497Y20901601D01*
X52293882Y20963651D01*
X52284318Y20975461D01*
X52274630Y20989556D01*
X52267033Y21002716D01*
X52220413Y21054493D01*
X52218575Y21056647D01*
X52204618Y21073881D01*
X52188927Y21089573D01*
X52186964Y21091641D01*
X52140371Y21143388D01*
X52128074Y21152323D01*
X52115073Y21163426D01*
X49910499Y23368000D01*
X73190171Y23368000D01*
X73209843Y23155691D01*
X73268194Y22950613D01*
X73363232Y22759747D01*
X73363234Y22759745D01*
X73491728Y22589593D01*
X73649298Y22445948D01*
X73813387Y22344348D01*
X73830575Y22333706D01*
X73830577Y22333704D01*
X73830579Y22333704D01*
X73830581Y22333702D01*
X74029402Y22256679D01*
X74238990Y22217500D01*
X74238991Y22217500D01*
X74452209Y22217500D01*
X74452210Y22217500D01*
X74661798Y22256679D01*
X74860619Y22333702D01*
X75041902Y22445948D01*
X75199472Y22589593D01*
X75327966Y22759745D01*
X75423005Y22950611D01*
X75481356Y23155690D01*
X75501029Y23368000D01*
X75481356Y23580310D01*
X75423005Y23785389D01*
X75375682Y23880427D01*
X75327967Y23976254D01*
X75276196Y24044809D01*
X75199472Y24146407D01*
X75041902Y24290052D01*
X74900310Y24377722D01*
X74860624Y24402295D01*
X74860622Y24402297D01*
X74661798Y24479321D01*
X74661794Y24479322D01*
X74452210Y24518500D01*
X74238990Y24518500D01*
X74238989Y24518500D01*
X74029405Y24479322D01*
X74029401Y24479321D01*
X73830577Y24402297D01*
X73830575Y24402295D01*
X73649300Y24290054D01*
X73649296Y24290051D01*
X73491729Y24146409D01*
X73363232Y23976254D01*
X73268194Y23785388D01*
X73209843Y23580310D01*
X73190171Y23368001D01*
X73190171Y23368000D01*
X49910499Y23368000D01*
X47370499Y25908000D01*
X73190171Y25908000D01*
X73209843Y25695691D01*
X73268194Y25490613D01*
X73363232Y25299747D01*
X73363234Y25299745D01*
X73491728Y25129593D01*
X73649298Y24985948D01*
X73813387Y24884348D01*
X73830575Y24873706D01*
X73830577Y24873704D01*
X73830579Y24873704D01*
X73830581Y24873702D01*
X74029402Y24796679D01*
X74238990Y24757500D01*
X74238991Y24757500D01*
X74452209Y24757500D01*
X74452210Y24757500D01*
X74661798Y24796679D01*
X74860619Y24873702D01*
X75041902Y24985948D01*
X75199472Y25129593D01*
X75327966Y25299745D01*
X75423005Y25490611D01*
X75481356Y25695690D01*
X75501029Y25908000D01*
X75481356Y26120310D01*
X75423005Y26325389D01*
X75375682Y26420427D01*
X75327967Y26516254D01*
X75199470Y26686409D01*
X75041903Y26830051D01*
X75041899Y26830054D01*
X74860624Y26942295D01*
X74860622Y26942297D01*
X74661798Y27019321D01*
X74661794Y27019322D01*
X74452210Y27058500D01*
X74238990Y27058500D01*
X74238989Y27058500D01*
X74029405Y27019322D01*
X74029401Y27019321D01*
X73830577Y26942297D01*
X73830575Y26942295D01*
X73649300Y26830054D01*
X73649296Y26830051D01*
X73491729Y26686409D01*
X73363232Y26516254D01*
X73268194Y26325388D01*
X73209843Y26120310D01*
X73190171Y25908001D01*
X73190171Y25908000D01*
X47370499Y25908000D01*
X44830499Y28448000D01*
X73190171Y28448000D01*
X73209843Y28235691D01*
X73268194Y28030613D01*
X73363232Y27839747D01*
X73363234Y27839745D01*
X73491728Y27669593D01*
X73649298Y27525948D01*
X73813387Y27424348D01*
X73830575Y27413706D01*
X73830577Y27413704D01*
X73830579Y27413704D01*
X73830581Y27413702D01*
X74029402Y27336679D01*
X74238990Y27297500D01*
X74238991Y27297500D01*
X74452209Y27297500D01*
X74452210Y27297500D01*
X74661798Y27336679D01*
X74860619Y27413702D01*
X75041902Y27525948D01*
X75199472Y27669593D01*
X75327966Y27839745D01*
X75423005Y28030611D01*
X75481356Y28235690D01*
X75501029Y28448000D01*
X75481356Y28660310D01*
X75423005Y28865389D01*
X75332136Y29047881D01*
X75327967Y29056254D01*
X75199470Y29226409D01*
X75041903Y29370051D01*
X75041899Y29370054D01*
X74860624Y29482295D01*
X74860622Y29482297D01*
X74661798Y29559321D01*
X74661794Y29559322D01*
X74452210Y29598500D01*
X74238990Y29598500D01*
X74238989Y29598500D01*
X74029405Y29559322D01*
X74029401Y29559321D01*
X73830577Y29482297D01*
X73830575Y29482295D01*
X73649300Y29370054D01*
X73649296Y29370051D01*
X73491729Y29226409D01*
X73363232Y29056254D01*
X73268194Y28865388D01*
X73209843Y28660310D01*
X73190171Y28448001D01*
X73190171Y28448000D01*
X44830499Y28448000D01*
X44020454Y29258045D01*
X43989871Y29318069D01*
X43993221Y29366758D01*
X44037300Y29512066D01*
X44057583Y29718000D01*
X44037300Y29923934D01*
X43977232Y30121954D01*
X43915370Y30237688D01*
X43902500Y30289070D01*
X43902500Y30988000D01*
X73190171Y30988000D01*
X73209843Y30775691D01*
X73268194Y30570613D01*
X73363232Y30379747D01*
X73363234Y30379745D01*
X73491728Y30209593D01*
X73649298Y30065948D01*
X73813387Y29964348D01*
X73830575Y29953706D01*
X73830577Y29953704D01*
X73830579Y29953704D01*
X73830581Y29953702D01*
X74029402Y29876679D01*
X74238990Y29837500D01*
X74238991Y29837500D01*
X74452209Y29837500D01*
X74452210Y29837500D01*
X74661798Y29876679D01*
X74860619Y29953702D01*
X75041902Y30065948D01*
X75199472Y30209593D01*
X75327966Y30379745D01*
X75423005Y30570611D01*
X75481356Y30775690D01*
X75501029Y30988000D01*
X75481356Y31200310D01*
X75423005Y31405389D01*
X75352722Y31546538D01*
X75327967Y31596254D01*
X75250461Y31698887D01*
X75199472Y31766407D01*
X75041902Y31910052D01*
X75030979Y31916815D01*
X74860624Y32022295D01*
X74860622Y32022297D01*
X74661798Y32099321D01*
X74661794Y32099322D01*
X74452210Y32138500D01*
X74238990Y32138500D01*
X74238989Y32138500D01*
X74029405Y32099322D01*
X74029401Y32099321D01*
X73830577Y32022297D01*
X73830575Y32022295D01*
X73649300Y31910054D01*
X73649296Y31910051D01*
X73491729Y31766409D01*
X73363232Y31596254D01*
X73268194Y31405388D01*
X73209843Y31200310D01*
X73190171Y30988001D01*
X73190171Y30988000D01*
X43902500Y30988000D01*
X43902500Y33528000D01*
X73190171Y33528000D01*
X73209843Y33315691D01*
X73268194Y33110613D01*
X73363232Y32919747D01*
X73363234Y32919745D01*
X73491728Y32749593D01*
X73649298Y32605948D01*
X73813387Y32504348D01*
X73830575Y32493706D01*
X73830577Y32493704D01*
X73830579Y32493704D01*
X73830581Y32493702D01*
X74029402Y32416679D01*
X74238990Y32377500D01*
X74238991Y32377500D01*
X74452209Y32377500D01*
X74452210Y32377500D01*
X74661798Y32416679D01*
X74860619Y32493702D01*
X75041902Y32605948D01*
X75199472Y32749593D01*
X75327966Y32919745D01*
X75423005Y33110611D01*
X75481356Y33315690D01*
X75501029Y33528000D01*
X75481356Y33740310D01*
X75423005Y33945389D01*
X75352722Y34086538D01*
X75327967Y34136254D01*
X75199470Y34306409D01*
X75041903Y34450051D01*
X75041899Y34450054D01*
X74860624Y34562295D01*
X74860622Y34562297D01*
X74661798Y34639321D01*
X74661794Y34639322D01*
X74452210Y34678500D01*
X74238990Y34678500D01*
X74238989Y34678500D01*
X74029405Y34639322D01*
X74029401Y34639321D01*
X73830577Y34562297D01*
X73830575Y34562295D01*
X73649300Y34450054D01*
X73649296Y34450051D01*
X73491729Y34306409D01*
X73363232Y34136254D01*
X73268194Y33945388D01*
X73209843Y33740310D01*
X73190171Y33528001D01*
X73190171Y33528000D01*
X43902500Y33528000D01*
X43902500Y35374166D01*
X43923317Y35438235D01*
X43934418Y35451233D01*
X44002047Y35518861D01*
X44132568Y35705266D01*
X44228739Y35911504D01*
X44270672Y36068000D01*
X73190171Y36068000D01*
X73209843Y35855691D01*
X73268194Y35650613D01*
X73363232Y35459747D01*
X73427861Y35374166D01*
X73491728Y35289593D01*
X73649298Y35145948D01*
X73813387Y35044348D01*
X73830575Y35033706D01*
X73830577Y35033704D01*
X73830579Y35033704D01*
X73830581Y35033702D01*
X74029402Y34956679D01*
X74238990Y34917500D01*
X74238991Y34917500D01*
X74452209Y34917500D01*
X74452210Y34917500D01*
X74661798Y34956679D01*
X74860619Y35033702D01*
X75041902Y35145948D01*
X75199472Y35289593D01*
X75327966Y35459745D01*
X75423005Y35650611D01*
X75481356Y35855690D01*
X75501029Y36068000D01*
X75481356Y36280310D01*
X75423005Y36485389D01*
X75375682Y36580427D01*
X75327967Y36676254D01*
X75276196Y36744809D01*
X75199472Y36846407D01*
X75041902Y36990052D01*
X75029435Y36997771D01*
X74860624Y37102295D01*
X74860622Y37102297D01*
X74661798Y37179321D01*
X74661794Y37179322D01*
X74452210Y37218500D01*
X74238990Y37218500D01*
X74238989Y37218500D01*
X74029405Y37179322D01*
X74029401Y37179321D01*
X73830577Y37102297D01*
X73830575Y37102295D01*
X73649300Y36990054D01*
X73649296Y36990051D01*
X73491729Y36846409D01*
X73363232Y36676254D01*
X73268194Y36485388D01*
X73209843Y36280310D01*
X73190171Y36068001D01*
X73190171Y36068000D01*
X44270672Y36068000D01*
X44287635Y36131308D01*
X44307468Y36358000D01*
X44287635Y36584692D01*
X44228739Y36804496D01*
X44132568Y37010734D01*
X44002047Y37197139D01*
X43841139Y37358047D01*
X43788251Y37395079D01*
X43654731Y37488570D01*
X43448503Y37584736D01*
X43448494Y37584740D01*
X43228694Y37643635D01*
X43002002Y37663468D01*
X43001998Y37663468D01*
X42775305Y37643635D01*
X42555505Y37584740D01*
X42555496Y37584736D01*
X42349268Y37488570D01*
X42162863Y37358049D01*
X42162859Y37358046D01*
X42095238Y37290425D01*
X42035215Y37259842D01*
X42018164Y37258500D01*
X37485836Y37258500D01*
X37421767Y37279317D01*
X37408762Y37290425D01*
X37341140Y37358046D01*
X37341136Y37358049D01*
X37300424Y37386556D01*
X37154734Y37488568D01*
X37154733Y37488569D01*
X37154731Y37488570D01*
X36948503Y37584736D01*
X36948494Y37584740D01*
X36728694Y37643635D01*
X36502002Y37663468D01*
X36501998Y37663468D01*
X36275305Y37643635D01*
X36055505Y37584740D01*
X36055496Y37584736D01*
X35849268Y37488570D01*
X35662864Y37358050D01*
X35501950Y37197136D01*
X35371430Y37010732D01*
X35275264Y36804504D01*
X35275260Y36804495D01*
X35216365Y36584695D01*
X35196532Y36358003D01*
X35196532Y36357998D01*
X35216365Y36131306D01*
X35275260Y35911506D01*
X35275264Y35911497D01*
X35371430Y35705269D01*
X35371431Y35705267D01*
X35371432Y35705266D01*
X35415228Y35642718D01*
X35480840Y35549013D01*
X35501953Y35518861D01*
X35662861Y35357953D01*
X35849266Y35227432D01*
X36055504Y35131261D01*
X36275308Y35072365D01*
X36458528Y35056336D01*
X36501998Y35052532D01*
X36502000Y35052532D01*
X36502002Y35052532D01*
X36541667Y35056003D01*
X36728692Y35072365D01*
X36948496Y35131261D01*
X37154734Y35227432D01*
X37341139Y35357953D01*
X37390751Y35407565D01*
X37408762Y35425575D01*
X37468785Y35456158D01*
X37485836Y35457500D01*
X41992500Y35457500D01*
X42056569Y35436683D01*
X42096165Y35382183D01*
X42101500Y35348500D01*
X42101500Y30727500D01*
X42080683Y30663431D01*
X42026183Y30623835D01*
X41992500Y30618500D01*
X31016448Y30618500D01*
X30999396Y30619842D01*
X30984389Y30622219D01*
X30984386Y30622220D01*
X30914837Y30618575D01*
X30911985Y30618500D01*
X25640149Y30618500D01*
X25576080Y30639317D01*
X25563074Y30650425D01*
X24644927Y31568572D01*
X24633819Y31581578D01*
X24624888Y31593871D01*
X24624886Y31593873D01*
X24573140Y31640466D01*
X24571071Y31642429D01*
X24555379Y31658120D01*
X24548346Y31663815D01*
X24538137Y31672083D01*
X24535988Y31673918D01*
X24484216Y31720533D01*
X24471051Y31728134D01*
X24456960Y31737819D01*
X24445149Y31747383D01*
X24383097Y31779000D01*
X24380590Y31780362D01*
X24320287Y31815177D01*
X24320284Y31815179D01*
X24320281Y31815180D01*
X24320279Y31815181D01*
X24305831Y31819875D01*
X24290031Y31826420D01*
X24276488Y31833320D01*
X24276485Y31833321D01*
X24209219Y31851346D01*
X24206484Y31852156D01*
X24140258Y31873674D01*
X24125141Y31875263D01*
X24108329Y31878379D01*
X24093646Y31882313D01*
X24093644Y31882314D01*
X24024082Y31885960D01*
X24021241Y31886184D01*
X24010133Y31887351D01*
X23999192Y31888500D01*
X23999185Y31888500D01*
X23977015Y31888500D01*
X23974163Y31888575D01*
X23904613Y31892220D01*
X23904610Y31892219D01*
X23889604Y31889842D01*
X23872552Y31888500D01*
X19972003Y31888500D01*
X19920621Y31901370D01*
X19891725Y31916815D01*
X19703135Y31974024D01*
X19703136Y31974024D01*
X19507001Y31993341D01*
X19506999Y31993341D01*
X19310864Y31974024D01*
X19122273Y31916815D01*
X19122271Y31916814D01*
X18948461Y31823910D01*
X18948460Y31823910D01*
X18796121Y31698887D01*
X18796113Y31698879D01*
X18671090Y31546540D01*
X18671090Y31546539D01*
X18578186Y31372729D01*
X18578185Y31372727D01*
X18520976Y31184136D01*
X18501659Y30988002D01*
X18501659Y30987999D01*
X18520976Y30791865D01*
X18578185Y30603274D01*
X18578186Y30603272D01*
X18671090Y30429462D01*
X18671090Y30429461D01*
X18782121Y30294171D01*
X18796117Y30277117D01*
X18948462Y30152090D01*
X19069301Y30087500D01*
X19122271Y30059187D01*
X19122273Y30059186D01*
X19310864Y30001977D01*
X19310865Y30001977D01*
X19310868Y30001976D01*
X19475124Y29985799D01*
X19506999Y29982659D01*
X19507000Y29982659D01*
X19507001Y29982659D01*
X19531056Y29985029D01*
X19703132Y30001976D01*
X19891727Y30059186D01*
X19920620Y30074630D01*
X19972003Y30087500D01*
X23533851Y30087500D01*
X23597920Y30066683D01*
X23610926Y30055575D01*
X24529074Y29137427D01*
X24540177Y29124426D01*
X24549112Y29112129D01*
X24569832Y29093473D01*
X24600859Y29065536D01*
X24602927Y29063573D01*
X24618619Y29047882D01*
X24635853Y29033925D01*
X24638007Y29032087D01*
X24689784Y28985467D01*
X24702944Y28977870D01*
X24717039Y28968182D01*
X24728849Y28958618D01*
X24728851Y28958617D01*
X24790910Y28926997D01*
X24793390Y28925651D01*
X24853716Y28890821D01*
X24859944Y28888798D01*
X24868166Y28886126D01*
X24883970Y28879581D01*
X24897512Y28872680D01*
X24964792Y28854654D01*
X24967468Y28853862D01*
X25033744Y28832326D01*
X25048867Y28830737D01*
X25065671Y28827623D01*
X25080354Y28823688D01*
X25149916Y28820043D01*
X25152709Y28819823D01*
X25174808Y28817500D01*
X25196991Y28817500D01*
X25199844Y28817425D01*
X25269387Y28813781D01*
X25269387Y28813782D01*
X25269388Y28813781D01*
X25284395Y28816158D01*
X25301448Y28817500D01*
X28499851Y28817500D01*
X28563920Y28796683D01*
X28603516Y28742183D01*
X28603516Y28674817D01*
X28576926Y28631425D01*
X24245926Y24300425D01*
X24185902Y24269842D01*
X24168851Y24268500D01*
X18269145Y24268500D01*
X18211764Y24284826D01*
X18094637Y24357348D01*
X17904456Y24431024D01*
X17904452Y24431025D01*
X17703976Y24468500D01*
X17500024Y24468500D01*
X17500023Y24468500D01*
X17299547Y24431025D01*
X17299543Y24431024D01*
X17109362Y24357348D01*
X17109360Y24357347D01*
X16935961Y24249983D01*
X16935957Y24249980D01*
X16785234Y24112578D01*
X16662327Y23949823D01*
X16662327Y23949822D01*
X16571418Y23767251D01*
X16571416Y23767247D01*
X16515603Y23571083D01*
X16515602Y23571083D01*
X16496785Y23368001D01*
X16496785Y23368000D01*
X16515602Y23164918D01*
X16571416Y22968754D01*
X16571418Y22968750D01*
X16662327Y22786179D01*
X16662327Y22786178D01*
X16785234Y22623423D01*
X16785236Y22623421D01*
X16935959Y22486019D01*
X17109363Y22378652D01*
X17299544Y22304976D01*
X17500024Y22267500D01*
X17500025Y22267500D01*
X17703975Y22267500D01*
X17703976Y22267500D01*
X17904456Y22304976D01*
X18094637Y22378652D01*
X18211764Y22451175D01*
X18269145Y22467500D01*
X23577500Y22467500D01*
X23641569Y22446683D01*
X23681165Y22392183D01*
X23686500Y22358500D01*
X23686500Y18706149D01*
X23665683Y18642080D01*
X23654575Y18629074D01*
X21705926Y16680425D01*
X21645902Y16649842D01*
X21628851Y16648500D01*
X19972003Y16648500D01*
X19920621Y16661370D01*
X19891725Y16676815D01*
X19703135Y16734024D01*
X19703136Y16734024D01*
X19507001Y16753341D01*
X19506999Y16753341D01*
X19310864Y16734024D01*
X19122273Y16676815D01*
X19122271Y16676814D01*
X18948461Y16583910D01*
X18948460Y16583910D01*
X18796121Y16458887D01*
X18796113Y16458879D01*
X18671090Y16306540D01*
X18671090Y16306539D01*
X18578186Y16132729D01*
X18578185Y16132727D01*
X18520976Y15944136D01*
X18501659Y15748002D01*
X18501659Y15747999D01*
X18520976Y15551865D01*
X18578185Y15363274D01*
X18578186Y15363272D01*
X18671090Y15189462D01*
X18671090Y15189461D01*
X18753187Y15089427D01*
X18796117Y15037117D01*
X18948462Y14912090D01*
X19057251Y14853941D01*
X19122271Y14819187D01*
X19122273Y14819186D01*
X19310864Y14761977D01*
X19310865Y14761977D01*
X19310868Y14761976D01*
X19475124Y14745799D01*
X19506999Y14742659D01*
X19507000Y14742659D01*
X19507001Y14742659D01*
X19531056Y14745029D01*
X19703132Y14761976D01*
X19891727Y14819186D01*
X19920620Y14834630D01*
X19972003Y14847500D01*
X21967552Y14847500D01*
X21984604Y14846158D01*
X21999612Y14843781D01*
X21999612Y14843782D01*
X21999613Y14843781D01*
X22069163Y14847425D01*
X22072015Y14847500D01*
X22094186Y14847500D01*
X22094192Y14847500D01*
X22116272Y14849822D01*
X22119077Y14850042D01*
X22188646Y14853687D01*
X22203333Y14857624D01*
X22220140Y14860738D01*
X22235256Y14862326D01*
X22301522Y14883858D01*
X22304171Y14884643D01*
X22371488Y14902680D01*
X22385024Y14909578D01*
X22400835Y14916127D01*
X22415284Y14920821D01*
X22475639Y14955669D01*
X22478087Y14956997D01*
X22540149Y14988617D01*
X22551955Y14998178D01*
X22566063Y15007874D01*
X22579214Y15015466D01*
X22579213Y15015466D01*
X22579216Y15015467D01*
X22610623Y15043746D01*
X22630981Y15062076D01*
X22633136Y15063918D01*
X22650380Y15077881D01*
X22666098Y15093601D01*
X22668102Y15095502D01*
X22719888Y15142129D01*
X22728823Y15154429D01*
X22739919Y15167422D01*
X23500426Y15927928D01*
X23560449Y15958510D01*
X23626985Y15947972D01*
X23674620Y15900337D01*
X23686500Y15850852D01*
X23686500Y15531150D01*
X23665683Y15467081D01*
X23654575Y15454075D01*
X17485734Y9285235D01*
X17428688Y9255166D01*
X17299547Y9231025D01*
X17299543Y9231024D01*
X17109362Y9157348D01*
X17109360Y9157347D01*
X16935961Y9049983D01*
X16935957Y9049980D01*
X16785234Y8912578D01*
X16662327Y8749823D01*
X16662327Y8749822D01*
X16571418Y8567251D01*
X16571416Y8567247D01*
X16515603Y8371083D01*
X16515602Y8371083D01*
X16496785Y8168001D01*
X16496785Y8168000D01*
X14977499Y8168000D01*
X14977499Y13167998D01*
X16297034Y13167998D01*
X16316859Y12941395D01*
X16375733Y12721675D01*
X16375736Y12721668D01*
X16471866Y12515518D01*
X16522972Y12442529D01*
X17079178Y12998733D01*
X17139202Y13029316D01*
X17205738Y13018778D01*
X17253372Y12971144D01*
X17274359Y12929955D01*
X17363955Y12840359D01*
X17405141Y12819374D01*
X17452776Y12771739D01*
X17463314Y12705203D01*
X17432731Y12645180D01*
X17432731Y12645179D01*
X16876528Y12088975D01*
X16949520Y12037865D01*
X17155667Y11941737D01*
X17155674Y11941734D01*
X17375394Y11882860D01*
X17601998Y11863034D01*
X17602002Y11863034D01*
X17828605Y11882860D01*
X18048325Y11941734D01*
X18048327Y11941735D01*
X18254486Y12037869D01*
X18327471Y12088974D01*
X17771268Y12645179D01*
X17740685Y12705203D01*
X17751223Y12771739D01*
X17798856Y12819373D01*
X17840045Y12840359D01*
X17929641Y12929955D01*
X17950626Y12971142D01*
X17998260Y13018776D01*
X18064796Y13029315D01*
X18124820Y12998732D01*
X18124821Y12998732D01*
X18681026Y12442529D01*
X18732131Y12515514D01*
X18828265Y12721673D01*
X18828266Y12721675D01*
X18887140Y12941395D01*
X18906966Y13167998D01*
X18906966Y13168003D01*
X18887140Y13394606D01*
X18828266Y13614326D01*
X18828263Y13614333D01*
X18732135Y13820480D01*
X18681025Y13893472D01*
X18124821Y13337269D01*
X18064797Y13306686D01*
X17998261Y13317224D01*
X17950626Y13364859D01*
X17929640Y13406046D01*
X17840045Y13495641D01*
X17840045Y13495642D01*
X17798856Y13516628D01*
X17751222Y13564262D01*
X17740684Y13630798D01*
X17771267Y13690821D01*
X17771267Y13690822D01*
X18327471Y14247028D01*
X18254482Y14298134D01*
X18048332Y14394264D01*
X18048325Y14394267D01*
X17828605Y14453141D01*
X17602002Y14472966D01*
X17601998Y14472966D01*
X17375394Y14453141D01*
X17155674Y14394267D01*
X17155667Y14394264D01*
X16949515Y14298133D01*
X16949511Y14298131D01*
X16876527Y14247028D01*
X17432731Y13690822D01*
X17463314Y13630798D01*
X17452776Y13564262D01*
X17405142Y13516628D01*
X17363955Y13495642D01*
X17274358Y13406045D01*
X17253372Y13364858D01*
X17205737Y13317224D01*
X17139200Y13306686D01*
X17079178Y13337269D01*
X16522972Y13893473D01*
X16471869Y13820489D01*
X16471867Y13820485D01*
X16375736Y13614333D01*
X16375733Y13614326D01*
X16316859Y13394606D01*
X16297034Y13168003D01*
X16297034Y13167998D01*
X14977499Y13167998D01*
X14977499Y14853941D01*
X14998316Y14918009D01*
X15017348Y14938197D01*
X15137883Y15037117D01*
X15262910Y15189462D01*
X15355814Y15363273D01*
X15413024Y15551868D01*
X15432341Y15748000D01*
X15413024Y15944132D01*
X15410915Y15951083D01*
X15355814Y16132727D01*
X15355813Y16132729D01*
X15307680Y16222779D01*
X15262910Y16306538D01*
X15262909Y16306540D01*
X15137886Y16458879D01*
X15137883Y16458883D01*
X15096825Y16492579D01*
X14985539Y16583910D01*
X14985537Y16583911D01*
X14959599Y16597775D01*
X14912909Y16646336D01*
X14911006Y16650479D01*
X14901780Y16671720D01*
X14894478Y16680695D01*
X14806278Y16789108D01*
X14806275Y16789110D01*
X14774742Y16811369D01*
X14682647Y16876377D01*
X14682646Y16876378D01*
X14682644Y16876379D01*
X14682642Y16876380D01*
X14540057Y16927054D01*
X14389081Y16937381D01*
X14389077Y16937381D01*
X14240914Y16906592D01*
X14106552Y16836971D01*
X14021697Y16757721D01*
X13995956Y16733680D01*
X13937893Y16638202D01*
X13896148Y16598710D01*
X13868466Y16583913D01*
X13868460Y16583910D01*
X13716121Y16458887D01*
X13716113Y16458879D01*
X13591090Y16306540D01*
X13591090Y16306539D01*
X13498186Y16132729D01*
X13498185Y16132727D01*
X13440976Y15944136D01*
X13421659Y15748002D01*
X13421659Y15747999D01*
X6722500Y15747999D01*
X6722500Y22459826D01*
X6743317Y22523895D01*
X6754425Y22536901D01*
X10441313Y26223789D01*
X12585521Y28367998D01*
X16297034Y28367998D01*
X16316859Y28141395D01*
X16375733Y27921675D01*
X16375736Y27921668D01*
X16471866Y27715518D01*
X16522972Y27642529D01*
X17079178Y28198733D01*
X17139202Y28229316D01*
X17205738Y28218778D01*
X17253372Y28171144D01*
X17274359Y28129955D01*
X17363955Y28040359D01*
X17405141Y28019374D01*
X17452776Y27971739D01*
X17463314Y27905203D01*
X17432731Y27845180D01*
X17432731Y27845179D01*
X16876528Y27288975D01*
X16949520Y27237865D01*
X17155667Y27141737D01*
X17155674Y27141734D01*
X17375394Y27082860D01*
X17601998Y27063034D01*
X17602002Y27063034D01*
X17828605Y27082860D01*
X18048325Y27141734D01*
X18048327Y27141735D01*
X18254486Y27237869D01*
X18327471Y27288974D01*
X17771268Y27845179D01*
X17740685Y27905203D01*
X17751223Y27971739D01*
X17798856Y28019373D01*
X17840045Y28040359D01*
X17929641Y28129955D01*
X17950626Y28171142D01*
X17998260Y28218776D01*
X18064796Y28229315D01*
X18124820Y28198732D01*
X18124821Y28198732D01*
X18681026Y27642529D01*
X18732131Y27715514D01*
X18828265Y27921673D01*
X18828266Y27921675D01*
X18887140Y28141395D01*
X18906966Y28367998D01*
X18906966Y28368003D01*
X18887140Y28594606D01*
X18828266Y28814326D01*
X18828263Y28814333D01*
X18732135Y29020480D01*
X18681025Y29093472D01*
X18124821Y28537269D01*
X18064797Y28506686D01*
X17998261Y28517224D01*
X17950626Y28564859D01*
X17946390Y28573173D01*
X17929641Y28606045D01*
X17840045Y28695641D01*
X17798856Y28716628D01*
X17751222Y28764262D01*
X17740684Y28830798D01*
X17771267Y28890821D01*
X17771267Y28890822D01*
X18327471Y29447028D01*
X18254482Y29498134D01*
X18048332Y29594264D01*
X18048325Y29594267D01*
X17828605Y29653141D01*
X17602002Y29672966D01*
X17601998Y29672966D01*
X17375394Y29653141D01*
X17155674Y29594267D01*
X17155667Y29594264D01*
X16949515Y29498133D01*
X16949511Y29498131D01*
X16876527Y29447028D01*
X17432731Y28890822D01*
X17463314Y28830798D01*
X17452776Y28764262D01*
X17405142Y28716628D01*
X17363955Y28695642D01*
X17274358Y28606045D01*
X17253372Y28564858D01*
X17205737Y28517224D01*
X17139200Y28506686D01*
X17079178Y28537269D01*
X16522972Y29093473D01*
X16471869Y29020489D01*
X16471867Y29020485D01*
X16375736Y28814333D01*
X16375733Y28814326D01*
X16316859Y28594606D01*
X16297034Y28368003D01*
X16297034Y28367998D01*
X12585521Y28367998D01*
X14184068Y29966545D01*
X14244090Y29997126D01*
X14271818Y29997943D01*
X14410825Y29984253D01*
X14426999Y29982659D01*
X14427000Y29982659D01*
X14427001Y29982659D01*
X14451056Y29985029D01*
X14623132Y30001976D01*
X14811727Y30059186D01*
X14985538Y30152090D01*
X15137883Y30277117D01*
X15262910Y30429462D01*
X15355814Y30603273D01*
X15413024Y30791868D01*
X15432341Y30988000D01*
X15413024Y31184132D01*
X15408116Y31200310D01*
X15355814Y31372727D01*
X15355813Y31372729D01*
X15338356Y31405389D01*
X15262910Y31546538D01*
X15262909Y31546540D01*
X15171337Y31658119D01*
X15137883Y31698883D01*
X14985538Y31823910D01*
X14933519Y31851715D01*
X14811728Y31916814D01*
X14811726Y31916815D01*
X14623135Y31974024D01*
X14623136Y31974024D01*
X14427001Y31993341D01*
X14426999Y31993341D01*
X14230864Y31974024D01*
X14042273Y31916815D01*
X14042271Y31916814D01*
X13868461Y31823910D01*
X13868460Y31823910D01*
X13716121Y31698887D01*
X13716113Y31698879D01*
X13591090Y31546540D01*
X13591090Y31546539D01*
X13498186Y31372729D01*
X13498185Y31372727D01*
X13440976Y31184136D01*
X13421659Y30988002D01*
X13421659Y30988000D01*
X13431665Y30886401D01*
X13436942Y30832828D01*
X13422505Y30767027D01*
X13405542Y30745069D01*
X11492802Y28832328D01*
X5789381Y23128907D01*
X5765168Y23106294D01*
X5740956Y23083681D01*
X5717757Y23045534D01*
X5714617Y23040921D01*
X5687639Y23005342D01*
X5687636Y23005338D01*
X5680583Y22987453D01*
X5672320Y22970815D01*
X5662327Y22954382D01*
X5650281Y22911391D01*
X5648502Y22906101D01*
X5632123Y22864562D01*
X5630156Y22845435D01*
X5626688Y22827186D01*
X5621500Y22808667D01*
X5621500Y22764025D01*
X5621214Y22758448D01*
X5616648Y22714028D01*
X2864192Y22714028D01*
X2931405Y22849011D01*
X2989756Y23054090D01*
X3009429Y23266400D01*
X3000014Y23368001D01*
X2989756Y23478710D01*
X2931405Y23683788D01*
X2836367Y23874654D01*
X2759641Y23976254D01*
X2707872Y24044807D01*
X2550302Y24188452D01*
X2421020Y24268500D01*
X2369024Y24300695D01*
X2369022Y24300697D01*
X2170198Y24377721D01*
X2170194Y24377722D01*
X1960610Y24416900D01*
X1747390Y24416900D01*
X1747389Y24416900D01*
X1537805Y24377722D01*
X1537801Y24377721D01*
X1338977Y24300697D01*
X1338975Y24300695D01*
X1157700Y24188454D01*
X1157696Y24188451D01*
X1000129Y24044809D01*
X871632Y23874654D01*
X776594Y23683788D01*
X718243Y23478710D01*
X698571Y23266401D01*
X698571Y23266400D01*
X500Y23266400D01*
X500Y25806400D01*
X698571Y25806400D01*
X718243Y25594091D01*
X776594Y25389013D01*
X871632Y25198147D01*
X923403Y25129592D01*
X1000128Y25027993D01*
X1157698Y24884348D01*
X1299286Y24796680D01*
X1338975Y24772106D01*
X1338977Y24772104D01*
X1338979Y24772104D01*
X1338981Y24772102D01*
X1537802Y24695079D01*
X1747390Y24655900D01*
X1747391Y24655900D01*
X1960609Y24655900D01*
X1960610Y24655900D01*
X2170198Y24695079D01*
X2369019Y24772102D01*
X2550302Y24884348D01*
X2707872Y25027993D01*
X2836366Y25198145D01*
X2931405Y25389011D01*
X2989756Y25594090D01*
X3009429Y25806400D01*
X3000014Y25908001D01*
X2989756Y26018710D01*
X2931405Y26223788D01*
X2836367Y26414654D01*
X2759641Y26516254D01*
X2707872Y26584807D01*
X2550302Y26728452D01*
X2386214Y26830051D01*
X2369024Y26840695D01*
X2369022Y26840697D01*
X2170198Y26917721D01*
X2170194Y26917722D01*
X1960610Y26956900D01*
X1747390Y26956900D01*
X1747389Y26956900D01*
X1537805Y26917722D01*
X1537801Y26917721D01*
X1338977Y26840697D01*
X1338975Y26840695D01*
X1157700Y26728454D01*
X1157696Y26728451D01*
X1000129Y26584809D01*
X871632Y26414654D01*
X776594Y26223788D01*
X718243Y26018710D01*
X698571Y25806401D01*
X698571Y25806400D01*
X500Y25806400D01*
X500Y28346400D01*
X698571Y28346400D01*
X718243Y28134091D01*
X776594Y27929013D01*
X871632Y27738147D01*
X957296Y27624711D01*
X1000128Y27567993D01*
X1157698Y27424348D01*
X1299286Y27336680D01*
X1338975Y27312106D01*
X1338977Y27312104D01*
X1338979Y27312104D01*
X1338981Y27312102D01*
X1537802Y27235079D01*
X1747390Y27195900D01*
X1747391Y27195900D01*
X1960609Y27195900D01*
X1960610Y27195900D01*
X2170198Y27235079D01*
X2369019Y27312102D01*
X2550302Y27424348D01*
X2707872Y27567993D01*
X2836366Y27738145D01*
X2931405Y27929011D01*
X2989756Y28134090D01*
X3009429Y28346400D01*
X3004497Y28399621D01*
X2989756Y28558710D01*
X2985289Y28574410D01*
X2931405Y28763789D01*
X2850135Y28927003D01*
X2836367Y28954654D01*
X2777184Y29033024D01*
X2707872Y29124807D01*
X2700679Y29131364D01*
X2550303Y29268451D01*
X2550299Y29268454D01*
X2369024Y29380695D01*
X2369022Y29380697D01*
X2170198Y29457721D01*
X2170194Y29457722D01*
X1960610Y29496900D01*
X1747390Y29496900D01*
X1747389Y29496900D01*
X1537805Y29457722D01*
X1537801Y29457721D01*
X1338977Y29380697D01*
X1338975Y29380695D01*
X1157700Y29268454D01*
X1157696Y29268451D01*
X1000129Y29124809D01*
X871632Y28954654D01*
X776594Y28763788D01*
X718243Y28558710D01*
X698571Y28346401D01*
X698571Y28346400D01*
X500Y28346400D01*
X500Y30886400D01*
X698571Y30886400D01*
X718243Y30674091D01*
X776594Y30469013D01*
X871632Y30278147D01*
X923403Y30209592D01*
X1000128Y30107993D01*
X1157698Y29964348D01*
X1299286Y29876680D01*
X1338975Y29852106D01*
X1338977Y29852104D01*
X1338979Y29852104D01*
X1338981Y29852102D01*
X1537802Y29775079D01*
X1747390Y29735900D01*
X1747391Y29735900D01*
X1960609Y29735900D01*
X1960610Y29735900D01*
X2170198Y29775079D01*
X2369019Y29852102D01*
X2550302Y29964348D01*
X2707872Y30107993D01*
X2836366Y30278145D01*
X2931405Y30469011D01*
X2989756Y30674090D01*
X3009429Y30886400D01*
X3000014Y30988001D01*
X2989756Y31098710D01*
X2931405Y31303788D01*
X2836367Y31494654D01*
X2759641Y31596254D01*
X2707872Y31664807D01*
X2633703Y31732421D01*
X2550303Y31808451D01*
X2550299Y31808454D01*
X2369024Y31920695D01*
X2369022Y31920697D01*
X2170198Y31997721D01*
X2170194Y31997722D01*
X1960610Y32036900D01*
X1747390Y32036900D01*
X1747389Y32036900D01*
X1537805Y31997722D01*
X1537801Y31997721D01*
X1338977Y31920697D01*
X1338975Y31920695D01*
X1157700Y31808454D01*
X1157696Y31808451D01*
X1000129Y31664809D01*
X871632Y31494654D01*
X776594Y31303788D01*
X718243Y31098710D01*
X698571Y30886401D01*
X698571Y30886400D01*
X500Y30886400D01*
X500Y33426400D01*
X698571Y33426400D01*
X718243Y33214091D01*
X776594Y33009013D01*
X871632Y32818147D01*
X923403Y32749592D01*
X1000128Y32647993D01*
X1157698Y32504348D01*
X1299286Y32416680D01*
X1338975Y32392106D01*
X1338977Y32392104D01*
X1338979Y32392104D01*
X1338981Y32392102D01*
X1537802Y32315079D01*
X1747390Y32275900D01*
X1747391Y32275900D01*
X1960609Y32275900D01*
X1960610Y32275900D01*
X2170198Y32315079D01*
X2369019Y32392102D01*
X2550302Y32504348D01*
X2707872Y32647993D01*
X2836366Y32818145D01*
X2931405Y33009011D01*
X2989756Y33214090D01*
X3009429Y33426400D01*
X3000014Y33527999D01*
X28661659Y33527999D01*
X28680976Y33331865D01*
X28738185Y33143274D01*
X28738186Y33143272D01*
X28831090Y32969462D01*
X28831090Y32969461D01*
X28942121Y32834171D01*
X28956117Y32817117D01*
X29108462Y32692090D01*
X29259826Y32611184D01*
X29282271Y32599187D01*
X29282273Y32599186D01*
X29470864Y32541977D01*
X29470865Y32541977D01*
X29470868Y32541976D01*
X29635124Y32525799D01*
X29666999Y32522659D01*
X29667000Y32522659D01*
X29667001Y32522659D01*
X29691056Y32525029D01*
X29863132Y32541976D01*
X30051727Y32599186D01*
X30225538Y32692090D01*
X30377883Y32817117D01*
X30476801Y32937649D01*
X30533539Y32973968D01*
X30561060Y32977500D01*
X31562603Y32977500D01*
X31628820Y32975238D01*
X31628821Y32975239D01*
X31628826Y32975238D01*
X31672216Y32985813D01*
X31677669Y32986849D01*
X31721920Y32992930D01*
X31739547Y33000588D01*
X31757176Y33006516D01*
X31770111Y33009669D01*
X31775852Y33011067D01*
X31814772Y33032952D01*
X31819763Y33035431D01*
X31860720Y33053220D01*
X31875630Y33065352D01*
X31891002Y33075813D01*
X31907759Y33085234D01*
X31939337Y33116814D01*
X31943475Y33120547D01*
X31978108Y33148722D01*
X31989198Y33164435D01*
X32001161Y33178638D01*
X33859618Y35037094D01*
X33908044Y35082320D01*
X33931249Y35120481D01*
X33934372Y35125070D01*
X33961361Y35160658D01*
X33968415Y35178549D01*
X33976678Y35195185D01*
X33986672Y35211618D01*
X33998718Y35254613D01*
X34000497Y35259903D01*
X34016876Y35301436D01*
X34016877Y35301444D01*
X34018843Y35320563D01*
X34022313Y35338822D01*
X34027500Y35357336D01*
X34027500Y35401987D01*
X34027785Y35407553D01*
X34032352Y35451972D01*
X34032352Y35451973D01*
X34029085Y35470923D01*
X34027500Y35489442D01*
X34027500Y38608000D01*
X73190171Y38608000D01*
X73209843Y38395691D01*
X73268194Y38190613D01*
X73363232Y37999747D01*
X73439958Y37898147D01*
X73491728Y37829593D01*
X73649298Y37685948D01*
X73813387Y37584348D01*
X73830575Y37573706D01*
X73830577Y37573704D01*
X73830579Y37573704D01*
X73830581Y37573702D01*
X74029402Y37496679D01*
X74238990Y37457500D01*
X74238991Y37457500D01*
X74452209Y37457500D01*
X74452210Y37457500D01*
X74661798Y37496679D01*
X74860619Y37573702D01*
X75041902Y37685948D01*
X75199472Y37829593D01*
X75327966Y37999745D01*
X75423005Y38190611D01*
X75481356Y38395690D01*
X75501029Y38608000D01*
X75481356Y38820310D01*
X75423005Y39025389D01*
X75375682Y39120428D01*
X75327967Y39216254D01*
X75199470Y39386409D01*
X75041903Y39530051D01*
X75041899Y39530054D01*
X74860624Y39642295D01*
X74860622Y39642297D01*
X74661798Y39719321D01*
X74661794Y39719322D01*
X74452210Y39758500D01*
X74238990Y39758500D01*
X74238989Y39758500D01*
X74029405Y39719322D01*
X74029401Y39719321D01*
X73830577Y39642297D01*
X73830575Y39642295D01*
X73649300Y39530054D01*
X73649296Y39530051D01*
X73491729Y39386409D01*
X73363232Y39216254D01*
X73268194Y39025388D01*
X73209843Y38820310D01*
X73190171Y38608001D01*
X73190171Y38608000D01*
X34027500Y38608000D01*
X34027500Y39604826D01*
X34048317Y39668895D01*
X34059425Y39681901D01*
X34653099Y40275575D01*
X34713123Y40306158D01*
X34730174Y40307500D01*
X35254319Y40307500D01*
X35318388Y40286683D01*
X35353105Y40244567D01*
X35371432Y40205266D01*
X35435544Y40113704D01*
X35479378Y40051101D01*
X35501953Y40018861D01*
X35662861Y39857953D01*
X35849266Y39727432D01*
X36055504Y39631261D01*
X36275308Y39572365D01*
X36458528Y39556336D01*
X36501998Y39552532D01*
X36502000Y39552532D01*
X36502002Y39552532D01*
X36541667Y39556003D01*
X36728692Y39572365D01*
X36948496Y39631261D01*
X37154734Y39727432D01*
X37341139Y39857953D01*
X37502047Y40018861D01*
X37632568Y40205266D01*
X37650894Y40244567D01*
X37696837Y40293833D01*
X37749681Y40307500D01*
X41754319Y40307500D01*
X41818388Y40286683D01*
X41853105Y40244567D01*
X41871432Y40205266D01*
X41935544Y40113704D01*
X41979378Y40051101D01*
X42001953Y40018861D01*
X42162861Y39857953D01*
X42349266Y39727432D01*
X42555504Y39631261D01*
X42775308Y39572365D01*
X42958528Y39556336D01*
X43001998Y39552532D01*
X43002000Y39552532D01*
X43002002Y39552532D01*
X43041668Y39556003D01*
X43228692Y39572365D01*
X43448496Y39631261D01*
X43654734Y39727432D01*
X43841139Y39857953D01*
X44002047Y40018861D01*
X44132568Y40205266D01*
X44228739Y40411504D01*
X44287635Y40631308D01*
X44307468Y40858000D01*
X44307210Y40860944D01*
X44300671Y40935691D01*
X44287635Y41084692D01*
X44228739Y41304496D01*
X44132568Y41510734D01*
X44002047Y41697139D01*
X43841139Y41858047D01*
X43790803Y41893292D01*
X43654731Y41988570D01*
X43448503Y42084736D01*
X43448494Y42084740D01*
X43228694Y42143635D01*
X43002002Y42163468D01*
X43001998Y42163468D01*
X42775305Y42143635D01*
X42555505Y42084740D01*
X42555496Y42084736D01*
X42349268Y41988570D01*
X42162864Y41858050D01*
X42001950Y41697136D01*
X41887023Y41533000D01*
X41871432Y41510734D01*
X41853105Y41471434D01*
X41807163Y41422167D01*
X41754319Y41408500D01*
X37749681Y41408500D01*
X37685612Y41429317D01*
X37650894Y41471434D01*
X37632568Y41510734D01*
X37502047Y41697139D01*
X37341139Y41858047D01*
X37290803Y41893292D01*
X37154731Y41988570D01*
X36948503Y42084736D01*
X36948494Y42084740D01*
X36728694Y42143635D01*
X36502002Y42163468D01*
X36501998Y42163468D01*
X36275305Y42143635D01*
X36055505Y42084740D01*
X36055496Y42084736D01*
X35849268Y41988570D01*
X35662864Y41858050D01*
X35501950Y41697136D01*
X35387023Y41533000D01*
X35371432Y41510734D01*
X35353105Y41471434D01*
X35307163Y41422167D01*
X35254319Y41408500D01*
X34466397Y41408500D01*
X34400176Y41410763D01*
X34356802Y41400194D01*
X34351319Y41399152D01*
X34307082Y41393071D01*
X34307075Y41393069D01*
X34289444Y41385410D01*
X34271830Y41379486D01*
X34253146Y41374933D01*
X34253143Y41374931D01*
X34214232Y41353053D01*
X34209233Y41350570D01*
X34168280Y41332781D01*
X34153363Y41320645D01*
X34138003Y41310191D01*
X34121243Y41300767D01*
X34121239Y41300764D01*
X34089676Y41269202D01*
X34085533Y41265463D01*
X34050892Y41237279D01*
X34050890Y41237277D01*
X34039804Y41221571D01*
X34027831Y41207357D01*
X33562748Y40742275D01*
X33094382Y40273908D01*
X33088048Y40267992D01*
X33045956Y40228681D01*
X33022757Y40190534D01*
X33019617Y40185921D01*
X32992639Y40150342D01*
X32992636Y40150338D01*
X32985583Y40132453D01*
X32977320Y40115815D01*
X32967327Y40099382D01*
X32955281Y40056391D01*
X32953502Y40051101D01*
X32937123Y40009562D01*
X32935156Y39990435D01*
X32931688Y39972186D01*
X32926500Y39953667D01*
X32926500Y39909025D01*
X32926214Y39903448D01*
X32921648Y39859028D01*
X32924915Y39840081D01*
X32926500Y39821560D01*
X32926500Y35706176D01*
X32905683Y35642107D01*
X32894575Y35629101D01*
X31375900Y34110425D01*
X31315876Y34079842D01*
X31298825Y34078500D01*
X30561060Y34078500D01*
X30496991Y34099317D01*
X30476802Y34118351D01*
X30377886Y34238879D01*
X30377883Y34238883D01*
X30225538Y34363910D01*
X30051728Y34456814D01*
X30051726Y34456815D01*
X29863135Y34514024D01*
X29863136Y34514024D01*
X29667001Y34533341D01*
X29666999Y34533341D01*
X29470864Y34514024D01*
X29282273Y34456815D01*
X29282271Y34456814D01*
X29108461Y34363910D01*
X29108460Y34363910D01*
X28956121Y34238887D01*
X28956113Y34238879D01*
X28831090Y34086540D01*
X28831090Y34086539D01*
X28738186Y33912729D01*
X28738185Y33912727D01*
X28680976Y33724136D01*
X28661659Y33528002D01*
X28661659Y33527999D01*
X3000014Y33527999D01*
X3000014Y33528001D01*
X2989756Y33638710D01*
X2931405Y33843788D01*
X2836367Y34034654D01*
X2759641Y34136254D01*
X2707872Y34204807D01*
X2550302Y34348452D01*
X2386214Y34450051D01*
X2369024Y34460695D01*
X2369022Y34460697D01*
X2170198Y34537721D01*
X2170194Y34537722D01*
X1960610Y34576900D01*
X1747390Y34576900D01*
X1747389Y34576900D01*
X1537805Y34537722D01*
X1537801Y34537721D01*
X1338977Y34460697D01*
X1338975Y34460695D01*
X1157700Y34348454D01*
X1157696Y34348451D01*
X1000129Y34204809D01*
X871632Y34034654D01*
X776594Y33843788D01*
X718243Y33638710D01*
X698571Y33426401D01*
X698571Y33426400D01*
X500Y33426400D01*
X500Y35966400D01*
X698571Y35966400D01*
X718243Y35754091D01*
X776594Y35549013D01*
X871632Y35358147D01*
X923403Y35289592D01*
X1000128Y35187993D01*
X1157698Y35044348D01*
X1299286Y34956680D01*
X1338975Y34932106D01*
X1338977Y34932104D01*
X1338979Y34932104D01*
X1338981Y34932102D01*
X1537802Y34855079D01*
X1747390Y34815900D01*
X1747391Y34815900D01*
X1960609Y34815900D01*
X1960610Y34815900D01*
X2170198Y34855079D01*
X2369019Y34932102D01*
X2550302Y35044348D01*
X2707872Y35187993D01*
X2836366Y35358145D01*
X2931405Y35549011D01*
X2989756Y35754090D01*
X3009429Y35966400D01*
X3000014Y36068001D01*
X2989756Y36178710D01*
X2938743Y36357998D01*
X2931405Y36383789D01*
X2880815Y36485389D01*
X2836367Y36574654D01*
X2759641Y36676254D01*
X2707872Y36744807D01*
X2550302Y36888452D01*
X2470762Y36937701D01*
X2369024Y37000695D01*
X2369022Y37000697D01*
X2170198Y37077721D01*
X2170194Y37077722D01*
X1960610Y37116900D01*
X1747390Y37116900D01*
X1747389Y37116900D01*
X1537805Y37077722D01*
X1537801Y37077721D01*
X1338977Y37000697D01*
X1338975Y37000695D01*
X1157700Y36888454D01*
X1157696Y36888451D01*
X1000129Y36744809D01*
X871632Y36574654D01*
X776594Y36383788D01*
X718243Y36178710D01*
X698571Y35966401D01*
X698571Y35966400D01*
X500Y35966400D01*
X500Y38506400D01*
X698571Y38506400D01*
X718243Y38294091D01*
X776594Y38089013D01*
X871632Y37898147D01*
X923403Y37829592D01*
X1000128Y37727993D01*
X1157698Y37584348D01*
X1312384Y37488570D01*
X1338975Y37472106D01*
X1338977Y37472104D01*
X1338979Y37472104D01*
X1338981Y37472102D01*
X1537802Y37395079D01*
X1747390Y37355900D01*
X1747391Y37355900D01*
X1960609Y37355900D01*
X1960610Y37355900D01*
X2170198Y37395079D01*
X2369019Y37472102D01*
X2550302Y37584348D01*
X2707872Y37727993D01*
X2836366Y37898145D01*
X2931405Y38089011D01*
X2989756Y38294090D01*
X3009429Y38506400D01*
X3000014Y38608001D01*
X2989756Y38718710D01*
X2954897Y38841224D01*
X2931405Y38923789D01*
X2871872Y39043348D01*
X2836367Y39114654D01*
X2759641Y39216254D01*
X2707872Y39284807D01*
X2550302Y39428452D01*
X2386214Y39530051D01*
X2369024Y39540695D01*
X2369022Y39540697D01*
X2170198Y39617721D01*
X2170194Y39617722D01*
X1960610Y39656900D01*
X1747390Y39656900D01*
X1747389Y39656900D01*
X1537805Y39617722D01*
X1537801Y39617721D01*
X1338977Y39540697D01*
X1338975Y39540695D01*
X1157700Y39428454D01*
X1157696Y39428451D01*
X1000129Y39284809D01*
X871632Y39114654D01*
X776594Y38923788D01*
X718243Y38718710D01*
X698571Y38506401D01*
X698571Y38506400D01*
X500Y38506400D01*
X500Y41046400D01*
X698571Y41046400D01*
X718243Y40834091D01*
X776594Y40629013D01*
X871632Y40438147D01*
X923403Y40369592D01*
X1000128Y40267993D01*
X1157698Y40124348D01*
X1328058Y40018865D01*
X1338975Y40012106D01*
X1338977Y40012104D01*
X1338979Y40012104D01*
X1338981Y40012102D01*
X1537802Y39935079D01*
X1747390Y39895900D01*
X1747391Y39895900D01*
X1960609Y39895900D01*
X1960610Y39895900D01*
X2170198Y39935079D01*
X2369019Y40012102D01*
X2550302Y40124348D01*
X2707872Y40267993D01*
X2836366Y40438145D01*
X2931405Y40629011D01*
X2989756Y40834090D01*
X3009429Y41046400D01*
X3000014Y41148001D01*
X2989756Y41258710D01*
X2977790Y41300765D01*
X2931405Y41463789D01*
X2860907Y41605370D01*
X2836367Y41654654D01*
X2759641Y41756254D01*
X2707872Y41824807D01*
X2671406Y41858050D01*
X2550303Y41968451D01*
X2550299Y41968454D01*
X2369024Y42080695D01*
X2369022Y42080697D01*
X2170198Y42157721D01*
X2170194Y42157722D01*
X1960610Y42196900D01*
X1747390Y42196900D01*
X1747389Y42196900D01*
X1537805Y42157722D01*
X1537801Y42157721D01*
X1338977Y42080697D01*
X1338975Y42080695D01*
X1157700Y41968454D01*
X1157696Y41968451D01*
X1000129Y41824809D01*
X871632Y41654654D01*
X776594Y41463788D01*
X718243Y41258710D01*
X698571Y41046401D01*
X698571Y41046400D01*
X500Y41046400D01*
X500Y43586400D01*
X698571Y43586400D01*
X718243Y43374091D01*
X776594Y43169013D01*
X871632Y42978147D01*
X941819Y42885206D01*
X993103Y42817295D01*
X1000129Y42807992D01*
X1049078Y42763369D01*
X1157698Y42664348D01*
X1174286Y42654077D01*
X1338975Y42552106D01*
X1338977Y42552104D01*
X1338979Y42552104D01*
X1338981Y42552102D01*
X1537802Y42475079D01*
X1747390Y42435900D01*
X1747391Y42435900D01*
X1960609Y42435900D01*
X1960610Y42435900D01*
X2170198Y42475079D01*
X2369019Y42552102D01*
X2550302Y42664348D01*
X2707872Y42807993D01*
X2836366Y42978145D01*
X2931405Y43169011D01*
X2989756Y43374090D01*
X3009429Y43586400D01*
X2989756Y43798710D01*
X2931405Y44003789D01*
X2872499Y44122090D01*
X2836367Y44194654D01*
X2739443Y44323000D01*
X10831417Y44323000D01*
X10851700Y44117066D01*
X10911768Y43919046D01*
X11009315Y43736550D01*
X11140590Y43576590D01*
X11300550Y43445315D01*
X11483046Y43347768D01*
X11681066Y43287700D01*
X11870054Y43269087D01*
X11886999Y43267417D01*
X11887000Y43267417D01*
X11887001Y43267417D01*
X11902657Y43268960D01*
X12092934Y43287700D01*
X12290954Y43347768D01*
X12473450Y43445315D01*
X12633410Y43576590D01*
X12761484Y43732650D01*
X12818219Y43768968D01*
X12845741Y43772500D01*
X14788825Y43772500D01*
X14852894Y43751683D01*
X14865900Y43740575D01*
X15306941Y43299534D01*
X15702504Y42903972D01*
X15733087Y42843948D01*
X15722549Y42777412D01*
X15682812Y42734225D01*
X15635698Y42705052D01*
X15635696Y42705051D01*
X15635694Y42705049D01*
X15478129Y42561409D01*
X15349632Y42391254D01*
X15267980Y42227271D01*
X15220787Y42179198D01*
X15154351Y42168045D01*
X15094048Y42198072D01*
X15068170Y42242428D01*
X15067057Y42242022D01*
X15065427Y42246499D01*
X14965602Y42460573D01*
X14830107Y42654081D01*
X14663082Y42821107D01*
X14663076Y42821112D01*
X14469580Y42956600D01*
X14469576Y42956602D01*
X14255502Y43056427D01*
X14255489Y43056432D01*
X14042000Y43113636D01*
X14042000Y42377991D01*
X14021183Y42313922D01*
X13966683Y42274326D01*
X13917488Y42270100D01*
X13827764Y42283000D01*
X13827763Y42283000D01*
X13756237Y42283000D01*
X13756235Y42283000D01*
X13666512Y42270100D01*
X13600133Y42281588D01*
X13553183Y42329898D01*
X13542000Y42377991D01*
X13541999Y43113636D01*
X13328510Y43056432D01*
X13328501Y43056428D01*
X13114427Y42956603D01*
X12920923Y42821111D01*
X12753889Y42654077D01*
X12618397Y42460573D01*
X12518572Y42246499D01*
X12518568Y42246490D01*
X12461364Y42033001D01*
X12461365Y42033000D01*
X13198691Y42033000D01*
X13262760Y42012183D01*
X13302356Y41957683D01*
X13303276Y41893292D01*
X13292000Y41854889D01*
X13292000Y41711111D01*
X13301090Y41680153D01*
X13303276Y41672708D01*
X13301352Y41605370D01*
X13260215Y41552023D01*
X13198691Y41533000D01*
X12461364Y41533000D01*
X12518568Y41319511D01*
X12518573Y41319498D01*
X12618398Y41105424D01*
X12618400Y41105420D01*
X12753888Y40911924D01*
X12920923Y40744889D01*
X13114419Y40609401D01*
X13114423Y40609399D01*
X13328497Y40509574D01*
X13328510Y40509569D01*
X13542000Y40452366D01*
X13542000Y41188010D01*
X13562817Y41252079D01*
X13617317Y41291675D01*
X13666513Y41295900D01*
X13756224Y41283001D01*
X13756236Y41283001D01*
X13756237Y41283000D01*
X13756238Y41283000D01*
X13827762Y41283000D01*
X13827763Y41283000D01*
X13827764Y41283001D01*
X13827775Y41283001D01*
X13917487Y41295900D01*
X13983866Y41284413D01*
X14030816Y41236104D01*
X14042000Y41188010D01*
X14042000Y40452366D01*
X14255489Y40509569D01*
X14255502Y40509574D01*
X14469576Y40609399D01*
X14469580Y40609401D01*
X14663076Y40744889D01*
X14830111Y40911924D01*
X14965599Y41105420D01*
X14965601Y41105424D01*
X15065426Y41319498D01*
X15067057Y41323978D01*
X15068450Y41323472D01*
X15101792Y41374839D01*
X15164678Y41398994D01*
X15229752Y41381573D01*
X15267980Y41338730D01*
X15349632Y41174747D01*
X15349634Y41174745D01*
X15478128Y41004593D01*
X15635698Y40860948D01*
X15776078Y40774028D01*
X15816975Y40748706D01*
X15816977Y40748704D01*
X15816979Y40748704D01*
X15816981Y40748702D01*
X16015802Y40671679D01*
X16225390Y40632500D01*
X16225391Y40632500D01*
X16438609Y40632500D01*
X16438610Y40632500D01*
X16648198Y40671679D01*
X16847019Y40748702D01*
X17028302Y40860948D01*
X17185872Y41004593D01*
X17314366Y41174745D01*
X17409405Y41365611D01*
X17467756Y41570690D01*
X17487429Y41783000D01*
X17716571Y41783000D01*
X17736243Y41570691D01*
X17794594Y41365613D01*
X17889632Y41174747D01*
X17889634Y41174745D01*
X18018128Y41004593D01*
X18175698Y40860948D01*
X18219075Y40834090D01*
X18269880Y40802633D01*
X18313393Y40751206D01*
X18321499Y40709959D01*
X18321499Y40201742D01*
X18300682Y40137673D01*
X18281648Y40117484D01*
X18125594Y39989414D01*
X18125586Y39989406D01*
X17994316Y39829451D01*
X17994312Y39829445D01*
X17896770Y39646959D01*
X17896769Y39646957D01*
X17896768Y39646954D01*
X17836700Y39448934D01*
X17816417Y39243000D01*
X17836700Y39037066D01*
X17896768Y38839046D01*
X17994315Y38656550D01*
X18125590Y38496590D01*
X18285550Y38365315D01*
X18468046Y38267768D01*
X18666066Y38207700D01*
X18855054Y38189087D01*
X18871999Y38187417D01*
X18872000Y38187417D01*
X18872001Y38187417D01*
X18887657Y38188960D01*
X19077934Y38207700D01*
X19275954Y38267768D01*
X19458450Y38365315D01*
X19618410Y38496590D01*
X19749685Y38656550D01*
X19847232Y38839046D01*
X19907300Y39037066D01*
X19927583Y39243000D01*
X19907300Y39448934D01*
X19847232Y39646954D01*
X19749685Y39829450D01*
X19618410Y39989410D01*
X19462348Y40117486D01*
X19426031Y40174219D01*
X19422500Y40201734D01*
X19422500Y40709960D01*
X19443317Y40774028D01*
X19474116Y40802631D01*
X19568302Y40860948D01*
X19725872Y41004593D01*
X19854366Y41174745D01*
X19949405Y41365611D01*
X20007756Y41570690D01*
X20027429Y41783000D01*
X20256571Y41783000D01*
X20276243Y41570691D01*
X20334594Y41365613D01*
X20429632Y41174747D01*
X20429634Y41174745D01*
X20558128Y41004593D01*
X20715698Y40860948D01*
X20809880Y40802633D01*
X20853393Y40751208D01*
X20861499Y40709960D01*
X20861499Y38931741D01*
X20840682Y38867672D01*
X20821648Y38847483D01*
X20665594Y38719414D01*
X20665586Y38719406D01*
X20534316Y38559451D01*
X20534312Y38559445D01*
X20436770Y38376959D01*
X20436769Y38376957D01*
X20436768Y38376954D01*
X20376700Y38178934D01*
X20356417Y37973000D01*
X20376700Y37767066D01*
X20436768Y37569046D01*
X20534315Y37386550D01*
X20665590Y37226590D01*
X20825550Y37095315D01*
X21008046Y36997768D01*
X21206066Y36937700D01*
X21395054Y36919087D01*
X21411999Y36917417D01*
X21412000Y36917417D01*
X21412001Y36917417D01*
X21427657Y36918960D01*
X21617934Y36937700D01*
X21815954Y36997768D01*
X21998450Y37095315D01*
X22158410Y37226590D01*
X22289685Y37386550D01*
X22387232Y37569046D01*
X22447300Y37767066D01*
X22467583Y37973000D01*
X22447300Y38178934D01*
X22392982Y38358000D01*
X28490504Y38358000D01*
X28543237Y38172657D01*
X28543239Y38172653D01*
X28642366Y37973576D01*
X28776388Y37796104D01*
X28940738Y37646279D01*
X28940742Y37646276D01*
X29129826Y37529201D01*
X29337188Y37448868D01*
X29337202Y37448864D01*
X29416999Y37433947D01*
X29417000Y37433948D01*
X29417000Y38171111D01*
X29437817Y38235180D01*
X29492317Y38274776D01*
X29559683Y38274776D01*
X29561343Y38274222D01*
X29608595Y38258000D01*
X29608596Y38258000D01*
X29696005Y38258000D01*
X29782216Y38272386D01*
X29782216Y38272387D01*
X29790059Y38273695D01*
X29856680Y38263708D01*
X29904707Y38216468D01*
X29917000Y38166182D01*
X29917000Y37433947D01*
X29996797Y37448864D01*
X29996811Y37448868D01*
X30204173Y37529201D01*
X30393257Y37646276D01*
X30393261Y37646279D01*
X30557611Y37796104D01*
X30691633Y37973576D01*
X30790760Y38172653D01*
X30790762Y38172657D01*
X30843496Y38358000D01*
X30106368Y38358000D01*
X30042299Y38378817D01*
X30002703Y38433317D01*
X30002703Y38500683D01*
X30006548Y38510783D01*
X30007390Y38512704D01*
X30010982Y38520892D01*
X30020628Y38637302D01*
X29999118Y38722244D01*
X30003571Y38789461D01*
X30046683Y38841224D01*
X30104783Y38858000D01*
X30843495Y38858000D01*
X30790762Y39043344D01*
X30790760Y39043348D01*
X30691633Y39242425D01*
X30557611Y39419897D01*
X30393261Y39569722D01*
X30393257Y39569725D01*
X30204173Y39686800D01*
X29996809Y39767134D01*
X29996799Y39767137D01*
X29917000Y39782054D01*
X29917000Y39044890D01*
X29896183Y38980821D01*
X29841683Y38941225D01*
X29774317Y38941225D01*
X29772608Y38941796D01*
X29725409Y38958000D01*
X29725405Y38958000D01*
X29637995Y38958000D01*
X29551784Y38943614D01*
X29551783Y38943614D01*
X29543940Y38942305D01*
X29477319Y38952294D01*
X29429292Y38999534D01*
X29417000Y39049819D01*
X29417000Y39782054D01*
X29416999Y39782054D01*
X29337200Y39767137D01*
X29337190Y39767134D01*
X29129826Y39686800D01*
X28940742Y39569725D01*
X28940738Y39569722D01*
X28776388Y39419897D01*
X28642366Y39242425D01*
X28543239Y39043348D01*
X28543237Y39043344D01*
X28490504Y38858000D01*
X29227632Y38858000D01*
X29291701Y38837183D01*
X29331297Y38782683D01*
X29331297Y38715317D01*
X29327452Y38705217D01*
X29323018Y38695108D01*
X29313372Y38578698D01*
X29334165Y38496587D01*
X29334882Y38493758D01*
X29330429Y38426539D01*
X29287317Y38374776D01*
X29229217Y38358000D01*
X28490504Y38358000D01*
X22392982Y38358000D01*
X22387232Y38376954D01*
X22289685Y38559450D01*
X22158410Y38719410D01*
X22002348Y38847486D01*
X21966031Y38904219D01*
X21962500Y38931734D01*
X21962499Y40709960D01*
X21983317Y40774028D01*
X22014116Y40802631D01*
X22108302Y40860948D01*
X22138132Y40888142D01*
X22801500Y40888142D01*
X22801502Y40888121D01*
X22804414Y40863012D01*
X22804414Y40863010D01*
X22804415Y40863009D01*
X22849794Y40760235D01*
X22929235Y40680794D01*
X23032009Y40635415D01*
X23057135Y40632500D01*
X24846864Y40632501D01*
X24871991Y40635415D01*
X24974765Y40680794D01*
X25054206Y40760235D01*
X25099585Y40863009D01*
X25102500Y40888135D01*
X25102499Y42109827D01*
X25123316Y42173895D01*
X25134418Y42186895D01*
X26203330Y43255808D01*
X26263352Y43286389D01*
X26291082Y43287206D01*
X26460611Y43270509D01*
X26491999Y43267417D01*
X26492000Y43267417D01*
X26492001Y43267417D01*
X26507657Y43268960D01*
X26697934Y43287700D01*
X26895954Y43347768D01*
X27064765Y43438000D01*
X73014964Y43438000D01*
X73072168Y43224511D01*
X73072173Y43224498D01*
X73171998Y43010424D01*
X73172000Y43010420D01*
X73307488Y42816924D01*
X73474523Y42649889D01*
X73668019Y42514401D01*
X73668023Y42514399D01*
X73882097Y42414574D01*
X73882108Y42414570D01*
X73883716Y42414139D01*
X73884257Y42413788D01*
X73886578Y42412943D01*
X73886383Y42412408D01*
X73940217Y42377453D01*
X73964363Y42314564D01*
X73946933Y42249492D01*
X73894890Y42207212D01*
X73830580Y42182298D01*
X73830575Y42182295D01*
X73649300Y42070054D01*
X73649296Y42070051D01*
X73491729Y41926409D01*
X73363232Y41756254D01*
X73268194Y41565388D01*
X73209843Y41360310D01*
X73190171Y41148001D01*
X73190171Y41148000D01*
X73209843Y40935691D01*
X73268194Y40730613D01*
X73363232Y40539747D01*
X73363234Y40539745D01*
X73491728Y40369593D01*
X73649298Y40225948D01*
X73827168Y40115815D01*
X73830575Y40113706D01*
X73830577Y40113704D01*
X73830579Y40113704D01*
X73830581Y40113702D01*
X74029402Y40036679D01*
X74238990Y39997500D01*
X74238991Y39997500D01*
X74452209Y39997500D01*
X74452210Y39997500D01*
X74661798Y40036679D01*
X74860619Y40113702D01*
X75041902Y40225948D01*
X75199472Y40369593D01*
X75327966Y40539745D01*
X75423005Y40730611D01*
X75481356Y40935690D01*
X75501029Y41148000D01*
X75481356Y41360310D01*
X75423005Y41565389D01*
X75369567Y41672708D01*
X75327967Y41756254D01*
X75253480Y41854889D01*
X75199472Y41926407D01*
X75041902Y42070052D01*
X74900310Y42157722D01*
X74860624Y42182295D01*
X74860616Y42182300D01*
X74796310Y42207212D01*
X74744088Y42249768D01*
X74726854Y42314892D01*
X74751189Y42377708D01*
X74804815Y42412412D01*
X74804622Y42412943D01*
X74806942Y42413788D01*
X74807487Y42414140D01*
X74809092Y42414571D01*
X74809102Y42414574D01*
X75023176Y42514399D01*
X75023180Y42514401D01*
X75216676Y42649889D01*
X75383711Y42816924D01*
X75519199Y43010420D01*
X75519201Y43010424D01*
X75619026Y43224498D01*
X75619031Y43224511D01*
X75676236Y43438000D01*
X74938909Y43438000D01*
X74874840Y43458817D01*
X74835244Y43513317D01*
X74834324Y43577708D01*
X74845600Y43616112D01*
X74845600Y43759889D01*
X74834324Y43798292D01*
X74836248Y43865630D01*
X74877385Y43918977D01*
X74938909Y43938000D01*
X75676235Y43938000D01*
X75676235Y43938001D01*
X75619031Y44151490D01*
X75619027Y44151499D01*
X75519202Y44365573D01*
X75383707Y44559081D01*
X75216682Y44726107D01*
X75216676Y44726112D01*
X75023185Y44861597D01*
X75019706Y44863605D01*
X74974631Y44913668D01*
X74967590Y44980665D01*
X75001274Y45039005D01*
X75019720Y45052404D01*
X75023173Y45054398D01*
X75216679Y45189892D01*
X75383711Y45356924D01*
X75519199Y45550420D01*
X75519201Y45550424D01*
X75619026Y45764498D01*
X75619031Y45764511D01*
X75676236Y45978000D01*
X74938909Y45978000D01*
X74874840Y45998817D01*
X74835244Y46053317D01*
X74834324Y46117708D01*
X74845600Y46156112D01*
X74845600Y46299889D01*
X74834324Y46338292D01*
X74836248Y46405630D01*
X74877385Y46458977D01*
X74938909Y46478000D01*
X75676235Y46478000D01*
X75676235Y46478001D01*
X75619031Y46691490D01*
X75619027Y46691499D01*
X75519202Y46905573D01*
X75383707Y47099081D01*
X75216682Y47266107D01*
X75216676Y47266112D01*
X75023180Y47401600D01*
X75023176Y47401602D01*
X74809102Y47501427D01*
X74809088Y47501432D01*
X74807471Y47501865D01*
X74806927Y47502218D01*
X74804622Y47503057D01*
X74804815Y47503590D01*
X74750975Y47538557D01*
X74726835Y47601449D01*
X74744273Y47666519D01*
X74796309Y47708789D01*
X74860619Y47733702D01*
X75041902Y47845948D01*
X75199472Y47989593D01*
X75327966Y48159745D01*
X75423005Y48350611D01*
X75481356Y48555690D01*
X75501029Y48768000D01*
X75481356Y48980310D01*
X75423005Y49185389D01*
X75375682Y49280428D01*
X75327967Y49376254D01*
X75199470Y49546409D01*
X75041903Y49690051D01*
X75041899Y49690054D01*
X74860624Y49802295D01*
X74860622Y49802297D01*
X74661798Y49879321D01*
X74661794Y49879322D01*
X74452210Y49918500D01*
X74238990Y49918500D01*
X74238989Y49918500D01*
X74029405Y49879322D01*
X74029401Y49879321D01*
X73830577Y49802297D01*
X73830575Y49802295D01*
X73649300Y49690054D01*
X73649296Y49690051D01*
X73491729Y49546409D01*
X73363232Y49376254D01*
X73268194Y49185388D01*
X73209843Y48980310D01*
X73190171Y48768001D01*
X73190171Y48768000D01*
X73209843Y48555691D01*
X73268194Y48350613D01*
X73363232Y48159747D01*
X73363234Y48159745D01*
X73491728Y47989593D01*
X73649298Y47845948D01*
X73813387Y47744348D01*
X73830575Y47733706D01*
X73830577Y47733704D01*
X73830579Y47733704D01*
X73830581Y47733702D01*
X73894889Y47708790D01*
X73947110Y47666234D01*
X73964346Y47601110D01*
X73940010Y47538294D01*
X73886386Y47503585D01*
X73886578Y47503057D01*
X73884279Y47502221D01*
X73883732Y47501866D01*
X73882113Y47501433D01*
X73882101Y47501428D01*
X73668027Y47401603D01*
X73474523Y47266111D01*
X73307489Y47099077D01*
X73171997Y46905573D01*
X73072172Y46691499D01*
X73072168Y46691490D01*
X73014964Y46478001D01*
X73014965Y46478000D01*
X73752291Y46478000D01*
X73816360Y46457183D01*
X73855956Y46402683D01*
X73856876Y46338292D01*
X73845600Y46299889D01*
X73845600Y46156112D01*
X73856876Y46117708D01*
X73854952Y46050370D01*
X73813815Y45997023D01*
X73752291Y45978000D01*
X73014964Y45978000D01*
X73072168Y45764511D01*
X73072173Y45764498D01*
X73171998Y45550424D01*
X73172000Y45550420D01*
X73307488Y45356924D01*
X73474523Y45189889D01*
X73668015Y45054404D01*
X73671489Y45052398D01*
X73716566Y45002337D01*
X73723610Y44935340D01*
X73689928Y44876999D01*
X73671500Y44863608D01*
X73668027Y44861603D01*
X73474523Y44726111D01*
X73307489Y44559077D01*
X73171997Y44365573D01*
X73072172Y44151499D01*
X73072168Y44151490D01*
X73014964Y43938001D01*
X73014965Y43938000D01*
X73752291Y43938000D01*
X73816360Y43917183D01*
X73855956Y43862683D01*
X73856876Y43798292D01*
X73845600Y43759889D01*
X73845600Y43616112D01*
X73856876Y43577708D01*
X73854952Y43510370D01*
X73813815Y43457023D01*
X73752291Y43438000D01*
X73014964Y43438000D01*
X27064765Y43438000D01*
X27078450Y43445315D01*
X27238410Y43576590D01*
X27369685Y43736550D01*
X27467232Y43919046D01*
X27527300Y44117066D01*
X27547583Y44323000D01*
X27527300Y44528934D01*
X27467232Y44726954D01*
X27369685Y44909450D01*
X27238410Y45069410D01*
X27078450Y45200685D01*
X26895954Y45298232D01*
X26697934Y45358300D01*
X26560644Y45371822D01*
X26492001Y45378583D01*
X26491999Y45378583D01*
X26389033Y45368442D01*
X26286066Y45358300D01*
X26088046Y45298232D01*
X26088043Y45298231D01*
X26088041Y45298230D01*
X25905555Y45200688D01*
X25905552Y45200687D01*
X25905550Y45200685D01*
X25905547Y45200684D01*
X25905549Y45200684D01*
X25745594Y45069414D01*
X25745586Y45069406D01*
X25668849Y44975900D01*
X25617517Y44913351D01*
X25614316Y44909451D01*
X25614312Y44909445D01*
X25516770Y44726959D01*
X25516769Y44726957D01*
X25516768Y44726954D01*
X25484536Y44620698D01*
X25456700Y44528933D01*
X25436417Y44323002D01*
X25436417Y44322999D01*
X25456205Y44122090D01*
X25441768Y44056289D01*
X25424805Y44034331D01*
X24355899Y42965425D01*
X24295875Y42934842D01*
X24278824Y42933500D01*
X23057141Y42933500D01*
X23057120Y42933498D01*
X23032011Y42930586D01*
X22929234Y42885206D01*
X22849794Y42805766D01*
X22804415Y42702991D01*
X22801500Y42677866D01*
X22801500Y40888142D01*
X22138132Y40888142D01*
X22265872Y41004593D01*
X22394366Y41174745D01*
X22489405Y41365611D01*
X22547756Y41570690D01*
X22567429Y41783000D01*
X22554140Y41926409D01*
X22547756Y41995310D01*
X22523461Y42080697D01*
X22489405Y42200389D01*
X22400971Y42377991D01*
X22394367Y42391254D01*
X22301371Y42514399D01*
X22265872Y42561407D01*
X22108302Y42705052D01*
X21962498Y42795330D01*
X21927024Y42817295D01*
X21927022Y42817297D01*
X21728198Y42894321D01*
X21728194Y42894322D01*
X21518610Y42933500D01*
X21305390Y42933500D01*
X21305389Y42933500D01*
X21095805Y42894322D01*
X21095801Y42894321D01*
X20896977Y42817297D01*
X20896975Y42817295D01*
X20715700Y42705054D01*
X20715696Y42705051D01*
X20558129Y42561409D01*
X20429632Y42391254D01*
X20334594Y42200388D01*
X20276243Y41995310D01*
X20256571Y41783001D01*
X20256571Y41783000D01*
X20027429Y41783000D01*
X20014140Y41926409D01*
X20007756Y41995310D01*
X19983461Y42080697D01*
X19949405Y42200389D01*
X19860971Y42377991D01*
X19854367Y42391254D01*
X19761371Y42514399D01*
X19725872Y42561407D01*
X19568302Y42705052D01*
X19422498Y42795330D01*
X19387024Y42817295D01*
X19387022Y42817297D01*
X19188198Y42894321D01*
X19188194Y42894322D01*
X18978610Y42933500D01*
X18765390Y42933500D01*
X18765389Y42933500D01*
X18555805Y42894322D01*
X18555801Y42894321D01*
X18356977Y42817297D01*
X18356975Y42817295D01*
X18175700Y42705054D01*
X18175696Y42705051D01*
X18018129Y42561409D01*
X17889632Y42391254D01*
X17794594Y42200388D01*
X17736243Y41995310D01*
X17716571Y41783001D01*
X17716571Y41783000D01*
X17487429Y41783000D01*
X17474140Y41926409D01*
X17467756Y41995310D01*
X17443461Y42080697D01*
X17409405Y42200389D01*
X17320971Y42377991D01*
X17314367Y42391254D01*
X17221371Y42514399D01*
X17185872Y42561407D01*
X17028302Y42705052D01*
X16934117Y42763370D01*
X16890605Y42814796D01*
X16882500Y42856042D01*
X16882500Y43043603D01*
X16884762Y43109821D01*
X16884761Y43109823D01*
X16884762Y43109826D01*
X16874188Y43153211D01*
X16873149Y43158683D01*
X16871729Y43169013D01*
X16867070Y43202920D01*
X16859408Y43220557D01*
X16853484Y43238176D01*
X16848933Y43256852D01*
X16831588Y43287700D01*
X16827050Y43295771D01*
X16824568Y43300769D01*
X16806780Y43341719D01*
X16806780Y43341720D01*
X16794645Y43356635D01*
X16784188Y43371999D01*
X16774765Y43388759D01*
X16758978Y43404546D01*
X16743193Y43420332D01*
X16739452Y43424478D01*
X16711280Y43459107D01*
X16695570Y43470196D01*
X16681353Y43482171D01*
X15457908Y44705618D01*
X15412682Y44754042D01*
X15412681Y44754043D01*
X15412680Y44754044D01*
X15412676Y44754047D01*
X15412674Y44754048D01*
X15374536Y44777240D01*
X15369921Y44780382D01*
X15334346Y44807358D01*
X15334340Y44807362D01*
X15316449Y44814418D01*
X15299811Y44822682D01*
X15283380Y44832673D01*
X15240387Y44844720D01*
X15235096Y44846499D01*
X15193565Y44862876D01*
X15193560Y44862877D01*
X15174435Y44864844D01*
X15156184Y44868313D01*
X15137669Y44873500D01*
X15137665Y44873500D01*
X15093024Y44873500D01*
X15087447Y44873786D01*
X15055795Y44877040D01*
X15043028Y44878352D01*
X15043027Y44878352D01*
X15043026Y44878352D01*
X15024080Y44875085D01*
X15005559Y44873500D01*
X12845741Y44873500D01*
X12781672Y44894317D01*
X12761485Y44913349D01*
X12633410Y45069410D01*
X12473450Y45200685D01*
X12290954Y45298232D01*
X12092934Y45358300D01*
X11955644Y45371823D01*
X11887001Y45378583D01*
X11886999Y45378583D01*
X11784033Y45368442D01*
X11681066Y45358300D01*
X11483046Y45298232D01*
X11483043Y45298231D01*
X11483041Y45298230D01*
X11300555Y45200688D01*
X11300552Y45200687D01*
X11300550Y45200685D01*
X11300547Y45200684D01*
X11300549Y45200684D01*
X11140594Y45069414D01*
X11140586Y45069406D01*
X11063849Y44975900D01*
X11012517Y44913351D01*
X11009316Y44909451D01*
X11009312Y44909445D01*
X10911770Y44726959D01*
X10911769Y44726957D01*
X10911768Y44726954D01*
X10851700Y44528934D01*
X10831417Y44323000D01*
X2739443Y44323000D01*
X2707870Y44364809D01*
X2550303Y44508451D01*
X2550299Y44508454D01*
X2369024Y44620695D01*
X2369022Y44620697D01*
X2170198Y44697721D01*
X2170194Y44697722D01*
X1960610Y44736900D01*
X1747390Y44736900D01*
X1747389Y44736900D01*
X1537805Y44697722D01*
X1537801Y44697721D01*
X1338977Y44620697D01*
X1338975Y44620695D01*
X1157700Y44508454D01*
X1157696Y44508451D01*
X1000129Y44364809D01*
X871632Y44194654D01*
X776594Y44003788D01*
X718243Y43798710D01*
X698571Y43586401D01*
X698571Y43586400D01*
X500Y43586400D01*
X500Y46126400D01*
X698571Y46126400D01*
X718243Y45914091D01*
X776594Y45709013D01*
X871632Y45518147D01*
X871634Y45518145D01*
X1000128Y45347993D01*
X1157698Y45204348D01*
X1181045Y45189892D01*
X1338975Y45092106D01*
X1338977Y45092104D01*
X1338979Y45092104D01*
X1338981Y45092102D01*
X1537802Y45015079D01*
X1747390Y44975900D01*
X1747391Y44975900D01*
X1960609Y44975900D01*
X1960610Y44975900D01*
X2170198Y45015079D01*
X2369019Y45092102D01*
X2550302Y45204348D01*
X2707872Y45347993D01*
X2836366Y45518145D01*
X2931405Y45709011D01*
X2989756Y45914090D01*
X3009429Y46126400D01*
X2989756Y46338710D01*
X2931405Y46543789D01*
X2877049Y46652952D01*
X2836367Y46734654D01*
X2707870Y46904809D01*
X2550303Y47048451D01*
X2550299Y47048454D01*
X2369024Y47160695D01*
X2369022Y47160697D01*
X2170198Y47237721D01*
X2170194Y47237722D01*
X1960610Y47276900D01*
X1747390Y47276900D01*
X1747389Y47276900D01*
X1537805Y47237722D01*
X1537801Y47237721D01*
X1338977Y47160697D01*
X1338975Y47160695D01*
X1157700Y47048454D01*
X1157696Y47048451D01*
X1000129Y46904809D01*
X871632Y46734654D01*
X776594Y46543788D01*
X718243Y46338710D01*
X698571Y46126401D01*
X698571Y46126400D01*
X500Y46126400D01*
X500Y48666400D01*
X698571Y48666400D01*
X718243Y48454091D01*
X776594Y48249013D01*
X871632Y48058147D01*
X923403Y47989592D01*
X1000128Y47887993D01*
X1157698Y47744348D01*
X1283856Y47666234D01*
X1338975Y47632106D01*
X1338977Y47632104D01*
X1338979Y47632104D01*
X1338981Y47632102D01*
X1537802Y47555079D01*
X1747390Y47515900D01*
X1747391Y47515900D01*
X1960609Y47515900D01*
X1960610Y47515900D01*
X2170198Y47555079D01*
X2369019Y47632102D01*
X2550302Y47744348D01*
X2707872Y47887993D01*
X2836366Y48058145D01*
X2931405Y48249011D01*
X2989756Y48454090D01*
X3009429Y48666400D01*
X3000014Y48768001D01*
X2989756Y48878710D01*
X2931405Y49083788D01*
X2836367Y49274654D01*
X2759641Y49376254D01*
X2707872Y49444807D01*
X2550302Y49588452D01*
X2386214Y49690051D01*
X2369024Y49700695D01*
X2369022Y49700697D01*
X2170198Y49777721D01*
X2170194Y49777722D01*
X1960610Y49816900D01*
X1747390Y49816900D01*
X1747389Y49816900D01*
X1537805Y49777722D01*
X1537801Y49777721D01*
X1338977Y49700697D01*
X1338975Y49700695D01*
X1157700Y49588454D01*
X1157696Y49588451D01*
X1000129Y49444809D01*
X871632Y49274654D01*
X776594Y49083788D01*
X718243Y48878710D01*
X698571Y48666401D01*
X698571Y48666400D01*
X500Y48666400D01*
X500Y51206400D01*
X698571Y51206400D01*
X718243Y50994091D01*
X776594Y50789013D01*
X871632Y50598147D01*
X923403Y50529592D01*
X1000128Y50427993D01*
X1157698Y50284348D01*
X1299286Y50196680D01*
X1338975Y50172106D01*
X1338977Y50172104D01*
X1338979Y50172104D01*
X1338981Y50172102D01*
X1537802Y50095079D01*
X1747390Y50055900D01*
X1747391Y50055900D01*
X1960609Y50055900D01*
X1960610Y50055900D01*
X2170198Y50095079D01*
X2369019Y50172102D01*
X2550302Y50284348D01*
X2707872Y50427993D01*
X2836366Y50598145D01*
X2931405Y50789011D01*
X2989756Y50994090D01*
X3009429Y51206400D01*
X3000332Y51304569D01*
X2989756Y51418710D01*
X2931405Y51623788D01*
X2836367Y51814654D01*
X2759641Y51916254D01*
X2707872Y51984807D01*
X2550302Y52128452D01*
X2386214Y52230051D01*
X2369024Y52240695D01*
X2369022Y52240697D01*
X2170198Y52317721D01*
X2170194Y52317722D01*
X1960610Y52356900D01*
X1747390Y52356900D01*
X1747389Y52356900D01*
X1537805Y52317722D01*
X1537801Y52317721D01*
X1338977Y52240697D01*
X1338975Y52240695D01*
X1157700Y52128454D01*
X1157696Y52128451D01*
X1000129Y51984809D01*
X871632Y51814654D01*
X776594Y51623788D01*
X718243Y51418710D01*
X698571Y51206401D01*
X698571Y51206400D01*
X500Y51206400D01*
X500Y53746400D01*
X698571Y53746400D01*
X718243Y53534091D01*
X776594Y53329013D01*
X871632Y53138147D01*
X928623Y53062680D01*
X1000128Y52967993D01*
X1157698Y52824348D01*
X1299286Y52736680D01*
X1338975Y52712106D01*
X1338977Y52712104D01*
X1338979Y52712104D01*
X1338981Y52712102D01*
X1537802Y52635079D01*
X1747390Y52595900D01*
X1747391Y52595900D01*
X1960609Y52595900D01*
X1960610Y52595900D01*
X2170198Y52635079D01*
X2369019Y52712102D01*
X2550302Y52824348D01*
X2707872Y52967993D01*
X2836366Y53138145D01*
X2931405Y53329011D01*
X2989756Y53534090D01*
X3009429Y53746400D01*
X3008947Y53751597D01*
X2989756Y53958710D01*
X2931405Y54163788D01*
X2836367Y54354654D01*
X2759641Y54456254D01*
X2707872Y54524807D01*
X2550302Y54668452D01*
X2386214Y54770051D01*
X2369024Y54780695D01*
X2369022Y54780697D01*
X2170198Y54857721D01*
X2170194Y54857722D01*
X1960610Y54896900D01*
X1747390Y54896900D01*
X1747389Y54896900D01*
X1537805Y54857722D01*
X1537801Y54857721D01*
X1338977Y54780697D01*
X1338975Y54780695D01*
X1157700Y54668454D01*
X1157696Y54668451D01*
X1000129Y54524809D01*
X871632Y54354654D01*
X776594Y54163788D01*
X718243Y53958710D01*
X698571Y53746401D01*
X698571Y53746400D01*
X500Y53746400D01*
X500Y58576400D01*
X523364Y58576400D01*
X580568Y58362911D01*
X580573Y58362898D01*
X680398Y58148824D01*
X680400Y58148820D01*
X815888Y57955324D01*
X982923Y57788289D01*
X1176419Y57652801D01*
X1176423Y57652799D01*
X1390497Y57552974D01*
X1390508Y57552970D01*
X1392116Y57552539D01*
X1392657Y57552188D01*
X1394978Y57551343D01*
X1394783Y57550808D01*
X1448617Y57515853D01*
X1472763Y57452964D01*
X1455333Y57387892D01*
X1403290Y57345612D01*
X1338980Y57320698D01*
X1338975Y57320695D01*
X1157700Y57208454D01*
X1157696Y57208451D01*
X1000129Y57064809D01*
X871632Y56894654D01*
X776594Y56703788D01*
X718243Y56498710D01*
X698571Y56286401D01*
X698571Y56286400D01*
X718243Y56074091D01*
X776594Y55869013D01*
X871632Y55678147D01*
X928623Y55602680D01*
X1000128Y55507993D01*
X1157698Y55364348D01*
X1299286Y55276680D01*
X1338975Y55252106D01*
X1338977Y55252104D01*
X1338979Y55252104D01*
X1338981Y55252102D01*
X1537802Y55175079D01*
X1747390Y55135900D01*
X1747391Y55135900D01*
X1960609Y55135900D01*
X1960610Y55135900D01*
X2170198Y55175079D01*
X2369019Y55252102D01*
X2550302Y55364348D01*
X2707872Y55507993D01*
X2836366Y55678145D01*
X2931405Y55869011D01*
X2989756Y56074090D01*
X3009429Y56286400D01*
X3008947Y56291597D01*
X2989756Y56498710D01*
X2931405Y56703788D01*
X2836367Y56894654D01*
X2759641Y56996254D01*
X2707872Y57064807D01*
X2550302Y57208452D01*
X2386214Y57310051D01*
X2369024Y57320695D01*
X2369016Y57320700D01*
X2304710Y57345612D01*
X2252488Y57388168D01*
X2235254Y57453292D01*
X2259589Y57516108D01*
X2313215Y57550812D01*
X2313022Y57551343D01*
X2315342Y57552188D01*
X2315887Y57552540D01*
X2317492Y57552971D01*
X2317502Y57552974D01*
X2531576Y57652799D01*
X2531580Y57652801D01*
X2725076Y57788289D01*
X2892111Y57955324D01*
X3027599Y58148820D01*
X3027601Y58148824D01*
X3127426Y58362898D01*
X3127431Y58362911D01*
X3184636Y58576400D01*
X2447309Y58576400D01*
X2383240Y58597217D01*
X2343644Y58651717D01*
X2342724Y58716108D01*
X2354000Y58754512D01*
X2354000Y58898289D01*
X2342724Y58936692D01*
X2344648Y59004030D01*
X2385785Y59057377D01*
X2447309Y59076400D01*
X3184635Y59076400D01*
X3184635Y59076401D01*
X3127431Y59289890D01*
X3127427Y59289899D01*
X3027602Y59503973D01*
X2892107Y59697481D01*
X2725082Y59864507D01*
X2725076Y59864512D01*
X2531580Y60000000D01*
X2531576Y60000002D01*
X2317502Y60099827D01*
X2317488Y60099832D01*
X2315871Y60100265D01*
X2315327Y60100618D01*
X2313022Y60101457D01*
X2313215Y60101990D01*
X2259375Y60136957D01*
X2235235Y60199849D01*
X2252673Y60264919D01*
X2304709Y60307189D01*
X2369019Y60332102D01*
X2550302Y60444348D01*
X2707872Y60587993D01*
X2836366Y60758145D01*
X2931405Y60949011D01*
X2989756Y61154090D01*
X3009429Y61366400D01*
X3000014Y61468001D01*
X2989756Y61578710D01*
X2931405Y61783788D01*
X2903334Y61840164D01*
X37842000Y61840164D01*
X37848400Y61780630D01*
X37848400Y61780629D01*
X37898648Y61645910D01*
X37898649Y61645906D01*
X37984806Y61530817D01*
X37984816Y61530807D01*
X38099905Y61444650D01*
X38099909Y61444649D01*
X38234628Y61394401D01*
X38241266Y61392832D01*
X38240548Y61389798D01*
X38290361Y61367525D01*
X38323953Y61309132D01*
X38316806Y61242147D01*
X38294374Y61209563D01*
X38153892Y61069081D01*
X38018397Y60875573D01*
X37918572Y60661499D01*
X37918568Y60661490D01*
X37861364Y60448001D01*
X37861365Y60448000D01*
X38598691Y60448000D01*
X38662760Y60427183D01*
X38702356Y60372683D01*
X38703276Y60308292D01*
X38692000Y60269889D01*
X38692000Y60126111D01*
X38699485Y60100618D01*
X38703276Y60087708D01*
X38701352Y60020370D01*
X38660215Y59967023D01*
X38598691Y59948000D01*
X37861364Y59948000D01*
X37918568Y59734511D01*
X37918573Y59734498D01*
X38018398Y59520424D01*
X38018400Y59520420D01*
X38153888Y59326924D01*
X38320923Y59159889D01*
X38514415Y59024404D01*
X38517889Y59022398D01*
X38562966Y58972337D01*
X38570010Y58905340D01*
X38536328Y58846999D01*
X38517900Y58833608D01*
X38514427Y58831603D01*
X38320923Y58696111D01*
X38153889Y58529077D01*
X38018397Y58335573D01*
X37918572Y58121499D01*
X37918568Y58121490D01*
X37861364Y57908001D01*
X37861365Y57908000D01*
X38598691Y57908000D01*
X38662760Y57887183D01*
X38702356Y57832683D01*
X38703276Y57768292D01*
X38692000Y57729889D01*
X38692000Y57586112D01*
X38703276Y57547708D01*
X38701352Y57480370D01*
X38660215Y57427023D01*
X38598691Y57408000D01*
X37861364Y57408000D01*
X37918568Y57194511D01*
X37918573Y57194498D01*
X38018398Y56980424D01*
X38018400Y56980420D01*
X38153888Y56786924D01*
X38320923Y56619889D01*
X38514415Y56484404D01*
X38517889Y56482398D01*
X38562966Y56432337D01*
X38570010Y56365340D01*
X38536328Y56306999D01*
X38517900Y56293608D01*
X38514427Y56291603D01*
X38320923Y56156111D01*
X38153889Y55989077D01*
X38018397Y55795573D01*
X37918572Y55581499D01*
X37918568Y55581490D01*
X37861364Y55368001D01*
X37861365Y55368000D01*
X38598691Y55368000D01*
X38662760Y55347183D01*
X38702356Y55292683D01*
X38703276Y55228292D01*
X38692000Y55189889D01*
X38692000Y55046112D01*
X38703276Y55007708D01*
X38701352Y54940370D01*
X38660215Y54887023D01*
X38598691Y54868000D01*
X37861364Y54868000D01*
X37918568Y54654511D01*
X37918573Y54654498D01*
X38018398Y54440424D01*
X38018400Y54440420D01*
X38153888Y54246924D01*
X38320923Y54079889D01*
X38514415Y53944404D01*
X38517889Y53942398D01*
X38562966Y53892337D01*
X38570010Y53825340D01*
X38536328Y53766999D01*
X38517900Y53753608D01*
X38514427Y53751603D01*
X38320923Y53616111D01*
X38153889Y53449077D01*
X38018397Y53255573D01*
X37918572Y53041499D01*
X37918568Y53041490D01*
X37861364Y52828001D01*
X37861365Y52828000D01*
X38598691Y52828000D01*
X38662760Y52807183D01*
X38702356Y52752683D01*
X38703276Y52688292D01*
X38692000Y52649889D01*
X38692000Y52506112D01*
X38703276Y52467708D01*
X38701352Y52400370D01*
X38660215Y52347023D01*
X38598691Y52328000D01*
X37861364Y52328000D01*
X37918568Y52114511D01*
X37918573Y52114498D01*
X38018398Y51900424D01*
X38018400Y51900420D01*
X38153888Y51706924D01*
X38320923Y51539889D01*
X38514419Y51404401D01*
X38514423Y51404399D01*
X38728497Y51304574D01*
X38728510Y51304569D01*
X38941999Y51247366D01*
X38942000Y51247366D01*
X38942000Y51983010D01*
X38962817Y52047079D01*
X39017317Y52086675D01*
X39066513Y52090900D01*
X39156224Y52078001D01*
X39156236Y52078001D01*
X39156237Y52078000D01*
X39156238Y52078000D01*
X39227762Y52078000D01*
X39227763Y52078000D01*
X39227764Y52078001D01*
X39227775Y52078001D01*
X39317487Y52090900D01*
X39383866Y52079413D01*
X39430816Y52031104D01*
X39442000Y51983010D01*
X39442000Y51247366D01*
X39655489Y51304569D01*
X39655502Y51304574D01*
X39662849Y51308000D01*
X73190171Y51308000D01*
X73209843Y51095691D01*
X73268194Y50890613D01*
X73363232Y50699747D01*
X73363234Y50699745D01*
X73491728Y50529593D01*
X73649298Y50385948D01*
X73813387Y50284348D01*
X73830575Y50273706D01*
X73830577Y50273704D01*
X73830579Y50273704D01*
X73830581Y50273702D01*
X74029402Y50196679D01*
X74238990Y50157500D01*
X74238991Y50157500D01*
X74452209Y50157500D01*
X74452210Y50157500D01*
X74661798Y50196679D01*
X74860619Y50273702D01*
X75041902Y50385948D01*
X75199472Y50529593D01*
X75327966Y50699745D01*
X75423005Y50890611D01*
X75481356Y51095690D01*
X75501029Y51308000D01*
X75481356Y51520310D01*
X75423005Y51725389D01*
X75335849Y51900424D01*
X75327967Y51916254D01*
X75285134Y51972973D01*
X75199472Y52086407D01*
X75194543Y52090900D01*
X75041903Y52230051D01*
X75041899Y52230054D01*
X74860624Y52342295D01*
X74860622Y52342297D01*
X74661798Y52419321D01*
X74661794Y52419322D01*
X74452210Y52458500D01*
X74238990Y52458500D01*
X74238989Y52458500D01*
X74029405Y52419322D01*
X74029401Y52419321D01*
X73830577Y52342297D01*
X73830575Y52342295D01*
X73649300Y52230054D01*
X73649296Y52230051D01*
X73491729Y52086409D01*
X73363232Y51916254D01*
X73268194Y51725388D01*
X73209843Y51520310D01*
X73190171Y51308001D01*
X73190171Y51308000D01*
X39662849Y51308000D01*
X39869576Y51404399D01*
X39869580Y51404401D01*
X40063076Y51539889D01*
X40230111Y51706924D01*
X40365599Y51900420D01*
X40365601Y51900424D01*
X40465426Y52114498D01*
X40465431Y52114511D01*
X40522636Y52328000D01*
X39785309Y52328000D01*
X39721240Y52348817D01*
X39681644Y52403317D01*
X39680724Y52467708D01*
X39692000Y52506112D01*
X39692000Y52649889D01*
X39680724Y52688292D01*
X39682648Y52755630D01*
X39723785Y52808977D01*
X39785309Y52828000D01*
X40522635Y52828000D01*
X40522635Y52828001D01*
X40465431Y53041490D01*
X40465427Y53041499D01*
X40365602Y53255573D01*
X40230107Y53449081D01*
X40063082Y53616107D01*
X40063076Y53616112D01*
X39869584Y53751597D01*
X39866111Y53753602D01*
X39821034Y53803663D01*
X39816372Y53848000D01*
X73190171Y53848000D01*
X73209843Y53635691D01*
X73268194Y53430613D01*
X73363232Y53239747D01*
X73491729Y53069592D01*
X73499311Y53062680D01*
X73649298Y52925948D01*
X73813387Y52824348D01*
X73830575Y52813706D01*
X73830577Y52813704D01*
X73830579Y52813704D01*
X73830581Y52813702D01*
X74029402Y52736679D01*
X74238990Y52697500D01*
X74238991Y52697500D01*
X74452209Y52697500D01*
X74452210Y52697500D01*
X74661798Y52736679D01*
X74860619Y52813702D01*
X75041902Y52925948D01*
X75199472Y53069593D01*
X75327966Y53239745D01*
X75423005Y53430611D01*
X75481356Y53635690D01*
X75501029Y53848000D01*
X75481356Y54060310D01*
X75423005Y54265389D01*
X75335849Y54440424D01*
X75327967Y54456254D01*
X75285134Y54512973D01*
X75199472Y54626407D01*
X75194543Y54630900D01*
X75041903Y54770051D01*
X75041899Y54770054D01*
X74860624Y54882295D01*
X74860622Y54882297D01*
X74661798Y54959321D01*
X74661794Y54959322D01*
X74452210Y54998500D01*
X74238990Y54998500D01*
X74238989Y54998500D01*
X74029405Y54959322D01*
X74029401Y54959321D01*
X73830577Y54882297D01*
X73830575Y54882295D01*
X73649300Y54770054D01*
X73649296Y54770051D01*
X73491729Y54626409D01*
X73363232Y54456254D01*
X73268194Y54265388D01*
X73209843Y54060310D01*
X73190171Y53848001D01*
X73190171Y53848000D01*
X39816372Y53848000D01*
X39813990Y53870660D01*
X39847672Y53929001D01*
X39866111Y53942398D01*
X39869584Y53944404D01*
X40063076Y54079889D01*
X40230111Y54246924D01*
X40365599Y54440420D01*
X40365601Y54440424D01*
X40465426Y54654498D01*
X40465431Y54654511D01*
X40522636Y54868000D01*
X39785309Y54868000D01*
X39721240Y54888817D01*
X39681644Y54943317D01*
X39680724Y55007708D01*
X39692000Y55046112D01*
X39692000Y55189889D01*
X39680724Y55228292D01*
X39682648Y55295630D01*
X39723785Y55348977D01*
X39785309Y55368000D01*
X40522635Y55368000D01*
X40522635Y55368001D01*
X40465431Y55581490D01*
X40465427Y55581499D01*
X40365602Y55795573D01*
X40230107Y55989081D01*
X40063082Y56156107D01*
X40063076Y56156112D01*
X39869584Y56291597D01*
X39866111Y56293602D01*
X39821034Y56343663D01*
X39816372Y56388000D01*
X73190171Y56388000D01*
X73209843Y56175691D01*
X73268194Y55970613D01*
X73363232Y55779747D01*
X73491729Y55609592D01*
X73499311Y55602680D01*
X73649298Y55465948D01*
X73813387Y55364348D01*
X73830575Y55353706D01*
X73830577Y55353704D01*
X73830579Y55353704D01*
X73830581Y55353702D01*
X74029402Y55276679D01*
X74238990Y55237500D01*
X74238991Y55237500D01*
X74452209Y55237500D01*
X74452210Y55237500D01*
X74661798Y55276679D01*
X74860619Y55353702D01*
X75041902Y55465948D01*
X75199472Y55609593D01*
X75327966Y55779745D01*
X75423005Y55970611D01*
X75481356Y56175690D01*
X75501029Y56388000D01*
X75481356Y56600310D01*
X75423005Y56805389D01*
X75335849Y56980424D01*
X75327967Y56996254D01*
X75285134Y57052973D01*
X75199472Y57166407D01*
X75194543Y57170900D01*
X75041903Y57310051D01*
X75041899Y57310054D01*
X74860624Y57422295D01*
X74860622Y57422297D01*
X74661798Y57499321D01*
X74661794Y57499322D01*
X74452210Y57538500D01*
X74238990Y57538500D01*
X74238989Y57538500D01*
X74029405Y57499322D01*
X74029401Y57499321D01*
X73830577Y57422297D01*
X73830575Y57422295D01*
X73649300Y57310054D01*
X73649296Y57310051D01*
X73491729Y57166409D01*
X73363232Y56996254D01*
X73268194Y56805388D01*
X73209843Y56600310D01*
X73190171Y56388001D01*
X73190171Y56388000D01*
X39816372Y56388000D01*
X39813990Y56410660D01*
X39847672Y56469001D01*
X39866111Y56482398D01*
X39869584Y56484404D01*
X40063076Y56619889D01*
X40230111Y56786924D01*
X40365599Y56980420D01*
X40365601Y56980424D01*
X40465426Y57194498D01*
X40465431Y57194511D01*
X40522636Y57408000D01*
X39785309Y57408000D01*
X39721240Y57428817D01*
X39681644Y57483317D01*
X39680724Y57547708D01*
X39692000Y57586112D01*
X39692000Y57729889D01*
X39680724Y57768292D01*
X39682648Y57835630D01*
X39723785Y57888977D01*
X39785309Y57908000D01*
X40522635Y57908000D01*
X40522635Y57908001D01*
X40465431Y58121490D01*
X40465427Y58121499D01*
X40365602Y58335573D01*
X40230107Y58529081D01*
X40063082Y58696107D01*
X40063076Y58696112D01*
X39869584Y58831597D01*
X39866111Y58833602D01*
X39821034Y58883663D01*
X39816372Y58928000D01*
X73190171Y58928000D01*
X73209843Y58715691D01*
X73268194Y58510613D01*
X73363232Y58319747D01*
X73491729Y58149592D01*
X73499311Y58142680D01*
X73649298Y58005948D01*
X73807487Y57908001D01*
X73830575Y57893706D01*
X73830577Y57893704D01*
X73830579Y57893704D01*
X73830581Y57893702D01*
X74029402Y57816679D01*
X74238990Y57777500D01*
X74238991Y57777500D01*
X74452209Y57777500D01*
X74452210Y57777500D01*
X74661798Y57816679D01*
X74860619Y57893702D01*
X75041902Y58005948D01*
X75199472Y58149593D01*
X75327966Y58319745D01*
X75423005Y58510611D01*
X75481356Y58715690D01*
X75501029Y58928000D01*
X75481356Y59140310D01*
X75423005Y59345389D01*
X75375682Y59440428D01*
X75327967Y59536254D01*
X75285134Y59592973D01*
X75199472Y59706407D01*
X75194543Y59710900D01*
X75041903Y59850051D01*
X75041899Y59850054D01*
X74860624Y59962295D01*
X74860622Y59962297D01*
X74661798Y60039321D01*
X74661794Y60039322D01*
X74452210Y60078500D01*
X74238990Y60078500D01*
X74238989Y60078500D01*
X74029405Y60039322D01*
X74029401Y60039321D01*
X73830577Y59962297D01*
X73830575Y59962295D01*
X73649300Y59850054D01*
X73649296Y59850051D01*
X73491729Y59706409D01*
X73363232Y59536254D01*
X73268194Y59345388D01*
X73209843Y59140310D01*
X73190171Y58928001D01*
X73190171Y58928000D01*
X39816372Y58928000D01*
X39813990Y58950660D01*
X39847672Y59009001D01*
X39866111Y59022398D01*
X39869584Y59024404D01*
X40063076Y59159889D01*
X40230111Y59326924D01*
X40365599Y59520420D01*
X40365601Y59520424D01*
X40465426Y59734498D01*
X40465431Y59734511D01*
X40522636Y59948000D01*
X39785309Y59948000D01*
X39721240Y59968817D01*
X39681644Y60023317D01*
X39680724Y60087708D01*
X39684515Y60100618D01*
X39692000Y60126111D01*
X39692000Y60269889D01*
X39680723Y60308292D01*
X39682648Y60375630D01*
X39723785Y60428977D01*
X39785309Y60448000D01*
X40522635Y60448000D01*
X40522635Y60448001D01*
X40465431Y60661490D01*
X40465427Y60661499D01*
X40365602Y60875573D01*
X40230107Y61069081D01*
X40089626Y61209563D01*
X40059043Y61269586D01*
X40069581Y61336122D01*
X40117216Y61383757D01*
X40143064Y61391436D01*
X40142734Y61392832D01*
X40149371Y61394401D01*
X40284090Y61444649D01*
X40284094Y61444650D01*
X40315285Y61468000D01*
X73190171Y61468000D01*
X73209843Y61255691D01*
X73268194Y61050613D01*
X73363232Y60859747D01*
X73491729Y60689592D01*
X73499311Y60682680D01*
X73649298Y60545948D01*
X73813387Y60444348D01*
X73830575Y60433706D01*
X73830577Y60433704D01*
X73830579Y60433704D01*
X73830581Y60433702D01*
X74029402Y60356679D01*
X74238990Y60317500D01*
X74238991Y60317500D01*
X74452209Y60317500D01*
X74452210Y60317500D01*
X74661798Y60356679D01*
X74860619Y60433702D01*
X75041902Y60545948D01*
X75199472Y60689593D01*
X75327966Y60859745D01*
X75423005Y61050611D01*
X75481356Y61255690D01*
X75501029Y61468000D01*
X75481356Y61680310D01*
X75423005Y61885389D01*
X75375682Y61980428D01*
X75327967Y62076254D01*
X75285134Y62132973D01*
X75199472Y62246407D01*
X75194543Y62250900D01*
X75041903Y62390051D01*
X75041899Y62390054D01*
X74860624Y62502295D01*
X74860622Y62502297D01*
X74661798Y62579321D01*
X74661794Y62579322D01*
X74452210Y62618500D01*
X74238990Y62618500D01*
X74238989Y62618500D01*
X74029405Y62579322D01*
X74029401Y62579321D01*
X73830577Y62502297D01*
X73830575Y62502295D01*
X73649300Y62390054D01*
X73649296Y62390051D01*
X73491729Y62246409D01*
X73363232Y62076254D01*
X73268194Y61885388D01*
X73209843Y61680310D01*
X73190171Y61468001D01*
X73190171Y61468000D01*
X40315285Y61468000D01*
X40399183Y61530807D01*
X40399193Y61530817D01*
X40485350Y61645906D01*
X40485351Y61645910D01*
X40535599Y61780629D01*
X40535599Y61780630D01*
X40542000Y61840164D01*
X40542000Y62487999D01*
X40541999Y62488000D01*
X39785309Y62488000D01*
X39721240Y62508817D01*
X39681644Y62563317D01*
X39680724Y62627708D01*
X39692000Y62666112D01*
X39692000Y62809889D01*
X39680724Y62848292D01*
X39682648Y62915630D01*
X39723785Y62968977D01*
X39785309Y62988000D01*
X40541999Y62988000D01*
X40542000Y62988002D01*
X40542000Y63635837D01*
X40535599Y63695371D01*
X40535599Y63695372D01*
X40485351Y63830091D01*
X40485350Y63830095D01*
X40399193Y63945184D01*
X40399183Y63945194D01*
X40315286Y64008000D01*
X73190171Y64008000D01*
X73209843Y63795691D01*
X73268194Y63590613D01*
X73363232Y63399747D01*
X73491729Y63229592D01*
X73499311Y63222680D01*
X73649298Y63085948D01*
X73813387Y62984348D01*
X73830575Y62973706D01*
X73830577Y62973704D01*
X73830579Y62973704D01*
X73830581Y62973702D01*
X74029402Y62896679D01*
X74238990Y62857500D01*
X74238991Y62857500D01*
X74452209Y62857500D01*
X74452210Y62857500D01*
X74661798Y62896679D01*
X74860619Y62973702D01*
X75041902Y63085948D01*
X75199472Y63229593D01*
X75327966Y63399745D01*
X75423005Y63590611D01*
X75481356Y63795690D01*
X75501029Y64008000D01*
X75481356Y64220310D01*
X75423005Y64425389D01*
X75375682Y64520427D01*
X75327967Y64616254D01*
X75199470Y64786409D01*
X75041903Y64930051D01*
X75041899Y64930054D01*
X74860624Y65042295D01*
X74860622Y65042297D01*
X74661798Y65119321D01*
X74661794Y65119322D01*
X74452210Y65158500D01*
X74238990Y65158500D01*
X74238989Y65158500D01*
X74029405Y65119322D01*
X74029401Y65119321D01*
X73830577Y65042297D01*
X73830575Y65042295D01*
X73649300Y64930054D01*
X73649296Y64930051D01*
X73491729Y64786409D01*
X73363232Y64616254D01*
X73268194Y64425388D01*
X73209843Y64220310D01*
X73190171Y64008001D01*
X73190171Y64008000D01*
X40315286Y64008000D01*
X40284094Y64031351D01*
X40284090Y64031352D01*
X40149370Y64081600D01*
X40089836Y64088000D01*
X39442001Y64088000D01*
X39442000Y64087999D01*
X39442000Y63332991D01*
X39421183Y63268922D01*
X39366683Y63229326D01*
X39317488Y63225100D01*
X39227764Y63238000D01*
X39227763Y63238000D01*
X39156237Y63238000D01*
X39156235Y63238000D01*
X39066512Y63225100D01*
X39000133Y63236588D01*
X38953183Y63284898D01*
X38942000Y63332991D01*
X38942000Y64088000D01*
X38294164Y64088000D01*
X38234629Y64081600D01*
X38234628Y64081600D01*
X38099909Y64031352D01*
X38099905Y64031351D01*
X37984816Y63945194D01*
X37984806Y63945184D01*
X37898649Y63830095D01*
X37898648Y63830091D01*
X37848400Y63695372D01*
X37848400Y63695371D01*
X37842000Y63635837D01*
X37842000Y62988002D01*
X37842001Y62988000D01*
X38598691Y62988000D01*
X38662760Y62967183D01*
X38702356Y62912683D01*
X38703276Y62848292D01*
X38692000Y62809889D01*
X38692000Y62666112D01*
X38703276Y62627708D01*
X38701352Y62560370D01*
X38660215Y62507023D01*
X38598691Y62488000D01*
X37842001Y62488000D01*
X37842000Y62487999D01*
X37842000Y61840164D01*
X2903334Y61840164D01*
X2836367Y61974654D01*
X2759641Y62076254D01*
X2707872Y62144807D01*
X2550302Y62288452D01*
X2386214Y62390051D01*
X2369024Y62400695D01*
X2369022Y62400697D01*
X2170198Y62477721D01*
X2170194Y62477722D01*
X1960610Y62516900D01*
X1747390Y62516900D01*
X1747389Y62516900D01*
X1537805Y62477722D01*
X1537801Y62477721D01*
X1338977Y62400697D01*
X1338975Y62400695D01*
X1157700Y62288454D01*
X1157696Y62288451D01*
X1000129Y62144809D01*
X871632Y61974654D01*
X776594Y61783788D01*
X718243Y61578710D01*
X698571Y61366401D01*
X698571Y61366400D01*
X718243Y61154091D01*
X776594Y60949013D01*
X871632Y60758147D01*
X928623Y60682680D01*
X1000128Y60587993D01*
X1157698Y60444348D01*
X1299286Y60356680D01*
X1338975Y60332106D01*
X1338977Y60332104D01*
X1338979Y60332104D01*
X1338981Y60332102D01*
X1403289Y60307190D01*
X1455510Y60264634D01*
X1472746Y60199510D01*
X1448410Y60136694D01*
X1394786Y60101985D01*
X1394978Y60101457D01*
X1392679Y60100621D01*
X1392132Y60100266D01*
X1390513Y60099833D01*
X1390501Y60099828D01*
X1176427Y60000003D01*
X982923Y59864511D01*
X815889Y59697477D01*
X680397Y59503973D01*
X580572Y59289899D01*
X580568Y59289890D01*
X523364Y59076401D01*
X523365Y59076400D01*
X1260691Y59076400D01*
X1324760Y59055583D01*
X1364356Y59001083D01*
X1365276Y58936692D01*
X1354000Y58898289D01*
X1354000Y58754512D01*
X1365276Y58716108D01*
X1363352Y58648770D01*
X1322215Y58595423D01*
X1260691Y58576400D01*
X523364Y58576400D01*
X500Y58576400D01*
X500Y63906400D01*
X698571Y63906400D01*
X718243Y63694091D01*
X776594Y63489013D01*
X871632Y63298147D01*
X928623Y63222680D01*
X1000128Y63127993D01*
X1157698Y62984348D01*
X1299286Y62896680D01*
X1338975Y62872106D01*
X1338977Y62872104D01*
X1338979Y62872104D01*
X1338981Y62872102D01*
X1537802Y62795079D01*
X1747390Y62755900D01*
X1747391Y62755900D01*
X1960609Y62755900D01*
X1960610Y62755900D01*
X2170198Y62795079D01*
X2369019Y62872102D01*
X2550302Y62984348D01*
X2707872Y63127993D01*
X2836366Y63298145D01*
X2931405Y63489011D01*
X2989756Y63694090D01*
X3009429Y63906400D01*
X3000014Y64008001D01*
X2989756Y64118710D01*
X2931405Y64323788D01*
X2836367Y64514654D01*
X2759641Y64616254D01*
X2707872Y64684807D01*
X2550302Y64828452D01*
X2386214Y64930051D01*
X2369024Y64940695D01*
X2369022Y64940697D01*
X2170198Y65017721D01*
X2170194Y65017722D01*
X1960610Y65056900D01*
X1747390Y65056900D01*
X1747389Y65056900D01*
X1537805Y65017722D01*
X1537801Y65017721D01*
X1338977Y64940697D01*
X1338975Y64940695D01*
X1157700Y64828454D01*
X1157696Y64828451D01*
X1000129Y64684809D01*
X871632Y64514654D01*
X776594Y64323788D01*
X718243Y64118710D01*
X698571Y63906401D01*
X698571Y63906400D01*
X500Y63906400D01*
X500Y66446400D01*
X698571Y66446400D01*
X718243Y66234091D01*
X776594Y66029013D01*
X871632Y65838147D01*
X923403Y65769592D01*
X1000128Y65667993D01*
X1157698Y65524348D01*
X1299286Y65436680D01*
X1338975Y65412106D01*
X1338977Y65412104D01*
X1338979Y65412104D01*
X1338981Y65412102D01*
X1537802Y65335079D01*
X1747390Y65295900D01*
X1747391Y65295900D01*
X1960609Y65295900D01*
X1960610Y65295900D01*
X2170198Y65335079D01*
X2369019Y65412102D01*
X2550302Y65524348D01*
X2707872Y65667993D01*
X2836366Y65838145D01*
X2931405Y66029011D01*
X2989756Y66234090D01*
X3009429Y66446400D01*
X3000014Y66548001D01*
X2999551Y66553000D01*
X52099285Y66553000D01*
X52118102Y66349918D01*
X52173916Y66153754D01*
X52173918Y66153750D01*
X52264827Y65971179D01*
X52264827Y65971178D01*
X52387734Y65808423D01*
X52387736Y65808421D01*
X52538459Y65671019D01*
X52711863Y65563652D01*
X52902044Y65489976D01*
X53102524Y65452500D01*
X53102525Y65452500D01*
X53306475Y65452500D01*
X53306476Y65452500D01*
X53506956Y65489976D01*
X53697137Y65563652D01*
X53870541Y65671019D01*
X54021264Y65808421D01*
X54144173Y65971179D01*
X54235082Y66153750D01*
X54290897Y66349917D01*
X54309715Y66553000D01*
X59719285Y66553000D01*
X59738102Y66349918D01*
X59793916Y66153754D01*
X59793918Y66153750D01*
X59884827Y65971179D01*
X59884827Y65971178D01*
X60007734Y65808423D01*
X60007736Y65808421D01*
X60158459Y65671019D01*
X60331863Y65563652D01*
X60522044Y65489976D01*
X60722524Y65452500D01*
X60722525Y65452500D01*
X60926475Y65452500D01*
X60926476Y65452500D01*
X61126956Y65489976D01*
X61317137Y65563652D01*
X61490541Y65671019D01*
X61641264Y65808421D01*
X61764173Y65971179D01*
X61855082Y66153750D01*
X61910897Y66349917D01*
X61929252Y66548000D01*
X73190171Y66548000D01*
X73209843Y66335691D01*
X73268194Y66130613D01*
X73363232Y65939747D01*
X73363234Y65939745D01*
X73491728Y65769593D01*
X73649298Y65625948D01*
X73813387Y65524348D01*
X73830575Y65513706D01*
X73830577Y65513704D01*
X73830579Y65513704D01*
X73830581Y65513702D01*
X74029402Y65436679D01*
X74238990Y65397500D01*
X74238991Y65397500D01*
X74452209Y65397500D01*
X74452210Y65397500D01*
X74661798Y65436679D01*
X74860619Y65513702D01*
X75041902Y65625948D01*
X75199472Y65769593D01*
X75327966Y65939745D01*
X75423005Y66130611D01*
X75481356Y66335690D01*
X75501029Y66548000D01*
X75481356Y66760310D01*
X75423005Y66965389D01*
X75338639Y67134821D01*
X75327967Y67156254D01*
X75276196Y67224809D01*
X75199472Y67326407D01*
X75041902Y67470052D01*
X74900310Y67557722D01*
X74860624Y67582295D01*
X74860622Y67582297D01*
X74661798Y67659321D01*
X74661794Y67659322D01*
X74452210Y67698500D01*
X74238990Y67698500D01*
X74238989Y67698500D01*
X74029405Y67659322D01*
X74029401Y67659321D01*
X73830577Y67582297D01*
X73830575Y67582295D01*
X73649300Y67470054D01*
X73649296Y67470051D01*
X73491729Y67326409D01*
X73363232Y67156254D01*
X73268194Y66965388D01*
X73209843Y66760310D01*
X73190171Y66548001D01*
X73190171Y66548000D01*
X61929252Y66548000D01*
X61929715Y66553000D01*
X61910897Y66756083D01*
X61855082Y66952250D01*
X61764173Y67134821D01*
X61764172Y67134823D01*
X61641265Y67297578D01*
X61490542Y67434980D01*
X61490538Y67434983D01*
X61317139Y67542347D01*
X61317137Y67542348D01*
X61126956Y67616024D01*
X61126952Y67616025D01*
X60926476Y67653500D01*
X60722524Y67653500D01*
X60722523Y67653500D01*
X60522047Y67616025D01*
X60522043Y67616024D01*
X60331862Y67542348D01*
X60331860Y67542347D01*
X60158461Y67434983D01*
X60158457Y67434980D01*
X60007734Y67297578D01*
X59884827Y67134823D01*
X59884827Y67134822D01*
X59793918Y66952251D01*
X59793916Y66952247D01*
X59738103Y66756083D01*
X59738102Y66756083D01*
X59719285Y66553001D01*
X59719285Y66553000D01*
X54309715Y66553000D01*
X54290897Y66756083D01*
X54235082Y66952250D01*
X54144173Y67134821D01*
X54144172Y67134823D01*
X54021265Y67297578D01*
X53870542Y67434980D01*
X53870538Y67434983D01*
X53697139Y67542347D01*
X53697137Y67542348D01*
X53506956Y67616024D01*
X53506952Y67616025D01*
X53306476Y67653500D01*
X53102524Y67653500D01*
X53102523Y67653500D01*
X52902047Y67616025D01*
X52902043Y67616024D01*
X52711862Y67542348D01*
X52711860Y67542347D01*
X52538461Y67434983D01*
X52538457Y67434980D01*
X52387734Y67297578D01*
X52264827Y67134823D01*
X52264827Y67134822D01*
X52173918Y66952251D01*
X52173916Y66952247D01*
X52118103Y66756083D01*
X52118102Y66756083D01*
X52099285Y66553001D01*
X52099285Y66553000D01*
X2999551Y66553000D01*
X2989756Y66658710D01*
X2931405Y66863789D01*
X2880815Y66965389D01*
X2836367Y67054654D01*
X2759641Y67156254D01*
X2707872Y67224807D01*
X2628045Y67297579D01*
X2550303Y67368451D01*
X2550299Y67368454D01*
X2369024Y67480695D01*
X2369022Y67480697D01*
X2170198Y67557721D01*
X2170194Y67557722D01*
X1960610Y67596900D01*
X1747390Y67596900D01*
X1747389Y67596900D01*
X1537805Y67557722D01*
X1537801Y67557721D01*
X1338977Y67480697D01*
X1338975Y67480695D01*
X1157700Y67368454D01*
X1157696Y67368451D01*
X1000129Y67224809D01*
X871632Y67054654D01*
X776594Y66863788D01*
X718243Y66658710D01*
X698571Y66446401D01*
X698571Y66446400D01*
X500Y66446400D01*
X500Y68986400D01*
X698571Y68986400D01*
X718243Y68774091D01*
X776594Y68569013D01*
X871632Y68378147D01*
X923403Y68309592D01*
X1000128Y68207993D01*
X1157698Y68064348D01*
X1299286Y67976680D01*
X1338975Y67952106D01*
X1338977Y67952104D01*
X1338979Y67952104D01*
X1338981Y67952102D01*
X1537802Y67875079D01*
X1747390Y67835900D01*
X1747391Y67835900D01*
X1960609Y67835900D01*
X1960610Y67835900D01*
X2170198Y67875079D01*
X2369019Y67952102D01*
X2550302Y68064348D01*
X2707872Y68207993D01*
X2836366Y68378145D01*
X2931405Y68569011D01*
X2989756Y68774090D01*
X3009429Y68986400D01*
X3000014Y69088000D01*
X49566417Y69088000D01*
X49586700Y68882066D01*
X49646768Y68684046D01*
X49744315Y68501550D01*
X49875590Y68341590D01*
X50035550Y68210315D01*
X50218046Y68112768D01*
X50416066Y68052700D01*
X50605054Y68034087D01*
X50621999Y68032417D01*
X50622000Y68032417D01*
X50622001Y68032417D01*
X50637657Y68033960D01*
X50827934Y68052700D01*
X51025954Y68112768D01*
X51208450Y68210315D01*
X51368410Y68341590D01*
X51496484Y68497650D01*
X51553219Y68533968D01*
X51580741Y68537500D01*
X51995001Y68537500D01*
X52059070Y68516683D01*
X52098666Y68462183D01*
X52104001Y68428500D01*
X52104001Y68248142D01*
X52104002Y68248121D01*
X52106914Y68223012D01*
X52106914Y68223010D01*
X52106915Y68223009D01*
X52152294Y68120235D01*
X52231735Y68040794D01*
X52334509Y67995415D01*
X52359635Y67992500D01*
X54049364Y67992501D01*
X54074491Y67995415D01*
X54177265Y68040794D01*
X54256706Y68120235D01*
X54302085Y68223009D01*
X54305000Y68248135D01*
X54304999Y69093000D01*
X59719285Y69093000D01*
X59738102Y68889918D01*
X59793916Y68693754D01*
X59793918Y68693750D01*
X59884827Y68511179D01*
X59884827Y68511178D01*
X60007734Y68348423D01*
X60007736Y68348421D01*
X60158459Y68211019D01*
X60331863Y68103652D01*
X60522044Y68029976D01*
X60722524Y67992500D01*
X60722525Y67992500D01*
X60926475Y67992500D01*
X60926476Y67992500D01*
X61126956Y68029976D01*
X61317137Y68103652D01*
X61490541Y68211019D01*
X61641264Y68348421D01*
X61751341Y68494188D01*
X61806563Y68532770D01*
X61838325Y68537500D01*
X62363259Y68537500D01*
X62427328Y68516683D01*
X62447514Y68497652D01*
X62575590Y68341590D01*
X62735550Y68210315D01*
X62918046Y68112768D01*
X63116066Y68052700D01*
X63305054Y68034087D01*
X63321999Y68032417D01*
X63322000Y68032417D01*
X63322001Y68032417D01*
X63337657Y68033960D01*
X63527934Y68052700D01*
X63725954Y68112768D01*
X63908450Y68210315D01*
X64068410Y68341590D01*
X64199685Y68501550D01*
X64297232Y68684046D01*
X64357300Y68882066D01*
X64377583Y69088000D01*
X64357300Y69293934D01*
X64297232Y69491954D01*
X64199685Y69674450D01*
X64068410Y69834410D01*
X63908450Y69965685D01*
X63725954Y70063232D01*
X63527934Y70123300D01*
X63389853Y70136900D01*
X63322001Y70143583D01*
X63321999Y70143583D01*
X63254147Y70136900D01*
X63116066Y70123300D01*
X62918046Y70063232D01*
X62918043Y70063231D01*
X62918041Y70063230D01*
X62735555Y69965688D01*
X62735552Y69965687D01*
X62735550Y69965685D01*
X62732265Y69962989D01*
X62575594Y69834414D01*
X62575586Y69834406D01*
X62504265Y69747500D01*
X62447515Y69678351D01*
X62390781Y69642032D01*
X62363259Y69638500D01*
X61845877Y69638500D01*
X61781808Y69659317D01*
X61758893Y69681813D01*
X61641265Y69837578D01*
X61490542Y69974980D01*
X61490538Y69974983D01*
X61317139Y70082347D01*
X61317137Y70082348D01*
X61126956Y70156024D01*
X61126952Y70156025D01*
X60926476Y70193500D01*
X60722524Y70193500D01*
X60722523Y70193500D01*
X60522047Y70156025D01*
X60522043Y70156024D01*
X60331862Y70082348D01*
X60331860Y70082347D01*
X60158461Y69974983D01*
X60158457Y69974980D01*
X60007734Y69837578D01*
X59884827Y69674823D01*
X59884827Y69674822D01*
X59793918Y69492251D01*
X59793916Y69492247D01*
X59738103Y69296083D01*
X59738102Y69296083D01*
X59719285Y69093001D01*
X59719285Y69093000D01*
X54304999Y69093000D01*
X54304999Y69937864D01*
X54302085Y69962991D01*
X54256706Y70065765D01*
X54177265Y70145206D01*
X54074491Y70190585D01*
X54049365Y70193500D01*
X54049364Y70193500D01*
X52359641Y70193500D01*
X52359620Y70193498D01*
X52334511Y70190586D01*
X52231734Y70145206D01*
X52152294Y70065766D01*
X52106915Y69962991D01*
X52104000Y69937866D01*
X52104000Y69747500D01*
X52083183Y69683431D01*
X52028683Y69643835D01*
X51995000Y69638500D01*
X51580741Y69638500D01*
X51516672Y69659317D01*
X51496485Y69678349D01*
X51368410Y69834410D01*
X51208450Y69965685D01*
X51025954Y70063232D01*
X50827934Y70123300D01*
X50689853Y70136900D01*
X50622001Y70143583D01*
X50621999Y70143583D01*
X50554147Y70136900D01*
X50416066Y70123300D01*
X50218046Y70063232D01*
X50218043Y70063231D01*
X50218041Y70063230D01*
X50035555Y69965688D01*
X50035552Y69965687D01*
X50035550Y69965685D01*
X50032265Y69962989D01*
X49875594Y69834414D01*
X49875586Y69834406D01*
X49804265Y69747500D01*
X49744620Y69674821D01*
X49744316Y69674451D01*
X49744312Y69674445D01*
X49646770Y69491959D01*
X49646769Y69491957D01*
X49646768Y69491954D01*
X49588634Y69300310D01*
X49586700Y69293933D01*
X49566910Y69093001D01*
X49566417Y69088000D01*
X3000014Y69088000D01*
X3000014Y69088001D01*
X2989756Y69198710D01*
X2962662Y69293934D01*
X2931405Y69403789D01*
X2880815Y69505389D01*
X2836367Y69594654D01*
X2759641Y69696254D01*
X2707872Y69764807D01*
X2628045Y69837579D01*
X2550303Y69908451D01*
X2550299Y69908454D01*
X2369024Y70020695D01*
X2369022Y70020697D01*
X2170198Y70097721D01*
X2170194Y70097722D01*
X1960610Y70136900D01*
X1747390Y70136900D01*
X1747389Y70136900D01*
X1537805Y70097722D01*
X1537801Y70097721D01*
X1338977Y70020697D01*
X1338975Y70020695D01*
X1157700Y69908454D01*
X1157696Y69908451D01*
X1000129Y69764809D01*
X871632Y69594654D01*
X776594Y69403788D01*
X718243Y69198710D01*
X698571Y68986401D01*
X698571Y68986400D01*
X500Y68986400D01*
X500Y70631542D01*
X703500Y70631542D01*
X703502Y70631521D01*
X706414Y70606412D01*
X706414Y70606410D01*
X706415Y70606409D01*
X751794Y70503635D01*
X831235Y70424194D01*
X934009Y70378815D01*
X959135Y70375900D01*
X2748864Y70375901D01*
X2773991Y70378815D01*
X2876765Y70424194D01*
X2956206Y70503635D01*
X3001585Y70606409D01*
X3004500Y70631535D01*
X3004500Y70885542D01*
X65122900Y70885542D01*
X65122902Y70885521D01*
X65125814Y70860412D01*
X65125814Y70860410D01*
X65125815Y70860409D01*
X65171194Y70757635D01*
X65250635Y70678194D01*
X65353409Y70632815D01*
X65378535Y70629900D01*
X67168264Y70629901D01*
X67193391Y70632815D01*
X67296165Y70678194D01*
X67375606Y70757635D01*
X67420985Y70860409D01*
X67423900Y70885535D01*
X67423899Y71780400D01*
X67657971Y71780400D01*
X67677643Y71568091D01*
X67735994Y71363013D01*
X67831032Y71172147D01*
X67864371Y71128000D01*
X67959528Y71001993D01*
X68117098Y70858348D01*
X68117100Y70858347D01*
X68298375Y70746106D01*
X68298377Y70746104D01*
X68298379Y70746104D01*
X68298381Y70746102D01*
X68497202Y70669079D01*
X68706790Y70629900D01*
X68706791Y70629900D01*
X68920009Y70629900D01*
X68920010Y70629900D01*
X69129598Y70669079D01*
X69328419Y70746102D01*
X69509702Y70858348D01*
X69667272Y71001993D01*
X69795766Y71172145D01*
X69890805Y71363011D01*
X69895070Y71378000D01*
X73014964Y71378000D01*
X73072168Y71164511D01*
X73072173Y71164498D01*
X73171998Y70950424D01*
X73172000Y70950420D01*
X73307488Y70756924D01*
X73474523Y70589889D01*
X73668019Y70454401D01*
X73668023Y70454399D01*
X73882097Y70354574D01*
X73882108Y70354570D01*
X73883716Y70354139D01*
X73884257Y70353788D01*
X73886578Y70352943D01*
X73886383Y70352408D01*
X73940217Y70317453D01*
X73964363Y70254564D01*
X73946933Y70189492D01*
X73894890Y70147212D01*
X73830580Y70122298D01*
X73830575Y70122295D01*
X73649300Y70010054D01*
X73649296Y70010051D01*
X73491729Y69866409D01*
X73363232Y69696254D01*
X73268194Y69505388D01*
X73209843Y69300310D01*
X73190171Y69088001D01*
X73190171Y69088000D01*
X73209843Y68875691D01*
X73268194Y68670613D01*
X73363232Y68479747D01*
X73363234Y68479745D01*
X73491728Y68309593D01*
X73649298Y68165948D01*
X73813387Y68064348D01*
X73830575Y68053706D01*
X73830577Y68053704D01*
X73830579Y68053704D01*
X73830581Y68053702D01*
X74029402Y67976679D01*
X74238990Y67937500D01*
X74238991Y67937500D01*
X74452209Y67937500D01*
X74452210Y67937500D01*
X74661798Y67976679D01*
X74860619Y68053702D01*
X75041902Y68165948D01*
X75199472Y68309593D01*
X75327966Y68479745D01*
X75423005Y68670611D01*
X75481356Y68875690D01*
X75501029Y69088000D01*
X75481356Y69300310D01*
X75423005Y69505389D01*
X75338826Y69674445D01*
X75327967Y69696254D01*
X75223632Y69834414D01*
X75199472Y69866407D01*
X75041902Y70010052D01*
X74900310Y70097722D01*
X74860624Y70122295D01*
X74860616Y70122300D01*
X74796310Y70147212D01*
X74744088Y70189768D01*
X74726854Y70254892D01*
X74751189Y70317708D01*
X74804815Y70352412D01*
X74804622Y70352943D01*
X74806942Y70353788D01*
X74807487Y70354140D01*
X74809092Y70354571D01*
X74809102Y70354574D01*
X75023176Y70454399D01*
X75023180Y70454401D01*
X75216676Y70589889D01*
X75383711Y70756924D01*
X75519199Y70950420D01*
X75519201Y70950424D01*
X75619026Y71164498D01*
X75619031Y71164511D01*
X75676236Y71378000D01*
X74938909Y71378000D01*
X74874840Y71398817D01*
X74835244Y71453317D01*
X74834324Y71517708D01*
X74845600Y71556112D01*
X74845600Y71699889D01*
X74834324Y71738292D01*
X74836248Y71805630D01*
X74877385Y71858977D01*
X74938909Y71878000D01*
X75676235Y71878000D01*
X75676235Y71878001D01*
X75619031Y72091490D01*
X75619027Y72091499D01*
X75519202Y72305573D01*
X75383707Y72499081D01*
X75216682Y72666107D01*
X75216676Y72666112D01*
X75023180Y72801600D01*
X75023176Y72801602D01*
X74809102Y72901427D01*
X74809089Y72901432D01*
X74595600Y72958636D01*
X74595600Y72222991D01*
X74574783Y72158922D01*
X74520283Y72119326D01*
X74471088Y72115100D01*
X74381364Y72128000D01*
X74381363Y72128000D01*
X74309837Y72128000D01*
X74309835Y72128000D01*
X74220112Y72115100D01*
X74153733Y72126588D01*
X74106783Y72174898D01*
X74095600Y72222991D01*
X74095600Y72958636D01*
X74095599Y72958636D01*
X73882110Y72901432D01*
X73882101Y72901428D01*
X73668027Y72801603D01*
X73474523Y72666111D01*
X73307489Y72499077D01*
X73171997Y72305573D01*
X73072172Y72091499D01*
X73072168Y72091490D01*
X73014964Y71878001D01*
X73014965Y71878000D01*
X73752291Y71878000D01*
X73816360Y71857183D01*
X73855956Y71802683D01*
X73856876Y71738292D01*
X73845600Y71699889D01*
X73845600Y71556112D01*
X73856876Y71517708D01*
X73854952Y71450370D01*
X73813815Y71397023D01*
X73752291Y71378000D01*
X73014964Y71378000D01*
X69895070Y71378000D01*
X69949156Y71568090D01*
X69968829Y71780400D01*
X69949156Y71992710D01*
X69890805Y72197789D01*
X69843482Y72292828D01*
X69795767Y72388654D01*
X69674553Y72549165D01*
X69667272Y72558807D01*
X69509702Y72702452D01*
X69347045Y72803165D01*
X69328424Y72814695D01*
X69328422Y72814697D01*
X69129598Y72891721D01*
X69129594Y72891722D01*
X68920010Y72930900D01*
X68706790Y72930900D01*
X68706789Y72930900D01*
X68497205Y72891722D01*
X68497201Y72891721D01*
X68298377Y72814697D01*
X68298375Y72814695D01*
X68117100Y72702454D01*
X68117096Y72702451D01*
X67959529Y72558809D01*
X67831032Y72388654D01*
X67735994Y72197788D01*
X67677643Y71992710D01*
X67657971Y71780401D01*
X67657971Y71780400D01*
X67423899Y71780400D01*
X67423899Y72675264D01*
X67420985Y72700391D01*
X67375606Y72803165D01*
X67296165Y72882606D01*
X67193391Y72927985D01*
X67168265Y72930900D01*
X67168264Y72930900D01*
X65378541Y72930900D01*
X65378520Y72930898D01*
X65353411Y72927986D01*
X65250634Y72882606D01*
X65171194Y72803166D01*
X65125815Y72700391D01*
X65122900Y72675266D01*
X65122900Y70885542D01*
X3004500Y70885542D01*
X3004499Y72421264D01*
X3001585Y72446391D01*
X2956206Y72549165D01*
X2876765Y72628606D01*
X2773991Y72673985D01*
X2748865Y72676900D01*
X2748864Y72676900D01*
X959141Y72676900D01*
X959120Y72676898D01*
X934011Y72673986D01*
X831234Y72628606D01*
X751794Y72549166D01*
X706415Y72446391D01*
X703500Y72421266D01*
X703500Y70631542D01*
X500Y70631542D01*
X500Y73722500D01*
X21317Y73786569D01*
X75817Y73826165D01*
X109500Y73831500D01*
X76090500Y73831500D01*
X76154569Y73810683D01*
G37*
%TD.AperFunction*%
%TD*%
M02*
