M48
; DRILL file {KiCad 7.0.7} date Fri 26 Jan 2024 08:02:39 PM -03
; FORMAT={-:-/ absolute / inch / decimal}
; #@! TF.CreationDate,2024-01-26T20:02:39-03:00
; #@! TF.GenerationSoftware,Kicad,Pcbnew,7.0.7
; #@! TF.FileFunction,Plated,1,2,PTH
FMAT,2
INCH
; #@! TA.AperFunction,Plated,PTH,ComponentDrill
T1C0.0276
; #@! TA.AperFunction,Plated,PTH,ComponentDrill
T2C0.0315
; #@! TA.AperFunction,Plated,PTH,ViaDrill
T3C0.0354
; #@! TA.AperFunction,Plated,PTH,ComponentDrill
T4C0.0394
; #@! TA.AperFunction,Plated,PTH,ComponentDrill
T5C0.0433
%
G90
G05
T1
X0.568Y1.22
X0.568Y0.62
X0.768Y1.22
X0.768Y0.62
X1.168Y1.52
X1.168Y1.32
X2.243Y0.22
X2.443Y0.22
T2
X0.693Y1.1169
X0.693Y0.92
X0.693Y0.5184
X0.693Y0.3216
X1.368Y0.72
X1.368Y0.62
X1.368Y0.52
X1.668Y0.72
X1.668Y0.62
X1.668Y0.52
X2.0947Y2.7202
X2.0947Y2.6202
X2.318Y0.5169
X2.318Y0.32
X2.3947Y2.7202
X2.3947Y2.6202
T3
X0.343Y1.145
X0.343Y0.545
X0.468Y1.745
X0.743Y1.545
X0.843Y1.495
X0.918Y2.22
X1.043Y1.745
X1.468Y1.02
X1.468Y0.27
X1.543Y2.77
X1.693Y1.17
X1.768Y0.72
X1.768Y0.62
X1.768Y0.52
X1.943Y2.095
X1.993Y2.72
X1.993Y0.245
X2.268Y1.095
X2.493Y2.72
X2.693Y0.32
T4
X0.073Y2.816
X0.073Y2.716
X0.073Y2.616
X0.073Y2.516
X0.073Y2.416
X0.073Y2.316
X0.073Y2.216
X0.073Y2.116
X0.073Y2.016
X0.073Y1.916
X0.073Y1.816
X0.073Y1.716
X0.073Y1.616
X0.073Y1.516
X0.073Y1.416
X0.073Y1.316
X0.073Y1.216
X0.073Y1.116
X0.073Y1.016
X0.073Y0.916
X0.073Y0.816
X0.073Y0.716
X0.073Y0.616
X0.073Y0.516
X0.073Y0.416
X0.073Y0.316
X0.073Y0.216
X0.073Y0.116
X0.543Y1.645
X0.643Y1.645
X0.743Y1.645
X0.843Y1.645
X0.943Y1.645
X1.543Y2.47
X1.543Y2.37
X1.543Y2.27
X1.543Y2.17
X1.543Y2.07
X2.6092Y2.826
X2.7092Y2.826
X2.927Y2.82
X2.927Y2.72
X2.927Y2.62
X2.927Y2.52
X2.927Y2.42
X2.927Y2.32
X2.927Y2.22
X2.927Y2.12
X2.927Y2.02
X2.927Y1.92
X2.927Y1.82
X2.927Y1.72
X2.927Y1.62
X2.927Y1.52
X2.927Y1.42
X2.927Y1.32
X2.927Y1.22
X2.927Y1.12
X2.927Y1.02
X2.927Y0.92
X2.927Y0.82
X2.927Y0.72
X2.927Y0.62
X2.927Y0.52
X2.927Y0.42
X2.927Y0.32
X2.927Y0.22
X2.927Y0.12
T5
X1.4371Y1.6086
X1.4371Y1.4314
X1.693Y1.6086
X1.693Y1.4314
T0
M30
